<?xml version="1.0" encoding="UTF-8"?>
<svg id="Ebene_2" data-name="Ebene 2" xmlns="http://www.w3.org/2000/svg" viewBox="0 0 872.42 476.45">
  <defs>
    <style>
      .cls-1 {
        fill: #3b0101;
      }
    </style>
  </defs>
  <g id="Ebene_1_Kopie" data-name="Ebene 1 Kopie">
    <g>
      <path class="cls-1" d="M756.55,366.16c33.07,30.88,86.51,79.64,115.86,99.99-6.59-25.96-88.46-101.38-117.5-134.26.96-91.94-16.32-170.17-18.33-18.55-.11-.12-.22-.23-.34-.34-3.4,11.56-1.86,27-11.56,35.27.17-47.1.13-103.15-5.65-148.8,12.09-3.43,22.65,11.55,25.15,21.52,15.26-9.63-16.05-45.09-38.49-38.94-.4,1.73-.8,3.5-1.21,5.27-10.74-1.26-32.06-2.44-61.66-3.51-3.64-200.19-15.29-221.39-23.22-4.84-10.38-1.09-21.38-.48-31.85-.84v-.03c-.76-52.5-1.1-104.52-6.19-155.9,85.96-7.71,34.9-13.32-14.73-14.73-1.99,53.66-4.25,116.58-3.97,174.12-72.26-1.67-142.16-1.96-220.14-2.83-.05-40.81-.09-80.66-.13-119.22-2,.01-3.93.02-5.92.04-.74-9.18-3.11-24.77-4.81-26.71C311.38-24.68,82.24,11.56,16.67,8.18c-.18-.27.09,1.39.07,1.46-7.63,3.07-12.06,2.94-16.74,8.83,3.3,61.16,8.34,70.18,14.51,4.87,100.84,19.52,229.96-19.52,316.65,9.01-3.89,6.1-3.27,19.25-5.01,27.29-13.15.08-26.16.17-39.03.25,0-.07,0-.14,0-.22-68.7.86-137.94-.67-205.54-.19.01.79.02,1.55.03,2.34-11.7.15-23.19.29-34.42.43.02,1.27.04,2.49.06,3.75-37.62,3.51-62.1,9.22.21,13.93,4.51,278.69,11.06,285.73,17.44,1.16,5.38.32,11.06.61,16.97.88,1.95,29.58.66,64.86,10.95,90.64,1.71-.71,4.31-2.15,1.88-3.36,6.77-22.35,8.74-59.48,11.33-85.22.12-.03.36.19.32.2,18.74-.25,36.38-.61,55.2-.08,5.41,42.46,13.18,44.56,16.82.06,6.57,0,13.06-.01,19.45-.06.8,1.33,1.61,1.31,2.38-.02,22.26.02,41.99-1.06,62.56-.89.52.32.23.73-.09.98.05,24.41-.4,55.29,5.4,78.35-47.01,11.11-7.17,14.55,15.85,15.85,1.88-30.49,4.13-63.41,3.36-94.89,10.16.16,20.41.17,30.87.42-.43,58.86-.04,116.95-.18,175.08-26.92,10.53-52.41,28.67-64.73,55.72-34.49-70.64-154.22-79.81-196.58-7.18-68.15,105.76,86.01,232.57,181.84,126.03,8.84-.02,17.54-.01,26.13-.05,43.5,53.4,134.15,51.05,174.23,0,13.86.05,27.86.08,41.72.08,14.13,55.18,104.12,52.25,112.7-1.36,2.98-.02,6.05-.05,9.01-.08,10.33,43.6,69.67,54.29,98.44,26.67.07,5.28.14,11.01.21,17.55,155.1-.11,263.52-8.82,22.29-21.99,1.03-7.17.52-14.72.91-22.07l2.5-.26c-3.92-18.3-1.33-38.29-1.8-56.43,8.97-2.86,18.5-8.78,22.98-16.96.61.02-1.93-2.7,8.72,7.42ZM606.44,386.94c-3.74.23-7.35.51-10.8.86-2.19-5.44-6.14-10.67-10.24-14.79,10.61-.15,21.06-.3,31.33-.44-4.11,4.17-7.57,9.05-10.29,14.37ZM457.94,200.21c38.05-1.01,73.18-1.94,104.9-2.78,0,1.82,0,3.71,0,5.52,27.77-.19,54.57-.37,80.21-.54-.03-2.72-.07-5.32-.1-8.01,25.95-1.18,46.58-2.36,60.74-3.46-3.28,52.72-3.95,107.94-3.62,162.26-.04,0-.08,0-.12,0v1.74c-77.06-2.26-155.47-3.13-233.85-4.39-.22.16-.06-.72-.1-.99-5.8-58.3-67.11-104.6-123.36-96.41.05-16.88.14-33.98.1-50.93,40.68-.71,79.3-1.38,115.2-2.01ZM200.1,444.47c-83.44,42.48-178.17-61.88-113.01-137.63,42.68-45.47,124.68-37.18,149.29,21.27-57.96,4.63-49.58,13.29,5.54,18.63,1.48,12.22-.99,25.74,1.57,37.97-5.26,15.26-19.14,35.15-28.49,48.63l3.88.07c-5.61,4.2-11.73,8.07-18.78,11.06ZM400.41,444.49c-61.72,30.05-149.85-20.53-132-95.46,157.35,5.49,180.86-28.46,7.21-23.27,70.47-118.5,232.66,4.09,139.42,107.75,1.36,0,2.77,0,4.13.01-5.61,4.18-11.72,8.02-18.76,10.97ZM467.24,408.82c-.44,0-8.74.03-8.61.05-.07.04-.25.11-.43.13-.01-.03.04-.53,0-.38,4.34-10.89,7.33-22.61,7.89-34.28,9.11-.06,17.99-.13,26.94-.19-9.23,8.37-13.28,21.73-15.02,33.23,0,.29.03,1.11.03,1.4-1.98,0-8.7.03-10.78.04ZM560.37,451.83c-90.3,22.15-62.57-116.85,11.06-60.05-21.39,4.68-7.69,11.13,6.6,13.87l.13.62c3.79,1.69-5.23,29.14,5.82,26.1-4.51,8.09-11.96,15.84-23.62,19.46ZM600.25,410.97s0,.01,0,.02h-.2s.2-.02.2-.02ZM682.37,451.82c-26.17,10.12-62.67-8.67-57.19-40.57,53.12-1.39,86.42-20.71,11.86-24.45,18.07-15.54,50.42-14.65,62.97,6.75.04,9.56.11,17.38.2,25.14-1.28-.05-.03,15.64-.33,16.25l.53-.06c.02,1.64.05,3.35.07,5.1-4.43,5.03-10.28,9.39-18.12,11.84Z"/>
      <path class="cls-1" d="M96.3,169.2c-2.81,16.3,71.41,18.02,72.09-.31,15.62,4.11,15.73-39.12,6.65-46.8-18.54-12.41-23.66,38.79-8.91,45-13.18-13.37-62.29-11.54-69.83,2.11Z"/>
      <path class="cls-1" d="M212.2,152.62c-8.44-127.43-31.12-43.07-24.05,28.54,27.1.5,92.19-9.04,25.85-20.76-2,.19-4.27-2-2.07-3.29.13.9.22-2.82.27-4.49Z"/>
    </g>
  </g>
</svg>