<?xml version="1.0" encoding="UTF-8"?>
<svg id="Ebene_1_Kopie" data-name="Ebene 1 Kopie" xmlns="http://www.w3.org/2000/svg" viewBox="0 0 114.73 114.73">
  <defs>
    <style>
      .cls-1 {
        fill: #3b0101;
      }
    </style>
  </defs>
  <path class="cls-1" d="M72.54,63.43c1.57,1.46,4.1,3.77,5.49,4.74-.31-1.23-4.19-4.8-5.57-6.36.05-4.36-.77-8.06-.87-.88,0,0-.01-.01-.02-.02-.16.55-.09,1.28-.55,1.67,0-2.23,0-4.89-.27-7.05.57-.16,1.07.55,1.19,1.02.72-.46-.76-2.14-1.82-1.84-.02.08-.04.17-.06.25-.51-.06-1.52-.12-2.92-.17-.17-9.48-.72-10.49-1.1-.23-.49-.05-1.01-.02-1.51-.04h0c-.04-2.49-.05-4.95-.29-7.39,4.07-.37,1.65-.63-.7-.7-.09,2.54-.2,5.52-.19,8.25-3.42-.08-6.73-.09-10.43-.13,0-1.93,0-3.82,0-5.65-.09,0-.19,0-.28,0-.04-.43-.15-1.17-.23-1.27-.97-2.73-11.82-1.01-14.93-1.17,0-.01,0,.07,0,.07-.36.15-.57.14-.79.42.16,2.9.39,3.32.69.23,4.78.92,10.89-.92,15,.43-.18.29-.16.91-.24,1.29-.62,0-1.24,0-1.85.01,0,0,0,0,0-.01-3.25.04-6.53-.03-9.74,0,0,.04,0,.07,0,.11-.55,0-1.1.01-1.63.02,0,.06,0,.12,0,.18-1.78.17-2.94.44,0,.66.21,13.2.52,13.53.83.06.25.02.52.03.8.04.09,1.4.03,3.07.52,4.29.08-.03.2-.1.09-.16.32-1.06.41-2.82.54-4.04,0,0,.02,0,.02,0,.89-.01,1.72-.03,2.61,0,.26,2.01.62,2.11.8,0,.31,0,.62,0,.92,0,.04.06.08.06.11,0,1.05,0,1.99-.05,2.96-.04.02.01.01.03,0,.05,0,1.16-.02,2.62.26,3.71-2.23.53-.34.69.75.75.09-1.44.2-3,.16-4.49.48,0,.97,0,1.46.02-.02,2.79,0,5.54,0,8.29-1.27.5-2.48,1.36-3.07,2.64-1.63-3.35-7.31-3.78-9.31-.34-3.23,5.01,4.07,11.02,8.61,5.97.42,0,.83,0,1.24,0,2.06,2.53,6.35,2.42,8.25,0,.66,0,1.32,0,1.98,0,.67,2.61,4.93,2.48,5.34-.06.14,0,.29,0,.43,0,.49,2.07,3.3,2.57,4.66,1.26,0,.25,0,.52.01.83,7.35,0,12.48-.42,1.06-1.04.05-.34.02-.7.04-1.05h.12c-.19-.88-.06-1.83-.09-2.69.42-.14.88-.42,1.09-.8.03,0-.09-.13.41.35ZM65.43,64.41c-.18.01-.35.02-.51.04-.1-.26-.29-.51-.48-.7.5,0,1-.01,1.48-.02-.19.2-.36.43-.49.68ZM58.4,55.57c1.8-.05,3.47-.09,4.97-.13,0,.09,0,.18,0,.26,1.32,0,2.58-.02,3.8-.03,0-.13,0-.25,0-.38,1.23-.06,2.21-.11,2.88-.16-.16,2.5-.19,5.11-.17,7.69,0,0,0,0,0,0v.08c-3.65-.11-7.36-.15-11.08-.21-.01,0,0-.03,0-.05-.27-2.76-3.18-4.95-5.84-4.57,0-.8,0-1.61,0-2.41,1.93-.03,3.76-.07,5.46-.1ZM46.18,67.14c-3.95,2.01-8.44-2.93-5.35-6.52,2.02-2.15,5.91-1.76,7.07,1.01-2.75.22-2.35.63.26.88.07.58-.05,1.22.07,1.8-.25.72-.91,1.67-1.35,2.3h.18c-.27.2-.56.39-.89.53ZM55.67,67.14c-2.92,1.42-7.1-.97-6.25-4.52,7.45.26,8.57-1.35.34-1.1,3.34-5.61,11.02.19,6.6,5.1.06,0,.13,0,.2,0-.27.2-.56.38-.89.52ZM58.84,65.45s-.41,0-.41,0c0,0-.01,0-.02,0,0,0,0-.03,0-.02.21-.52.35-1.07.37-1.62.43,0,.85,0,1.28,0-.44.4-.63,1.03-.71,1.57,0,.01,0,.05,0,.07-.09,0-.41,0-.51,0ZM63.25,67.49c-4.28,1.05-2.96-5.53.52-2.84-1.01.22-.36.53.31.66v.03c.19.08-.24,1.38.28,1.24-.21.38-.57.75-1.12.92ZM65.14,65.55s0,0,0,0h0s0,0,0,0ZM69.03,67.48c-1.24.48-2.97-.41-2.71-1.92,2.52-.07,4.09-.98.56-1.16.86-.74,2.39-.69,2.98.32,0,.45,0,.82,0,1.19-.06,0,0,.74-.02.77h.03c0,.07,0,.16,0,.24-.21.24-.49.44-.86.56Z"/>
  <path class="cls-1" d="M41.27,54.1c-.13.77,3.38.85,3.41-.01.74.19.75-1.85.31-2.22-.88-.59-1.12,1.84-.42,2.13-.62-.63-2.95-.55-3.31.1Z"/>
  <path class="cls-1" d="M46.76,53.31c-.4-6.04-1.47-2.04-1.14,1.35,1.28.02,4.37-.43,1.22-.98-.09,0-.2-.09-.1-.16,0,.04.01-.13.01-.21Z"/>
</svg>