<?xml version="1.0" encoding="UTF-8"?>
<svg id="Ebene_1_Kopie" data-name="Ebene 1 Kopie" xmlns="http://www.w3.org/2000/svg" viewBox="0 0 114.73 114.73">
  <defs>
    <style>
      .cls-1 {
        fill: #3b0101;
      }
    </style>
  </defs>
  <path class="cls-1" d="M92.62,59.96c-.02-1.91-.04-3.81-.05-5.67-.19,0-.38-.01-.57-.02-1.21-.98-3.61-2.81-6.85-5.21-.11-.08-.23-.17-.34-.25.07-.26.13-.63.19-1.09.06-.53.12-1.17.16-1.89l.05-1.12.03-1.43c0-.32,0-.64,0-.96-.29,0-.57,0-.85,0l.04-.1-.77-.31c-.1-.04-.21-.07-.33-.08-.2-.01-.39.03-.55.11l-.74.35.03.07c-.22,0-.44,0-.66.01,0,1.66.04,1.96.08,2.62.04.56.09,1.04.15,1.47-.82-.6-1.66-1.22-2.53-1.86-2.31-1.68-4.8-3.49-7.41-5.38-3.02.61-6.18,1.25-9.4,1.9-5.29,1.11-10.36,2.17-15.09,3.16-2.36.51-4.64,1-6.82,1.47-1.09.24-2.15.47-3.19.7-.52.12-1.03.23-1.53.34l-.75.17-.43.1c-.26.07-.52.23-.7.37l.06-.1c-1.34,1.69-2.9,3.09-4.34,4.34-1.45,1.25-2.84,2.34-4.09,3.3-1.1.84-2.17,1.64-2.98,2.26l-.38.29.45.07c.25.04.46.07.65.09-.16,5.63-.31,11.04-.46,16.16,6.87.31,13.22.59,18.93.85,5.49.21,10.35.4,14.47.56,5.74.18,10.73.28,6.41-.08-3.91-.31-9.08-.68-15.58-1.12-1.07-.07-2.18-.14-3.32-.21.08-.32.15-.81.21-1.44.06-.65.12-1.45.16-2.33.02-.45.03-.91.05-1.38,0-.61.02-1.22.03-1.84v-.7c-.95,0-1.88,0-2.79,0,0,.56.01,1.12.02,1.67,0,.31.02.61.03.91.03.57.05,1.13.08,1.69.06,1.06.15,1.97.24,2.7.03.21.07.41.11.58-5.2-.33-11.1-.7-17.73-1.11.14-3.8.3-7.94.46-12.34l.04-1.28.02-.63h0c.6-.06,1.19-.12,1.78-.17,0,.3.02.6.02.92,0,.2.01.26.02.35l.03.25c.03.24.06.46.09.68,0,.4.07.76.17,1.06-.03,0-.05,0-.08,0h-.7s-.01.72-.01.72c0,.09,0,.18,0,.27l.06.77.65-.05c.64-.05,1.16-.31,1.45-.55,0,0,.02,0,.03-.01.19.02.41.04.66.06.12-1.65.2-2.06.22-3.59,0-.38,0-.75,0-1.11,5.66-.52,11.16-1.02,16.4-1.5,6.53-.64,12.65-1.24,18.24-1.79.03,2.7.06,5.24.09,7.61.05,2.51.09,4.81.13,6.87.11,4.4.27,8.23.41,4.91.06-2.28.14-5.05.23-8.33.06-3.21.13-6.91.21-11.14,5.11.22,11.01.47,17.68.76-.14.03-.27.06-.39.09l-.41.13c-.18,0-.35-.02-.52-.03-.56-.02-1.12-.04-1.67-.06,0,.77.01,1.52.02,2.27.02.48.03.95.05,1.42.05,1,.1,1.99.16,2.97l1.27-.07.68-.08c.09-.01.17-.03.26-.04.11.21.21.29.27.04l.02-.1s.08-.02.12-.03c.13.03.26.06.41.09-.22.06-.41.12-.53.17l-.04.02c-.37.37,2.06.67,4.84.72h.17s.72,0,.72,0v-.73s0-.06,0-.09c.31.04.76.08,1.55.12.04-.81.09-1.64.13-2.47.03-.72.06-1.49.07-2.28,0-.56,0-1.11,0-1.65-.72,0-1.42.02-2.12.03l.04-.12-.37-.12c1.38.05,2.75.1,4.1.15.04,3.17.08,6.26.11,9.24.05,2.99.11,5.87.16,8.62-6.29.37-11.88.71-16.44.98-4.66.31-8.19.57-10.19.76l-.33.04c-1.25.2,1.3.23,6.35.13,2.55-.07,5.69-.15,9.26-.24,3.8-.13,8.07-.27,12.64-.43-.03-4.68-.05-9.69-.08-14.83ZM42.4,73.79c.19-.51.36-1.25.47-2.25.11,1.01.24,1.79.36,2.3-.28-.02-.55-.03-.83-.05ZM42.69,67.62s0,0-.02,0h0s0,0,0,0ZM42.62,67.63h0s-.03,0,0,0h0ZM83.79,43.78c0-.29.03.77.07,1.34.02.23.04.45.06.67-.06-.03-.13-.05-.2-.08.03-.76-.11-1.44-.3-1.94.12,0,.25,0,.37.01ZM83.5,46.98c.19-.03.37-.09.52-.16,0,.02,0,.04,0,.06.08.63.18,1.14.27,1.55-.34-.25-.69-.5-1.04-.77.09-.19.17-.43.24-.69ZM82.17,46.67c.06.06.13.11.22.15.01.09.03.17.05.25-.1-.08-.21-.15-.31-.23.01-.06.03-.11.04-.17ZM27.95,53.88c2.04-1.53,4.45-3.26,6.71-5.89l-.36-.29.41.21h0s0,0,0,0h0s.01.03.01.03l.02.04s.02.04.02.06c.02.03-.03.05.05.03l.47-.09c.32-.06.64-.12.96-.19.65-.12,1.31-.25,1.99-.38,1.36-.26,2.77-.54,4.25-.82,2.96-.58,6.15-1.21,9.57-1.89,3.48-.72,6.88-1.41,10.16-2.09,2.96-.63,5.81-1.24,8.54-1.83-.67.78-1.97,2.7-3.37,4.87-1.63,2.59-2.91,4.93-3.58,6.43-.27.63-.45,1.22-.06.86.82-.82,2.13-2.39,3.82-4.88,2.08-3.13,3.45-6.19,3.65-7.38.05-.01.1-.02.15-.03,2.4,1.66,4.68,3.24,6.81,4.71,2.18,1.49,4.2,2.86,6.02,4.1,3.09,2.09,5.56,3.72,7.22,4.79-2.54-.08-5.04-.15-7.47-.22-4.94-.27-11.8-.59-19.81-.94l-.63-.03v.45c-.87.07-1.75.15-2.64.23-3.36.11-8.21.36-14.68.85-8.13.64-15.48,1.53-19.9,2.19-1.02.09-2.06.19-3.06.28,1.37-.86,2.93-1.89,4.71-3.18ZM22.74,57.38s-.01,0-.02,0c.14-.08.28-.18.42-.27,0,.06,0,.12,0,.19-.12.02-.24.05-.34.07l-.06.02ZM84.97,59.36c0-.1,0-.2,0-.3.17-.04.33-.09.48-.16.02.2.04.4.07.58-.16-.05-.34-.09-.54-.12ZM83.94,57.05s.04,0,.06.01c-.09.19-.17.42-.24.68-.23.03-.45.08-.64.14,0-.13.01-.26.02-.39l.02-.65c.23.07.49.14.78.2ZM85.38,57.36s-.02.02-.02.02c0,0,0,0,0,0v.21c0,.09,0,.18,0,.27-.17-.05-.36-.09-.56-.12-.04-.21-.09-.39-.15-.56.09.01.15.03.24.04l.27.04c.08.01.22.03.2.03.02.02.02.04.01.05h0ZM83.06,58.81c.14.07.3.14.48.19,0,.14,0,.28,0,.41-.2.04-.38.1-.54.17.02-.24.04-.5.06-.77ZM82.91,60.38c.22.12.5.23.85.31.05.14.09.27.14.38-.41.04-.79.08-1.13.13.05-.21.1-.47.14-.82ZM84.83,60.7c.33-.07.62-.19.84-.33.05.22.1.41.15.58-.37.01-.72.03-1.07.05.03-.09.05-.19.08-.3ZM81.32,61.4l-.58-.09c-.12-.03-.21-.06-.29-.08l.05-.21c.02-.07.03-.08.04-.28.03-.33.05-.67.08-1.01.05-.71.09-1.49.13-2.36,0-.29.01-.37.01-.4-.11,0-.09,0,0,0,0,0,0,0,0,0,.24,0,.91.02,1.07,0,0,0,0,0,0,0v.03s.03.22.03.22c.02.28.04.57.07.86.05.55.1,1.05.16,1.5.09.71.19,1.27.29,1.65-.08.01-.18.03-.26.04-.07.02-.14.03-.22.05l-.37.09c-.08-.01-.15-.03-.23-.04ZM87.4,57.17s.02-.02.03-.03c.02,0,.04.02.05.03.02,0-.02,0,.05.01h.26s.24.02.24.02h0s0,.01,0,.01c0,.01,0-.02,0,.02l.02.72c.02.45.04.9.07,1.37.03.4.07.82.1,1.24.04.5.08.44.13.68-.07.03-.16.06-.27.1-.12.02-.23.04-.35.07v-.48s-.72,0-.72,0c-.05,0-.09,0-.13,0,.08-.4.17-.86.25-1.42.06-.45.11-.91.17-1.37l.08-.78c.01-.19.02-.16.03-.18Z"/>
  <polygon class="cls-1" points="83.79 43.78 83.79 43.78 83.79 43.78 83.79 43.78"/>
  <path class="cls-1" d="M72.79,48.87c.13.01.26.02.38.04.11.01.49.02.48.03.18.02.72.04,1.06.06.35,0,.63.01.91.02-.21-.6-.44-1.2-.66-1.73-.13-.33-.12-.24-.26-.57-.09-.19-.19-.39-.3-.61-.31.04-.57.08-.8.12-.21.04-.29.09-.42.13-.23.09-.4.18-.51.27l-.02.02s0,0,0,.01c-.02.02-.04.03-.05.08-.03.19-.05.44-.04.72,0,.14.01.3.03.47.04.25.11.57.2.93ZM73.59,47.27s-.01.05-.02.07c0,.01-.02,0,.02.16.03.14-.02.05-.02.08h0s-.03.01.09.03c0,0,.07,0,.03.01-.03,0-.18,0-.07.02.08,0,.07.01.05.02l-.03.02c-.02.12-.24-.29-.43-.57.06.02.11.04.19.06.2.04.14.08.18.11Z"/>
  <path class="cls-1" d="M68.95,56.82s0,0,0,0c0,0,0,0,0,0Z"/>
  <polygon class="cls-1" points="68.95 56.82 68.95 56.82 68.95 56.82 68.95 56.82 68.95 56.82"/>
  <path class="cls-1" d="M75.07,55.33c-.48-.16-1.25-.28-2.07-.32-1.18-.05-2.22.08-2.89.28l-.41.13c-.18,0-.35-.02-.52-.03-.56-.02-1.12-.04-1.67-.06,0,.77.01,1.52.02,2.27.02.48.03.95.05,1.42.05,1,.1,1.99.16,2.97l1.27-.07.68-.08c.09-.01.17-.03.26-.04.11.21.21.29.27.04l.02-.1s.08-.02.12-.03c.13.03.26.06.41.09-.22.06-.41.12-.53.17l-.04.02c-.37.37,2.06.67,4.84.72h.17s.72,0,.72,0v-.73s0-.06,0-.09c.31.04.76.08,1.55.12.04-.81.09-1.64.13-2.47.03-.72.06-1.49.07-2.28,0-.56,0-1.11,0-1.65-.72,0-1.42.02-2.12.03l.04-.12-.52-.17ZM73.15,59.19c0-.1,0-.2,0-.3.17-.04.33-.09.48-.16.02.2.04.4.07.58-.16-.05-.34-.09-.54-.12ZM72.12,56.88s.04,0,.06.01c-.09.19-.17.42-.24.68-.23.03-.45.08-.64.14,0-.13.01-.26.02-.39l.02-.65c.23.07.49.14.78.2ZM73.56,57.19s-.02.02-.02.02c0,0,0,0,0,0v.21c0,.09,0,.18,0,.27-.17-.05-.36-.09-.56-.12-.04-.21-.09-.39-.15-.56.09.01.15.03.24.04l.27.04c.08.01.22.03.2.03.02.02.02.04.01.05h0ZM71.24,58.64c.14.07.3.14.48.19,0,.14,0,.28,0,.41-.2.04-.38.1-.54.17.02-.24.04-.5.06-.77ZM71.09,60.21c.22.12.5.23.85.31.05.14.09.27.14.38-.41.04-.79.08-1.13.13.05-.21.1-.47.14-.82ZM73.01,60.53c.33-.07.62-.19.84-.33.05.22.1.41.15.58-.37.01-.72.03-1.07.05.03-.09.05-.19.08-.3ZM69.5,61.23l-.58-.09c-.11-.03-.21-.06-.29-.08l.05-.21c.02-.07.03-.08.04-.28.03-.33.05-.67.08-1.01.05-.71.09-1.49.13-2.36,0-.29.01-.37.01-.4-.11,0-.09,0,0,0,0,0,0,0,0,0,.24,0,.91.02,1.07,0,0,0,0,0,0,0v.03s.03.22.03.22c.02.28.04.57.07.86.05.55.1,1.05.16,1.5.09.71.19,1.27.29,1.65-.08.01-.18.03-.26.04-.07.02-.14.03-.22.05l-.37.09c-.08-.01-.15-.03-.23-.04ZM75.58,57s.02-.02.03-.03c.02,0,.04.02.05.03.02,0-.02,0,.05.01h.26s.24.02.24.02h0s0,.01,0,.01c0,.01,0-.02,0,.02l.02.72c.02.45.04.9.07,1.37.03.4.07.82.1,1.24.04.5.08.44.13.68-.07.03-.16.06-.27.1-.12.02-.23.04-.35.07v-.48s-.72,0-.72,0c-.05,0-.09,0-.13,0,.08-.4.17-.86.25-1.42.06-.45.11-.91.17-1.37l.08-.78c.01-.19.02-.16.03-.18Z"/>
  <polygon class="cls-1" points="80.77 56.99 80.77 56.99 80.77 56.99 80.77 56.99 80.77 56.99"/>
  <path class="cls-1" d="M80.77,56.99s0,0,0,0c0,0,0,0,0,0Z"/>
  <path class="cls-1" d="M61.94,61.46c.23.05.65.1,1.19.14l.23-2.44c.06-.79.11-1.67.14-2.59,0-.53.02-1.06.03-1.57-.91.06-1.8.12-2.69.18v.76c-.06-.01-.16-.03-.26-.04,0-.2,0-.42.01-.68l-.88.06c-.63.05-1.25.09-1.86.14,0,.02,0,.04,0,.06-.9.06-1.78.12-2.65.17v.76c-.06-.01-.16-.03-.26-.04,0-.2,0-.42.01-.68l-.88.06c-.63.05-1.25.09-1.86.14,0,.48,0,.96,0,1.44l.02.74c.02.46.04.92.07,1.39.07.88.14,1.78.22,2.7l.34-.03v.69s.72-.03.72-.03c1.24-.05,2.25-.42,2.58-.7l.02-.02s0,0,0,0h.02s0-.02,0-.02c.02-.01.05-.02.07-.05,0-.02.02-.04.03-.06.23.05.65.1,1.19.14l.23-2.44c.06-.79.11-1.67.14-2.59,0-.05,0-.1,0-.15l.02.71c.02.46.04.92.07,1.39.07.88.14,1.78.22,2.7l.34-.03v.69s.72-.03.72-.03c1.24-.05,2.25-.42,2.58-.7l.02-.02s0,0,0,0h.02s0-.02,0-.02c.02-.01.05-.02.07-.05,0-.02.02-.04.03-.06ZM56.6,56.96h.02s-.02.02-.05.02h0s.02-.02.02-.02ZM56.56,56.99h.05s-.01,0-.05,0h0ZM56.42,57h0s0,0,0,0ZM55.19,60.96h0c.04.09.08.18.12.27-.03-.01-.06-.02-.07-.03-.06-.04-.1-.08-.12-.11.02-.05.04-.09.06-.12ZM55.23,57.08v.23s-.03.09-.05.14c0-.02,0-.05,0-.07-.03-.04-.06-.1-.09-.18.05-.04.06-.08.14-.12ZM53.66,57.23h0s-.01,0-.01,0h0s0,0,0,0h0ZM53.56,57.24h-.03s.03,0,.03,0c0,0,0,0,0,0ZM53.56,57.23s0,0,0,0c0,0,0,0,0,0ZM53.53,57.22s.01,0,.02,0c0,0,0,0,0,0-.03,0-.05,0-.04,0h.01ZM53.47,59.89c.06-.56.1-1.21.14-1.9,0,.08.01.15.02.23.05.55.1,1.06.16,1.51.04.26.07.49.11.71.02.19.04.37.07.59-.15,0-.27,0-.39-.01h-.25s.01-.08.02-.12l.11-1ZM56.26,61.54l-.05-.02c-.06-.03-.15-.05-.22-.08.03-.11.06-.23.08-.36.11-.35.19-.83.23-1.35.01-.09.03-.17.04-.27.04-.35.09-.75.12-1.17.01.34.03.69.05,1.01.03.46.08.89.12,1.28l.04.29c.01.1.03.1.04.16l.08.33c-.12.06-.33.13-.53.19ZM60.82,60.48h0c.04.09.08.18.12.27-.03-.01-.06-.02-.07-.03-.06-.04-.1-.08-.12-.11.02-.05.04-.09.06-.12ZM62.24,56.49h.02s-.02.02-.05.02h0s.02-.02.02-.02ZM62.2,56.51h.05s-.01,0-.05,0h0ZM62.06,56.53h0s0,0,0,0ZM62.1,57.82c.01.34.03.69.05,1.01.03.46.08.89.12,1.28l.04.29c.01.1.03.1.04.16l.08.33c-.12.06-.33.13-.53.19l-.05-.02c-.06-.03-.15-.05-.22-.08.03-.11.06-.23.08-.36.11-.35.19-.83.23-1.35.01-.09.03-.18.04-.27.04-.35.09-.75.12-1.17ZM60.87,56.61v.23s-.03.09-.05.14c0-.02,0-.05,0-.07-.03-.04-.06-.1-.09-.18.05-.04.06-.08.14-.12ZM59.3,56.75h0s-.01,0-.01,0h0s0,0,0,0h0ZM59.2,56.76h-.03s.03,0,.03,0c0,0,0,0,0,0ZM59.2,56.76s0,0,0,0c0,0,0,0,0,0ZM59.17,56.75s.01,0,.02,0c0,0,0,0,0,0-.03,0-.05,0-.04,0h.01ZM59.11,59.42c.06-.56.1-1.21.14-1.9,0,.08.01.15.02.23.05.55.1,1.06.16,1.51.04.26.07.49.11.71.02.19.04.37.07.59-.15,0-.27,0-.39-.01h-.25s.01-.08.02-.12l.11-1Z"/>
  <path class="cls-1" d="M51.18,60.18c.04-.62.06-1.28.08-1.98,0-.51,0-1,0-1.49-1.06.06-2.04.05-2.89.19,0,.43.02.87.03,1.31.02.21.03.42.05.63.07.82.17,1.55.27,2.14.01.05.02.11.03.16-.08,0-.15,0-.22,0h-.71s0,.72,0,.72c0,.11,0,.22,0,.33l.05.76.67-.04c.85-.06,1.54-.36,1.86-.61.2.02.41.03.64.05.05-.73.1-1.44.15-2.14ZM49.68,61.2s.07.03.1.04c.01.03.02.06.04.08-.05-.02-.12-.03-.18-.04.01-.03.02-.05.04-.08ZM49.76,58.19s-.02.04-.02.06c0,0,0,0,0,0-.01-.03-.03-.06-.04-.09,0,0,0,0,0,0,.02-.01.06.02.07.03Z"/>
  <path class="cls-1" d="M44.18,61.3v.72c-.01.11,0,.22,0,.33l.05.76.67-.04c.85-.06,1.54-.36,1.86-.61.2.02.41.03.64.05.05-.73.1-1.44.15-2.14.04-.62.06-1.28.08-1.98,0-.51,0-1,0-1.49-1.06.06-2.04.05-2.89.19,0,.43.02.87.03,1.31.02.21.03.42.05.63.07.82.17,1.55.27,2.14.01.05.02.11.03.16-.08,0-.15,0-.22,0h-.71ZM46.04,61.37s.07.03.1.04c.01.03.02.06.04.08-.05-.02-.12-.03-.18-.04.01-.03.02-.05.04-.08ZM46.13,58.37s-.01.04-.02.06c0,0,0,0,0,0-.01-.03-.03-.06-.04-.09,0,0,0,0,0,0,.02-.01.06.02.07.03Z"/>
  <path class="cls-1" d="M40.66,63.2l.66-.04c.83-.05,1.5-.35,1.81-.61.2.02.41.03.65.05.05-.72.1-1.42.15-2.11.04-.61.06-1.24.08-1.95,0-.5,0-.98,0-1.46-1.03.06-2.04.05-2.86.19,0,.43.02.86.03,1.29.02.2.03.41.05.62.05.61.12,1.14.2,1.62,0,.06.02.12.03.17.02.1.03.21.05.3.01.05.02.09.03.14-.07,0-.14,0-.21,0h-.71s0,.72,0,.72c0,.11,0,.22,0,.32l.05.76ZM42.45,61.5s.06.03.1.04c0,.02.02.04.02.05-.04-.01-.11-.02-.15-.03,0-.02.02-.04.03-.06ZM42.5,58.58s-.02-.04-.03-.06c.01,0,.03,0,.05.02,0,.02-.01.03-.02.04Z"/>
  <path class="cls-1" d="M40.55,60.51c.04-.6.06-1.16.08-1.91,0-.48,0-.94,0-1.4-.96.06-2.05.05-2.8.18,0,.41.02.83.03,1.26.02.2.03.4.05.61.04.41.08.79.13,1.14.02.25.06.48.11.69,0,.06.02.12.03.18,0,.04.02.07.03.11-.06,0-.12,0-.19,0h-.71s0,.72,0,.72c0,.1,0,.21,0,.31l.05.76.66-.05c.79-.05,1.42-.34,1.73-.6.2.02.41.04.65.05.05-.7.1-1.38.15-2.05ZM39.1,61.5s.06.03.09.03c-.03,0-.07-.01-.1-.02,0,0,0-.01,0-.02Z"/>
  <path class="cls-1" d="M34.07,61.42v.73c-.01.1,0,.2,0,.29l.06.76.66-.05c.74-.05,1.34-.34,1.64-.59.2.02.41.04.66.06.05-.69.1-1.34.15-1.98.02-.29.03-.58.05-.86,0-.34.02-.67.03-.99,0-.46,0-.9,0-1.34-.88.05-2.06.05-2.74.18,0,.4.02.8.03,1.2.02.2.03.4.05.6.03.36.08.69.12,1.01.02.31.07.6.14.85,0,.02,0,.04.01.06,0,.03.01.05.02.08-.05,0-.11,0-.16,0h-.71Z"/>
  <path class="cls-1" d="M33.07,57.8c-.72.05-2.07.06-2.61.17,0,.36.02.72.03,1.09,0,.2.01.26.02.35l.03.25c.03.24.06.46.09.68,0,.4.07.76.17,1.06-.03,0-.05,0-.08,0h-.7s-.01.72-.01.72c0,.09,0,.18,0,.27l.06.77.65-.05c.64-.05,1.16-.31,1.45-.55,0,0,.02,0,.03-.01.19.02.41.04.66.06.12-1.65.2-2.06.22-3.59,0-.41,0-.82,0-1.21Z"/>
  <path class="cls-1" d="M45.57,71.06l-.04.02c-.1.1,0,.19.27.29.14.05.3.09.53.13.33.04.74.09,1.24.13.05-.71.09-1.41.14-2.09.04-.58.06-1.21.07-1.87,0-.5,0-.99,0-1.47-1,.04-1.97.07-2.96.11.03,1.62.08,1.94.13,2.56.06.57.13,1.06.2,1.48.11.52.27.97.41.58.05-.17.1-.38.15-.61.05.06.11.11.17.16.08.17.17.31.25.42-.22.06-.45.12-.56.17Z"/>
  <path class="cls-1" d="M48.83,71.06l-.04.02c-.1.1,0,.19.27.29.14.05.3.09.53.13.33.04.74.09,1.24.13.05-.71.09-1.41.14-2.09.04-.58.06-1.21.07-1.87,0-.5,0-.99,0-1.47-1,.04-1.97.07-2.96.11.03,1.62.08,1.94.13,2.56.06.57.13,1.06.2,1.48.11.52.27.97.41.58.05-.17.1-.38.15-.61.05.06.11.11.17.16.08.17.17.31.25.42-.22.06-.45.12-.56.17Z"/>
  <path class="cls-1" d="M38.33,70.88l-.04.02c-.09.1,0,.19.25.29.14.05.24.09.51.13.3.04.68.09,1.14.13.05-.68.09-1.32.14-1.95.04-.56.06-1.03.07-1.76,0-.45,0-.9,0-1.34-.95.04-1.87.07-2.82.11,0,.3.02.6.03.9v.43s.03.24.03.24c.03.27.05.54.08.82.06.51.13.97.2,1.34.11.47.27.89.41.53.05-.15.09-.33.14-.51.04.05.08.09.13.13.08.14.15.25.23.34-.2.06-.37.11-.49.16Z"/>
  <path class="cls-1" d="M30.93,70.43c-.08.1,0,.19.22.28.14.09.7.18,1.53.26.05-.63.09-1.23.14-1.8.02-.25.03-.5.04-.73,0-.31.02-.62.03-.92,0-.41,0-.8,0-1.19-.89.03-1.76.07-2.67.1,0,.26.02.53.03.81v.38s.03.28.03.28c.02.23.05.48.08.73.06.46.13.86.2,1.2.11.42.27.79.41.47.04-.12.08-.26.13-.41.03.04.06.07.09.1.06.1.13.18.19.25-.17.05-.31.11-.41.16l-.03.02Z"/>
  <path class="cls-1" d="M26.83,70.32c-.08.1,0,.19.21.28.13.09.71.18,1.47.26.05-.61.09-1.18.14-1.72.02-.24.03-.47.04-.69l.02-.36c0-.18,0-.37.01-.55,0-.38,0-.75,0-1.12-.85.03-1.7.07-2.59.1.02.46.04.92.06,1.42.02.22.05.45.08.68.06.43.13.81.2,1.12.11.4.27.74.41.44.04-.1.08-.23.12-.35.02.03.05.06.07.09.06.08.11.15.17.21-.14.05-.28.1-.36.15l-.03.02Z"/>
</svg>