<?xml version="1.0" encoding="UTF-8"?>
<svg id="Ebene_1_Kopie" data-name="Ebene 1 Kopie" xmlns="http://www.w3.org/2000/svg" viewBox="0 0 114.73 114.73">
  <defs>
    <style>
      .cls-1 {
        fill: #3b0101;
      }
    </style>
  </defs>
  <path class="cls-1" d="M71.41,43.34c-.06-3.33-.11-6.41-.16-9.2-.08-2.8-.14-5.28-.2-7.38-.86-.13-1.63-.26-2.36-.37.23-1.12.39-4.03.43-7.25,0-.25,0-.51,0-.75v-.71s-.71,0-.71,0c-.2,0-.4,0-.59,0h-.71s0,.7,0,.7c0,.85.02,1.66.04,2.43-.03-.09-.05-.18-.08-.27-.31.78-.6,1.59-.84,2.3-.01.05-.03.1-.05.15-.02-.28-.07-.6-.19-.99-.12-.33-.31-.69-.64-1.02-.32-.33-.88-.62-1.51-.56-.57.05-1.05.38-1.39.76.06-1.5.11-3.26.13-5.1,0-.55,0-1.1,0-1.64-.72,0-1.43,0-2.14,0,0,.72,0,1.42.01,2.11,0,.46.02.91.02,1.35,0,.07,0,.14,0,.21-.18.39-.36.85-.53,1.43-.23.82-.28,1.62-.26,2.27-.06-.07-.12-.15-.19-.22-.44-.45-1.14-.84-1.98-.8h0c-.61-.03-1.28.16-1.78.55-.09.07-.16.15-.24.22-.16-.88-.49-2.11-1.06-3.7-.74-2-1.7-3.69-2.39-4.66.02-.34.03-.69.04-1.06,0-.32.01-.62.02-.92v-.7s-.7,0-.7,0c-.16,0-.31,0-.47,0h-.71s0,.21,0,.21c-.4-.51-1.01-.99-1.99-1.02-.23.04-.46.09-.67.25-.2.15-.31.28-.41.43-.2.29-.34.57-.44.86-.11.31-.2.62-.27.94-.01.05-.01.1-.02.14-.04.23-.09.45-.12.68,0,.02,0,.03,0,.05,0,.02,0,.03,0,.05-.03.27-.02.52-.02.78,0,.26-.03.52-.02.77,0,.25.05.48.08.72.03.26.04.53.09.78,0,.02,0,.04.01.06,0,0,0,0,0,0,0,.02,0,.03.01.05.1.46.22.92.44,1.36.11.24.25.48.47.71.09.1.27.26.45.33.18.09.37.12.56.12,1.13-.09,1.77-.83,2.13-1.44.04-.07.07-.13.1-.2.06.47.13.88.2,1.2-.03,0-.05,0-.08,0-1.18.04-2.22,1.02-2.56,2.15-.3.95-.21,1.95.2,2.77.39.79,1.11,1.42,1.95,1.6-.04.1-.06.21-.07.32-.02.39.14.74.36.95-1.21.17-2.51.36-3.94.56-.04,1.98-.09,4.21-.14,6.64-.31-.4-.77-.78-1.63-.83-.37,0-.72.26-.93.56-.18.24-.29.48-.38.71,0,.02-.01.04-.02.07,0,0,0,0,0,0,0,0,0,.02,0,.03-.08.22-.15.45-.19.67,0,.04-.01.07-.02.11-.04.18-.07.36-.09.55,0,.01,0,.03,0,.04,0,.01,0,.03,0,.04-.02.22-.01.43-.02.65,0,.2-.03.4-.02.6,0,.19.04.36.06.54.02.22.03.45.08.66.08.4.2.8.39,1.19.13.32.65,1.02,1.28.95.7-.08,1.12-.39,1.41-.74-.04,3.85-.09,8.12-.15,12.87-.12,20.42.35,38.36.67,43.57l.02.26c.36,2.55.65-14.34.7-33.61,0-7.09-.02-13.76-.07-19.74-.03-2.98-.07-5.79-.1-8.4-.05-2.46-.09-4.73-.13-6.79.99-.2,1.9-.38,2.76-.55,1.72-.35,3.32-.69,4.18-.9.06.28.14.55.25.81.41.96,1.19,1.81,2.23,2.04.25.06.5.07.74.06h0c.79.04,1.43-.31,1.88-.74-.26,3.73-.45,17.69-.49,33.2-.02,16.17.14,30.2.37,38.8.11,3.58.27,6.68.4,3.98.25-5.97.51-16.63.62-32.47.12-20.37-.33-38.28-.66-43.77.01-.02.03-.03.04-.05.19-.24.33-.49.44-.73.12-.22.23-.45.31-.69.08-.24.14-.49.18-.73.14.09.31.18.49.23.31.07.6.06.85,0l.11.24h.04c.23.39.55.74.97.98.57.35,1.35.31,1.84,0,.24-.14.42-.31.57-.49.04.02.08.03.13.05.28.09.49.16.62.2.53.12,1.02.05,1.35-.11.01,0,.02-.02.04-.03.08.33.17.46.25.08,0-.01,0-.03,0-.04.17.04.34.08.52.12h0c.04.08.09.08.13.03.57.13,1.19.28,1.87.43l-.02.27c0,.2-.01.41-.02.62,0,.42-.02.86-.03,1.31-.02.91-.04,1.89-.05,2.91-.03,2.07-.06,4.36-.09,6.81-.03,4.94-.07,10.54-.1,16.34-.02,16.15.14,30.17.37,38.75.11,3.57.27,6.67.4,3.98.25-5.96.51-16.61.62-32.42.05-8.1,0-15.82-.09-22.52ZM46.31,37.81c.02-.25.03-.48.02-.7-.05-.67-.22-1.21-.36-.74-.09.34-.2.77-.37,1.26-.09.24-.19.5-.33.74-.13.21-.18.21-.29.21-.01,0-.01-.02-.02-.03-.09-.19-.19-.54-.26-.93-.02-.14-.04-.29-.05-.43,0-.01,0-.02,0-.03-.03-.29-.03-.57-.03-.85,0-.09,0-.18,0-.27,0-.36.03-.71.08-1.03,0-.03,0-.06.01-.09.02-.11.03-.22.05-.32.07-.3.16-.57.23-.73.04-.02.08-.02.11,0,.05.04.07.03.17.2.15.27.27.56.36.82.14.43.28.86.4,1.22l.02.05c.13.17.27-.13.32-.79.01-.19,0-.4,0-.64.01.02.03.04.04.06.04.07.07.13.1.2-.02.83-.03,1.69-.05,2.57-.04.07-.06.14-.1.21-.01.02-.03.04-.04.06ZM66.71,24.93c.11-.22.13-.2.15-.2.05,0,.06.03.06.06h0s.01-.1.1-.05c0-.04.09.18.14.27.05.11.11.22.17.34.04.08.09.15.13.22,0,.08.02.17.03.24,0,.03,0,.06.01.09-.16-.16-.37-.31-.65-.43-.15-.06-.3-.07-.44-.08.01-.02.03-.03.04-.05.09-.15.18-.29.26-.43ZM60.67,22.28c.05.78.1,1.5.16,2.1,0,.04,0,.08.01.13-.06.02-.1.05-.15.08-.01-.33-.05-.66-.13-.98v-.04l-.02-.08c-.03-.12-.1-.23-.14-.34,0,0,0,0,0-.01v-.03s-.04-.12-.04-.12c0-.02-.01-.03-.02-.05.11-.15.22-.38.33-.65ZM50.18,16.31c-.09.16-.19.32-.32.48.1-.5.13-.96.13-1.36-.03-.85-.21-1.54-.34-.93-.09.44-.21.99-.41,1.63-.1.32-.23.65-.4.98-.09.15-.18.32-.29.43-.09.09-.12.08-.19.09-.02,0-.02-.03-.04-.04-.01-.02-.02-.03-.06-.08-.08-.13-.17-.32-.24-.52-.14-.42-.23-.92-.28-1.45-.03-.34-.04-.69-.04-1.03,0-.15-.02-.29-.01-.44,0-.46.04-.91.1-1.34.06-.44.15-.86.28-1.22.07-.18.14-.33.21-.45.05-.06.06-.08.07-.1.05-.01.1-.01.16.06.12.12.23.3.32.48.19.36.32.74.43,1.08.21.69.33,1.24.43,1.57l.02.06c.13.21.28-.17.31-1,.01-.36-.02-.81-.1-1.32.12.17.23.35.33.52,0,.02.02.03.02.05.03,1.2.1,2.29.19,3.25-.08.2-.17.4-.29.6ZM53.98,25.69c-.71.09-1.5.2-2.33.31.19-.15.38-.35.47-.65.06-.26-.04-.5-.19-.68.25-.12.47-.26.64-.44.48-.47.71-1.03.8-1.49.14-.81-.11-1.42-.23-.89-.15.55-.51,1.36-1.31,1.79-.39.2-.86.24-1.29.06-.43-.18-.81-.63-.99-1.21-.24-.76-.12-1.62.26-2.2.38-.6.98-.86,1.55-.76.57.09,1.05.52,1.32.93.29.42.42.82.51,1.08l.02.05c.09.13.18.02.23-.32.04-.33.02-.92-.34-1.58-.25-.48-.79-1.04-1.54-1.26.14-.77.27-1.82.38-3.19.2.57.42,1.19.68,1.83.85,2.09,1.75,3.83,2.43,4.85.02.03.04.06.06.09-.33.43-.58.93-.73,1.45-.14.55-.21,1.1-.15,1.64.01.19.04.37.07.55-.1.01-.2.02-.33.04ZM56.95,27.49c-.52-.24-.98-.85-1.18-1.61-.49-1.61.25-3.53,1.4-3.85.13-.04.26-.06.39-.06v.06c.71.07,1.39.83,1.62,1.8h0s0,.02,0,.02c.47,1.69-.45,3.61-1.63,3.72v.06c-.2,0-.41-.04-.61-.13ZM61.36,24.43c.05-.47.11-1.01.16-1.61.02.24.04.44.07.66-.03.26-.05.52-.02.77,0,.08.03.15.04.22-.08-.02-.16-.04-.24-.04ZM64.91,25.83c-.61.58-1.36.37-1.75-.73h0c-.04-.12-.07-.25-.1-.38-.08-.39-.12-.81-.05-1.19.02-.39.09-.77.24-1.08.3-.66.72-.95,1.15-.83.47.13.87.65,1.09,1.07.23.43.35.82.43,1.07l.02.05s0,0,0,0c0,.01,0,.02-.01.04,0,.02-.01.05-.02.07-.02.03-.03.07-.05.13-.14.5-.38,1.24-.97,1.79ZM67.97,26.27s0-.01,0-.02c.09.06.16.04.18-.09.02-.15.03-.32.03-.52.04.26.08.49.12.69-.11-.02-.23-.04-.33-.05,0,0,0,0,0,0Z"/>
</svg>