<?xml version="1.0" encoding="UTF-8"?>
<svg id="Ebene_2" data-name="Ebene 2" xmlns="http://www.w3.org/2000/svg" viewBox="0 0 613.33 2065.47">
  <defs>
    <style>
      .cls-1 {
        fill: #3b0101;
      }
    </style>
  </defs>
  <g id="Ebene_1_Kopie" data-name="Ebene 1 Kopie">
    <path class="cls-1" d="M611.03,728.66c-1.28-72.06-2.47-138.99-3.54-199.3-1.64-60.63-3.09-114.46-4.32-160-18.66-2.92-35.36-5.53-51.05-7.99,4.89-24.26,8.48-87.42,9.25-157.06.01-5.51.03-10.96.04-16.34l.03-15.34-15.31.06c-4.31.02-8.57.03-12.79.05l-15.33.06.1,15.17c.12,18.4.47,35.98.97,52.7-.57-1.94-1.16-3.95-1.72-5.86-6.63,16.81-12.97,34.37-18.12,49.9-.31.98-.7,2.21-1.01,3.22-.33-5.97-1.46-13.11-4.15-21.53-2.62-7.07-6.69-14.9-13.93-22.1-6.99-7.09-19.06-13.41-32.62-12.11-12.32,1.14-22.74,8.2-30.15,16.53,1.4-32.54,2.37-70.58,2.72-110.43.01-11.99.03-23.84.04-35.55-15.62.02-31.06.03-46.39.05.1,15.5.19,30.75.29,45.78.18,9.91.36,19.67.53,29.28.05,1.58.1,3.01.14,4.58-3.91,8.38-7.85,18.51-11.51,30.89-4.88,17.86-6.15,35.15-5.56,49.15-1.34-1.62-2.61-3.26-4.18-4.84-9.48-9.66-24.76-18.18-42.86-17.36v.13c-13.29-.77-27.7,3.29-38.64,11.88-1.91,1.43-3.49,3.17-5.24,4.77-3.55-19.06-10.65-45.68-23.03-80.22-16.08-43.28-36.88-79.99-51.71-101,.36-7.38.69-14.95.97-22.91.12-6.89.24-13.53.36-20.03l.27-15.18-15.52-.06c-3.42-.01-6.81-.03-10.14-.04l-15.3-.06v4.56C143.88,11.1,130.8.61,109.47,0c-5.05.77-10.04,1.97-14.43,5.52-4.37,3.15-6.62,6.13-8.94,9.25-4.38,6.2-7.29,12.41-9.61,18.64-2.47,6.69-4.28,13.47-5.74,20.3-.23,1.03-.32,2.08-.53,3.11-.96,4.89-1.88,9.78-2.5,14.74-.04.36,0,.7-.04,1.06-.04.36-.13.71-.17,1.06-.58,5.77-.33,11.29-.51,16.94-.17,5.58-.72,11.27-.5,16.73.21,5.34,1.16,10.42,1.75,15.63.63,5.65.85,11.43,1.89,16.94.08.41.21.8.3,1.2,0,.03,0,.07.01.11.07.34.19.66.26,1,2.1,10.05,4.84,19.87,9.44,29.48,2.44,5.15,5.45,10.34,10.17,15.41,1.91,2.13,5.8,5.62,9.71,7.25,3.79,1.95,8.1,2.66,12.21,2.51,24.43-1.97,38.37-17.99,46.26-31.26.85-1.47,1.43-2.91,2.18-4.37,1.39,10.22,2.84,19.06,4.25,25.91-.57.01-1.09-.09-1.67-.06-25.58.91-48.08,22.1-55.42,46.62-6.41,20.54-4.59,42.18,4.29,60.1,8.38,17.16,24.08,30.82,42.18,34.65-.78,2.18-1.37,4.52-1.61,6.95-.44,8.55,2.98,15.97,7.8,20.59-26.15,3.71-54.45,7.73-85.47,12.13-.88,43.01-1.87,91.31-2.94,143.88-6.8-8.69-16.79-16.97-35.32-17.94-8.03.21-15.5,5.7-20.26,12.18-3.85,5.24-6.31,10.37-8.22,15.44-.18.47-.25.95-.43,1.42,0,.02-.02.04-.02.05-.07.2-.1.4-.17.6-1.73,4.85-3.14,9.72-4.2,14.61-.17.76-.24,1.53-.4,2.3-.78,3.93-1.54,7.86-2.05,11.83-.03.29,0,.56-.03.85-.03.28-.11.55-.14.83-.49,4.77-.28,9.34-.41,14-.12,4.3-.56,8.7-.38,12.92.17,4.03.93,7.86,1.38,11.8.53,4.79.76,9.67,1.68,14.35,1.78,8.73,4.25,17.24,8.44,25.73,2.71,7.02,14.16,22.21,27.7,20.5,15.22-1.66,24.17-8.48,30.55-16-.95,83.43-2,175.94-3.16,278.99-2.53,442.57,7.48,831.36,14.49,944.18l.49,5.73c7.75,55.32,14.09-310.65,15.15-728.34.2-153.59-.38-298.23-1.5-427.71-.74-64.56-1.43-125.47-2.08-182.07-1-53.36-1.91-102.61-2.74-147.16,21.36-4.23,41.24-8.17,59.9-11.87,37.25-7.54,71.96-14.91,90.61-19.6,1.24,6.05,2.94,11.96,5.42,17.59,8.78,20.71,25.85,39.23,48.35,44.21,5.46,1.31,10.81,1.62,15.95,1.21v.12c17.1.66,31.01-6.91,40.66-16.06-5.6,80.86-9.79,383.45-10.63,719.46-.45,350.34,3.04,654.51,7.96,840.84,2.37,77.48,5.78,144.75,8.64,86.34,5.44-129.32,11.02-360.32,13.52-703.53,2.5-441.32-7.23-829.46-14.23-948.59.28-.34.69-.66.96-1,4.12-5.21,7.12-10.54,9.53-15.81,2.66-4.77,5.02-9.73,6.71-14.96,1.75-5.26,3.01-10.58,3.9-15.93,3.1,2.05,6.63,3.89,10.71,5.04,6.68,1.59,13,1.25,18.41-.18l2.29,5.3h.79c5.06,8.46,11.84,16.07,21.04,21.32,12.33,7.5,29.27,6.76,39.77.07,5.09-3.06,9.07-6.71,12.28-10.55.94.37,1.68.74,2.71,1.11,6.16,1.99,10.57,3.41,13.53,4.37,11.45,2.66,22.13,1.17,29.19-2.47.28-.17.53-.39.8-.58,1.8,7.24,3.76,9.87,5.51,1.77.05-.25.09-.58.14-.84,3.62.84,7.4,1.72,11.31,2.63l.09.23c.95,1.55,1.87,1.61,2.77.43,12.25,2.84,25.68,5.96,40.57,9.42l-.33,5.84c-.11,4.39-.22,8.86-.33,13.42-.2,9.16-.42,18.65-.63,28.48-.37,19.78-.77,40.87-1.19,63.13-.61,44.89-1.28,94.47-2,147.62-.68,107.02-1.46,228.31-2.26,354.16-.45,349.9,3.04,653.68,7.96,839.78,2.37,77.38,5.78,144.57,8.64,86.23,5.44-129.15,11.02-359.87,13.52-702.64,1-175.63.05-342.86-1.89-487.94ZM67.12,609c.47-5.39.66-10.51.52-15.07-1-14.51-4.82-26.22-7.69-15.97-1.98,7.43-4.33,16.71-8.09,27.2-1.85,5.23-4.18,10.77-7.1,15.98-2.86,4.57-3.93,4.59-6.28,4.6-.25-.09-.27-.41-.48-.56-1.86-4.19-4.21-11.73-5.61-20.11-.45-3.03-.79-6.19-1.06-9.42-.01-.23-.05-.46-.06-.68-.56-6.18-.63-12.36-.66-18.51,0-1.95-.2-3.94-.16-5.88.16-7.72.71-15.28,1.66-22.42.05-.64.17-1.29.25-1.93.34-2.36.73-4.66,1.16-6.9,1.41-6.45,3.44-12.28,4.92-15.74.79-.35,1.65-.38,2.46.07,1.08.77,1.56.59,3.61,4.24,3.29,5.83,5.78,12.1,7.85,17.77,3.05,9.39,6.03,18.56,8.58,26.43l.5,1.01c2.78,3.64,5.88-2.89,6.97-17.19.25-4.02.2-8.77-.14-13.95.27.44.63.88.89,1.32.84,1.47,1.47,2.85,2.19,4.29-.37,18.04-.75,36.52-1.14,55.63-.82,1.55-1.28,3.02-2.23,4.58-.26.41-.61.81-.88,1.23ZM509.21,329.77c2.47-4.72,2.83-4.29,3.33-4.37,1.01-.22,1.28.73,1.3,1.41v.09c-.02-.27.26-2.28,2.12-1.06.12-.8,1.99,3.93,3.05,5.92,1.18,2.35,2.4,4.79,3.67,7.31.96,1.83,1.86,3.18,2.8,4.85.19,1.73.37,3.64.56,5.29.09.67.19,1.3.29,1.96-3.53-3.45-8.09-6.73-14.07-9.29-3.2-1.2-6.4-1.58-9.54-1.65.3-.44.55-.73.85-1.19,1.97-3.23,3.85-6.31,5.64-9.26ZM378.3,272.45c1.01,16.99,2.14,32.42,3.38,45.55.1.93.22,1.81.32,2.74-1.2.48-2.16,1.16-3.25,1.75-.27-7.22-1.17-14.35-2.88-21.28v-.77l-.51-1.82c-.72-2.59-2.12-4.9-3.05-7.42-.02-.09-.04-.17-.06-.27l.07-.76-.83-2.49c-.12-.35-.29-.72-.41-1.07,2.33-3.32,4.78-8.14,7.22-14.16ZM150.94,142.95c-1.84,3.4-4.18,6.96-6.88,10.36,2.08-10.84,2.74-20.76,2.74-29.38-.63-18.34-4.55-33.39-7.44-20.25-2.04,9.57-4.53,21.56-8.93,35.29-2.17,6.84-4.94,14.13-8.6,21.13-1.93,3.32-3.95,6.9-6.33,9.32-1.88,1.95-2.57,1.81-4.11,1.85-.44-.11-.5-.59-.82-.83-.28-.37-.48-.66-1.28-1.73-1.83-2.75-3.64-6.87-5.15-11.32-3.01-9.09-5.01-19.91-6.06-31.42-.73-7.46-.79-14.89-.89-22.31-.04-3.15-.36-6.36-.3-9.48.2-9.97.92-19.74,2.2-29.02,1.35-9.48,3.3-18.61,6.08-26.36,1.41-3.8,3.05-7.22,4.62-9.68,1.02-1.34,1.31-1.84,1.5-2.1,1.08-.28,2.06-.22,3.55,1.22,2.59,2.63,4.92,6.59,6.96,10.39,4.05,7.84,6.96,16.02,9.33,23.41,4.66,14.88,7.23,26.94,9.23,34.1l.51,1.3c2.75,4.66,5.96-3.7,6.74-21.74.22-7.78-.35-17.64-2.18-28.69,2.71,3.71,5.07,7.55,7.07,11.31.21.4.33.76.53,1.15.65,25.96,2.18,49.73,4.12,70.42-1.76,4.26-3.72,8.6-6.21,13.05ZM233.19,346.35c-15.4,2.03-32.46,4.29-50.4,6.66,4.22-3.26,8.21-7.61,10.18-14.08,1.32-5.57-.82-10.73-4.11-14.84,5.37-2.61,10.29-5.72,13.96-9.49,10.46-10.29,15.33-22.23,17.37-32.34,2.95-17.49-2.42-30.78-5.07-19.21-3.32,12-11.13,29.52-28.28,38.74-8.36,4.25-18.72,5.29-28,1.3-9.32-3.9-17.56-13.56-21.53-26.13-5.28-16.4-2.63-35.04,5.57-47.6,8.15-12.94,21.28-18.72,33.58-16.51,12.42,1.97,22.68,11.29,28.71,20.22,6.26,9.06,9.03,17.87,11,23.39l.53,1.14c1.96,2.77,3.99.38,5.06-6.96.88-7.21.43-19.87-7.43-34.2-5.48-10.33-17.03-22.48-33.38-27.3,2.98-16.62,5.91-39.46,8.27-69.07,4.23,12.39,9.21,25.85,14.69,39.62,18.44,45.22,38.02,82.98,52.58,105.04.46.66.92,1.27,1.38,1.9-7.25,9.37-12.65,20.12-15.85,31.43-3.09,11.87-4.63,23.91-3.2,35.57.24,4.04.95,7.96,1.59,11.9-2.21.23-4.44.47-7.2.8ZM297.6,385.36c-11.36-5.23-21.14-18.41-25.67-34.84-10.53-34.93,5.42-76.39,30.33-83.43,2.77-.9,5.61-1.24,8.44-1.3v1.34c15.32,1.51,30.12,18.07,35.17,38.92v.03s.11.35.11.35c10.24,36.52-9.68,78.13-35.24,80.56v1.25c-4.43-.09-8.88-.79-13.15-2.89ZM393.3,319.03c1.18-10.28,2.33-21.85,3.44-34.95.47,5.1.95,9.64,1.43,14.24-.64,5.66-1.02,11.26-.36,16.75.14,1.65.58,3.23.8,4.86-1.78-.53-3.54-.82-5.3-.9ZM470.04,349.38c-13.14,12.64-29.54,8.07-37.9-15.88l-.08-.24c-.8-2.44-1.6-5.15-2.18-8.01-1.74-8.45-2.66-17.46-1.06-25.78.41-8.49,2.01-16.72,5.21-23.51,6.46-14.2,15.61-20.63,25-17.91,10.19,2.79,18.81,14.02,23.54,23.13,5.02,9.42,7.6,17.87,9.41,23.18l.52,1.09c.04.08.11.06.16.14-.09.3-.17.53-.26.84-.14.48-.29,1.01-.43,1.5-.34.67-.68,1.5-.98,2.73-3.09,10.93-8.28,26.82-20.95,38.72ZM536.34,358.91c.02-.14.04-.25.07-.38,1.92,1.2,3.45.94,4-2.05.4-3.23.62-7.04.64-11.37.87,5.71,1.73,10.67,2.57,14.94-2.32-.36-4.95-.77-7.2-1.13-.03,0-.06,0-.09-.01Z"/>
  </g>
</svg>