<?xml version="1.0" encoding="UTF-8"?>
<svg id="Ebene_1_Kopie" data-name="Ebene 1 Kopie" xmlns="http://www.w3.org/2000/svg" viewBox="0 0 766.99 1297.66">
  <defs>
    <style>
      .cls-1 {
        fill: #3b0101;
      }
    </style>
  </defs>
  <path class="cls-1" d="M761.81,624.43c2.06-1.88,3.53-4.99,5.18-7.23-.02-6.66-.04-12.51-.06-18.35-23.23-17-44.12-32.29-64.55-47.24-2.79-4.72-5.2-8.82-7.61-12.9-18.04-18.98-33.99-35.78-49.57-52.17-.73-4.9-1.35-9.06-1.97-13.21-14.52-17.2-27.08-32.08-39.37-46.65-4.41-10.38-8.12-19.12-11.79-27.76-10.93-14.83-20.15-27.33-29.19-39.59-4.35-5.85-8.68-11.68-12.9-17.35-1.19-4.92-2.34-9.68-3.49-14.41-12.62-14.86-24.9-29.32-36.63-43.14-.06-3.92-.12-7.79-.18-11.62-9.48-11.42-18.52-22.32-27.07-32.61-.06-3.34-.12-6.53-.17-9.66-10.89-13.23-20.81-25.28-29.61-35.97-.18-3.26-.33-6.13-.48-8.92-45.11-58.77-57.44-72.53-8.62-3.02,1.03,1.46,2.07,2.93,3.4,4.81.04,2.79.08,5.59.14,9.15,8.51,11.11,17.28,22.57,27.91,36.46-.04,3.01-.08,6.03-.14,9.8,7.92,10.16,16.05,20.57,25.78,33.06-.05,3.65-.1,7.32-.16,11.81,11.11,13.83,22.57,28.1,35.92,44.71.95,4.42,1.91,8.88,3.06,14.21,12.85,18.23,26.16,37.13,41.22,58.5,3.58,8.94,7.21,18.01,11.41,28.49,11.67,14.41,23.66,29.2,37.1,45.79.57,4.36,1.14,8.74,1.79,13.79,15.98,17.47,32.44,35.45,50.5,55.18,2.59,4.58,5.2,9.18,8.15,14.38,16.25,12.33,33.1,25.11,50.81,38.54-.25-.03-.42-.06-.68-.09-6.05-.67-13.4-1.24-21.55-1.67-4.52-.19-8.74-.37-12.76-.54-6.38-.11-12.31-.22-18.12-.32l-6.18-.02c-.04,32.47.34,25.16,1.01,53.54,4.97-.19,10.17-.39,15.64-.6,2.64-.23,5.4-.46,8.27-.71,4.37-.52,9.07-1.09,14.02-1.68.33-.06.61-.13.93-.19l-.13,19.16c-.1,11.69-.2,23.51-.3,35.46-.19,23.91-.39,48.34-.6,73.29-.37,49.93-.75,101.95-1.14,156.06-.63,104.35-1.31,216.74-2.05,337.11-37.22-.19-75.28-.39-114.19-.6-10.82-.05-21.69-.09-32.62-.14-3.13-.06-2.59.62-2.42-2.86.46-22.09.92-44.42,1.38-66.97,1.8-90.24,3.67-184.13,5.62-281.56l.69-36.96.34-18.44.17-9.21.03-8.54-4.07-7.72c-13.28-23.08-29.81-43.13-49.38-60.5-38.51-35.29-91.89-54.81-143.7-52.41-52.05,1.15-102.05,24.14-139.03,58.06-9.3,8.5-18.02,17.55-25.91,27.25-8.32,10.21-14.55,18.46-22.47,32.08-1.56,2.51-2.96,5.08-2.57,8.12l-.13,6.42-.17,8.78-.33,17.54-.66,34.95c-1.67,92.96-3.31,184.12-4.92,273.09-.38,22.24-.75,44.34-1.13,66.3-.48,15.37.32,10.67-.59,11.8l-25.2.12c-38.63.17-76.73.35-114.27.52,2.85-233.72,5.47-447.81,7.75-634.38.39.07.67.14,1.08.21,3.96.65,8.89,1.24,14.54,1.78,3.12.26,6.11.51,8.97.74,5.92.25,11.54.49,16.93.71.22-10.29.42-19.56.61-28.32-.03-8.33-.05-16.18-.07-24.26-5.3.06-10.67.13-16.26.19-2.68.1-5.45.19-8.35.3-4.75.26-9.85.55-15.43.86-3.55.25-6.73.55-9.91.85,8.26-5.94,16.43-11.9,24.29-17.94l14.68-11.5c5.28-4.3,8.5-6.72,15.74-13.18,4.72-3.23,4.05-10.4,3.56-15.26,13.47-12.19,26.76-24.2,39.62-35.83.94-5.39,1.86-10.74,2.76-15.91,11.98-11.52,23.71-22.79,35.09-33.74,1.08-7.13,2.15-14.19,3.19-21.08,10.76-10.35,21.28-20.47,31.47-30.28,1.96-6.21,3.89-12.36,5.79-18.37,11.03-12.22,21.75-24.09,32.14-35.61-.04-3-.08-5.99-.12-8.89,32.5-47.9,61.08-90.02,85.41-125.88-.07-3.57-.13-7.1-.2-10.54,17.23-21.99,32.35-41.27,45.28-57.77l1.26-1.65,3.29-12.35c.78-3.42,1.44-6.28,1.98-8.67l.1-.45.57-.05c5.67-.5,6.65-1,3.48-1.48.23-.45.5-2.2.86-6.05.87-11.25,1.79-23.27,2.78-36.07-2.65-2.91-5.34-5.86-8.14-8.93-12.86-.16-26.24-.34-40.35-.52-.69.46-1.41.94-2.11,1.4-.07-1.4-.14-2.82-.22-4.23l2.72,2.07c13.38.21,27.19.42,41.55.64l7.45-7.89c2.54,3.09,5.08,6.19,7.57,9.22.05,0,.1,0,.16,0l-5.83,8.1c.46,15.7.9,30.7,1.3,44.48,1.93.29,3.83.58,5.67.86,2.33,6.79,4.46,13,6.37,18.57l.6,1.57c2.1,4.46.96-2.21-4.34-23.02l-3.86-.82c.23.01-.32-.12-.74-.23.29-12.08.61-25.24.96-39.43l3.33-4.22c11.92.22,24.37.46,37.31.7,4.87,1.62,9.86,3.28,14.89,4.95.04-8.47.08-17.09.12-25.79-5.01,1.99-10.14,4.02-15.3,6.07-11.88-.23-24.02-.47-36.33-.7l-4.21-5.23.1-7.46c.08-8.34.16-16.56.24-24.63,3.57-5.07,7.06-10.04,10.54-14.98-12.3.14-24.42.27-36.41.41,3.64,5.09,7.22,10.1,10.77,15.08.06,10.76.13,21.28.19,31.59l-4.13,4.55c-12.19.1-24.01.19-35.54.28-2.27-1.62-4.45-3.19-6.62-4.74l-6.63-4.75.67,8.02c.48,5.66.94,11.2,1.4,16.67l.52,6.22,4.98-3.58c1.68-1.21,3.27-2.35,4.85-3.48,12.68-.38,24.74-.73,36.39-1.08,2.08,2.05,4,3.95,5.91,5.83-.05,3.34-.09,6.42-.13,9.47-.16,15.89-.09,30.04.52,31.05-.87-.13-1.85-.26-3.31-.38l-1.75-.15-.72,1.99c-1.71,4.71-4.05,11.16-7.13,19.61-11.94,13.85-28.87,33.49-50.54,58.63-.06,3.39-.13,7.02-.2,10.73-24.17,33.42-54.43,75.26-89.99,124.43-.03,2.46-.06,5.14-.1,7.84-10.13,10.69-20.7,21.85-31.62,33.38-1.9,5.59-3.94,11.58-6.01,17.64-10.7,9.86-21.84,20.11-33.27,30.63-1.15,6.62-2.37,13.7-3.61,20.87-11.54,10.66-23.56,21.76-35.85,33.12-.95,4.9-1.97,10.17-3,15.48-12.46,10.86-25.43,22.15-38.67,33.69l-3.72,3.24.24,5.34c.07,1.52.14,3.09.22,4.7.1.82-.06,1.6-.86,2.02l-11.85,9.4-14.56,11.01c-9.84,7.31-19.98,14.64-30.24,21.59l-7.58,4.88c-.46.66-2.11.73-2.23,1.32l-.34.11-.76.26c-1.01.36-2.03.78-2.84,1.29-1.79.99-3.19,2.18-4.47,3.45-4.61,5.08-7.36,11.8-4.9,20.28,2.25,8.88,14.01,12.56,14.18,12.21,1.61.07,3.67.96,3.4,2.91.16.58-.5.55-.82.76-.16.21-.16.13-.3,1.12-.06,1.29-.25,4.11,1.06,7.47,1.2,3.32,3.92,5.99,6.29,7.42l1.69.89c-.21-.14-.37-.23-.21-.15l.3.09c.4.09.81.09,1.21.06.92-.38.2,1.13.38,1.62-4.41,192.42-9.52,415.22-15.01,654.83,47.84.11,96.34.22,145.4.33l44.02.08c2.33-.39,6.31.89,7.3-.88l.17-8.16.17-8.19c25.49,4.43,81.41,7.62,142.55,8.34,74.29.44,138.8-3.04,178.31-7.96,3.01-.44,5.87-.91,8.59-1.41-.17,6.25-.27,12.51.37,17.83l30.46-.04,32.36-.09c47.62-.14,94.53-.27,140.69-.41-.51-125.51-1-245.03-1.46-357.84-.3-54.22-.59-106.82-.87-157.73-.16-25.44-.31-50.46-.47-75.05-.08-12.29-.16-24.47-.24-36.54l-.12-11.95c-.85-2.7,1.76-1.94,3.54-2.05h0c-1.16.25,5.33-.38,8.73-3.95,3.91-3.61,4.9-8.51,4.87-11.42.04-2.62-.69-6.55-3.42-10.13.2-.03.3-.06.51-.08,3.16-2.59,5.33-4.16,7.24-5.41ZM450.81,61.9c-.41-.08-.57-.08-4.05-1.16,3.93-1.62,3.18-1.36,3.85-1.68l.19,2.84ZM396.09,9.32l-.64.91-.04-.06-.58-.9c-.36.03,1.96.03,1.26.05ZM16.18,588.58c.09.37.22.73.31,1.1.2.78.78,3-.31-1.1ZM22.62,600.93c-10.19,2.58-1.98,1.42,7.57-4.77,3.76.61,7.9,1.21,12.66,1.76,6.06.58,11.81,1.12,17.18,1.63,3.44.23,6.75.45,9.94.66l5.31.29c1.71.09.61.17.97.25v.08c-.29-3.87-.03,20.75.58,23.89-.18.13-.32.26-.67.41-2.19.2-4.48.41-6.87.63-3.88.47-8.04.97-12.32,1.49-4.33.63-7.79,1.29-10.75,1.95-1.05-1.53-2.11-2.81-3.28-2.85-.75-.31-1.78-.94-2.68-1.4.64-.48.97-1.06.43-1.81.29-1.03.62-.94.93-1.24.37-.3.33-1.88.23-3-.16-10.32-9.13-16.98-19.21-17.97ZM413.06,1028.31c15.06-.14,29.88-.27,44.5-.41,7.26-.11,14.46-.22,21.61-.33l5.33-.09c1.07-.03.49-.06.83-.1l.9-.21c.33-5.07.71,17.94,1.14,30.77.48,14.31.96,28.29,1.42,41.92,1.22,26.06,2.38,50.68,3.45,73.53,2.37,41.76,4.98,73.22,7.3,91.66-11.75-1.23-24.91-2.37-39.5-3.39,1.15-20,2.3-46.14,3.33-79.2.48-18.37.99-37.79,1.54-58.47.39-24.24.8-49.83,1.23-77.09-13.79-.14-28.25-.29-43.12-.44-44.8.06-86.9.12-127.5.18.42,27.67.82,54.61,1.21,80.64.4,14.15.79,27.79,1.17,41.16-1.36,1.36-2.77,2.77-4.12,4.12,1.5,1.47,2.87,2.81,4.36,4.27.12,4.24.25,8.63.36,12.76,1.08,30.79,2.28,54.7,3.39,70.55-19.35,1.13-36.87,2.66-52.1,4.36.06-.48.12-.64.17-1.16,2.28-24.79,4.59-57.77,6.68-99.33,1.56-39.83,3.36-85.37,5.4-137.46,1.47.14-.02.27,3.48.4,5.76.12,11.61.25,17.55.37,11.95.22,24.23.44,36.81.66,31.97.11,62.99.22,93.17.33ZM366.12,1258.19c-4.2-5.97-9.7-12.98-16.84-21.03-15.6-17.14-32.25-28.85-41.46-33.49.13-5.61.25-11.05.39-16.98,25.42,24.91,49.81,48.81,72.76,71.3,12.01-12.6,23.59-24.76,34.85-36.59,8.46-9.2,16.6-18.05,24.5-26.65,5.43-6.12,10.37-11.88,13.63-16,.23,8.35.46,16.67.68,24.59-7.48,4.11-18.09,11.47-31.77,23.6-12.04,10.96-21.21,22.37-27.46,31.57-9.89-.22-19.71-.36-29.28-.33ZM326.08,1254.62c-6.03-7.48-14.13-11.25-19.51-12.29.32-7.05.63-15.02.92-24.07.04-1.58.08-3.43.11-5.04,4.96,6.84,12.7,15.88,21.47,25.02,7.55,7.71,14.93,14.52,21.66,20.2-7.46.12-14.9.24-22.05.49-.9-1.46-1.42-2.75-2.6-4.31ZM310.18,1259.77c-1.52.08-3.12.13-4.62.21.13-1.77.26-3.51.38-5.61,1.21,1.77,2.67,3.58,4.24,5.4ZM309.68,1102.32c5.21-2.69,12.57-8.19,20.14-15.3,9.57-9.28,16.67-18.49,20.65-25.52,8.22-.03,16.14-.06,24.18-.08-6.4,6.53-12.76,13.02-19.24,19.64-5.78,6.17-11.7,12.48-17.87,19.06-11.06,12.05-20.33,22.68-27.3,31.22-.34.43-.61.81-.94,1.24.12-9.92.25-19.85.38-30.25ZM309.85,1088.12c.11-8.89.22-17.68.33-26.81,8.76.05,17.75.11,26.74.17-3.44,2.28-7.12,4.92-11.22,8.36-6.76,5.89-12.04,12.43-15.85,18.29ZM453.84,1175.33c-.37.29-.55.4-.98.75-9.84,8.65-20.42,17.96-31.63,27.83-12.69,11.63-26.08,23.9-40.27,36.91-.74-.86-.39-.63-1.85-2.21l-6.14-6.48c-4.25-4.46-8.57-8.99-12.96-13.6-9.22-9.56-18.73-19.41-28.59-29.64-3.65-3.71-7.24-7.37-10.78-10.97l-5.28-5.33v-.02c15.09-14.99,54.76-55.53,65.6-67.75,15.04,13.69,29.98,27.28,43.94,39.98,12.53,11.15,22.3,19.49,28.79,24.67.05,1.98.11,3.91.16,5.87ZM410.94,1061.3c2.81,5.19,8.2,12.33,15.08,19.63,9.7,10,19.37,17.36,26.49,21.21.15,10.32.3,20.23.45,30.1-10.62-13.42-32.38-37.17-56.96-62.22-2.94-2.95-5.77-5.77-8.63-8.64,7.96-.03,15.81-.05,23.58-.08ZM425.28,1061.25c8.87-.03,18-.06,26.61-.09.14,9.62.28,18.71.42,28-2.4-3.73-5.3-7.79-9.11-12.35-5.77-6.62-12.15-11.77-17.91-15.56ZM309.14,1145.4c.02-1.93.05-4.06.08-6.02,14.17-10.63,35.94-28.93,65.96-57.32,1.96-1.89,3.83-3.7,5.66-5.47.19-.14.12-.04.12-.04,6.88,6.59,13.49,12.92,21.21,20.31,8.51,7.89,16.56,15.04,23.83,21.26,11.29,9.66,20.63,17.03,27.06,21.59.08,5.33.16,10.96.24,16.15.09,3.23.17,6.14.26,9.32-2.64-3.33-6.13-7.49-11.07-13.04-7.61-8.3-15.69-17.11-24.26-26.45-11.81-12.35-24.29-25.39-37.28-38.97-20.05,19.62-41.27,40.39-62.92,61.59-3.11,3.11-6.1,6.1-9.17,9.16.09-4.1.18-7.88.28-12.09ZM423.94,1247.15c13.65-13.37,24.32-26.08,30.9-35.6.22,7.99.44,16.17.65,23.68.11,2.47.22,4.86.34,7.24-4.16.93-9.34,2.99-15.53,7.67-3.65,2.94-6.22,6.4-8.25,9.81-6.77-.35-13.86-.66-21.14-.95,4.16-3.58,8.57-7.59,13.02-11.86ZM456.38,1252.8c.18,3.14.37,6.06.57,8.64-2.29-.15-4.38-.33-6.73-.47,2.49-2.82,4.59-5.5,6.16-8.17ZM504.56,1265.58c1.73-10.04,3.33-29.38,4.75-56.27,1.25-23.75,2.36-53.11,3.29-86.38.4-16.8.82-34.39,1.25-52.62.31-23.18.63-47.15.95-71.72-26.97-.21-54.82-.43-83.05-.66.76-23.18,1.57-47.93,2.43-74.09.44-25.65.91-52.57,1.38-80.02.01-6.7.03-13.35.04-19.93-.19-2.74.48-6.55-.96-9.37-1.16-2.76-3.18-6.34-4.29-8.01-2.38-3.67-5.13-7.02-8.26-10.1-12.44-12.89-32.34-17.66-48.16-14.3-8.22,1.52-16.02,4.91-22.44,9.5-6.74,5.06-11.05,9.1-16.59,17.29-1.36,2.39-3.35,4.64-3.57,7.38-.26,2.47-.2,6.08-.2,7.72l.08,8.57c.08,5.63.15,11.2.22,16.72.7,43.82,2.18,81.37,4.16,109.91,1.98,23.74,5.04,44.39,8.2,26.56,3.05-19.74,6.26-47.25,9.25-82.95,1.34-18.83,2.75-38.7,4.25-59.74.32-5.55.64-11.18.97-16.89.68-5.44-.69-.86,3.55-6.21,6.48-6.27,14.4-9.64,23.14-8.96,6.86.33,12.16,3.12,16.72,8.14,1.15,1.21,2.15,2.63,3.07,4.02l.3.47.06,13.3c.38,19.62.74,38.8,1.1,57.7.75,17.75,1.48,35.23,2.2,52.35.47,8,.94,15.9,1.41,23.7l.38,5.64c.13,1.79.26,1.6.38,2.56l.79,4.65-5.08,1.03c-1.4.35-7.28.71-10.47,1.06-7.21.76-14.16,1.48-20.83,2.18-12.58,1.46-22.47,2.93-29.19,4.28l-1.77.49c-4.19,1.9-.18,3.71,9.58,5.38-7.01.01-14.44.03-21.35.04-33.77.32-66.4.63-97.81.93.42,26.14.83,51.44,1.22,75.85.55,19.48,1.08,38.21,1.59,56.17,1.17,35.44,2.55,66.73,4.06,92.92,1.12,16.66,2.46,32.06,3.87,41.15-14.01,1.65-25.89,3.43-34.83,5.17l.36-16.68c.49-22.32.99-44.76,1.48-67.3,1.94-90.17,3.91-182.02,5.9-274.85l.77-37.49.38-18.69c.14-1.73-.24,0,.27-1.2l4.6-7.2c12.97-19.16,28.92-36.7,46.9-50.98,35.89-28.61,81.02-44.24,125.92-40.81,44.7,2.03,86.33,23.23,117.04,55.3,7.79,7.89,14.89,16.49,21.29,25.48,3.23,4.46,6.26,9.09,8.99,13.71l1.63,2.81-.09,5.97c-.36,23.51-.72,46.89-1.07,70.14-1.36,92.99-2.7,183.88-3.99,272.36-.31,22.12-.62,44.09-.93,65.9.02,1.13-.06,2.5-.07,3.69-9.69-1.64-21.45-3.26-35.2-4.78ZM712.06,642.04c-3.63-.46-7.18-.9-10.61-1.33-1.54-.21-4.77-.41-5.15-.61-.55-.19-.96-.38-1.24-.56l.4-1.2c.13.28.25-1.33.36-3.52.21-4.18.41-8.15.61-11.97.07-3.08.12-5.77.18-8.36.03-1.03.03-.27,0-.53-3.51-.08,9.18-.4,15.15-.88,7.11-.48,13.69-1.11,19.52-1.83,7.28-.9,13.23-1.92,17.86-2.93l-.03,1.66c-.01.22-.03,3-.04-.23-.2.93.36,2.58-.47,3.03-1.07.05-2.14.16-3.29.41-.34.02-4.2.97-7.88,3.45-3.62,2.08-7.92,8.06-7.4,14.08l.07.77.03.17c.28,1.39.65,2.98,1.66,5.05-6.2-.39-12.03-.34-10.87,6.77-2.65-.49-5.59-.97-8.85-1.44ZM741.43,633.16l-.04-.07.08.15-.04-.08ZM742.22,637.21v.09s.01.71.01.71v.03-.82ZM736.91,625.51l.33-.19.08-.04.05.09-.47.14Z"/>
  <path class="cls-1" d="M428.61,352.48c.18-9.72.36-19.53.54-29.47l.1-7.7c-.09-.77.38-3.53-.62-6.04-.63-1.95-1.22-3.22-1.95-4.78-2.9-5.86-7.53-11.07-13.29-14.65-9.82-5.93-20.76-6.53-30.34-5.17-9.85,1.21-20.22,6.45-26.17,15.2-1.56,2.34-2.61,4.05-3.87,7.44-1.21,4.57-.36,6.12-.61,8.08l.07,11.76c.09,7.55.17,15.02.26,22.47.44,28.96,1.26,53.78,2.31,72.64.46,6.98,1.03,13.41,1.66,17.52-1.83.06-3.58.12-5.43.18.24,4.82.47,9.7.71,14.65l.78,8.42c1.18,10.02,2.89,18.72,4.32,11.17.58-4.16,1.16-8.39,1.75-12.63l.85-7.74c.28-2.54.55-3.26.82-4.63,2.86.37,2.23.72,4.16,1.06l-.54,8.8c25.47.72,22.96,1.32,51.24,1.75h.76c.09,3.98.21,7.56.34,8.86.06.34-9.99.87-15.35,1.4-6.03.61-12.37,1.24-18.81,1.89-11.23,1.32-19.7,2.7-24.43,3.89l-.75.25c-2.93,1.62,3.33,3.01,15.5,4.08,6.08.53,13.64.99,22.26,1.35,4.64.16,9.19.32,13.68.47,7.45.08,14.75.16,21.95.24.18-13.17.36-25.95.54-38.58,0-3.25.01-6.47.02-9.64h-6.59c.92-6.6,1.75-17.9,2.46-32.77.54-16.02,1.1-32.66,1.67-49.78ZM415.81,450.29c.01-1.11.04-.8.06,0h-.06ZM419.77,450.29l.02-3.97.02,3.97h-.04ZM417.66,434.13c-.77,0-1.44.2-2.17.3.98-6.96,1.86-18.67,2.6-33.78.98,14.65,2.02,26.15,3,33.89-1.11-.21-2.23-.43-3.43-.41ZM380.6,300.89c-5.33,1.93-10.4,5-13.46,10.44.53-1.17,2.63-4.48,4.72-6.03,2.33-2.09,5.43-3.43,8.74-4.41ZM359.21,439.71c1.48-13.06,3.03-31.25,4.44-54.83.15-3,.31-6.14.47-9.17.15,19.16.56,35.9,1.18,49.18.33,5.67.77,10.94,1.28,14.58-2.44.08-4.89.16-7.36.24ZM375.75,439.16c-2.11.07-4.3.14-6.43.21,1.64-11.38,3.4-26.97,5.11-47.15,1.66-23.89,3.33-47.78,5.06-72.67,2.57-4.1,8.07-5.94,14.56-5.56,6.08-.32,11.96,4.61,11.19,4.69.7,53.49,3.89,97.36,6.55,116.35h-7.23s.02,9.47.02,9.47c0,3.74,0-3.17.01-1.58v1.34s.02,1.58.02,1.58c1.81.19-31.69.6-28.47,1.17l-.41-7.86ZM415.8,450.31h.08s0,.06,0,.08l-.08-.08ZM419.77,450.38h0s.02,0,0,0h0ZM421.1,435.02h-1.12c-.23,0,.39,0,1.12,0Z"/>
  <path class="cls-1" d="M380.96,1137.87c-.49-1.04,6.34,5.17,10.83,8.99,4.3,3.6,8.69,7.28,13.08,10.95,7.93,6.46,14.17,11.15,18.11,13.71l.77.42c3.11,1.1.28-3.61-6.67-12.17-4.51-5.25-8.93-10.41-13.29-15.48l-8.54-9.45c-4.8-5.06-9.56-10.08-14.29-15.06-12.91,12.46-25.52,24.63-38.02,36.69-5.47,5.47-10.82,10.81-16.09,16.08,28.69,28.59,29.37,28.63,54.12,52.36,4.4-4.66,8.84-9.37,13.34-14.15l8.01-8.94c4.39-5.09,8.86-10.28,13.43-15.58,7.11-8.78,12.8-16.89,5.8-11.91-5.08,3.79-11.33,8.75-18.77,14.96l-12.04,10.28-6.69,5.87c-2.7,2.43-2.09,1.56-3.07,2.3l-.74-1.1c-.02-.14-.36-.6-1.88-2.22l-7.21-7.85-15.99-17.04c-2.09-2.16-4.11-4.23-6.08-6.26-1.33-1.37-.35-.42-.63-.72,3.07-2.98,31.45-32.24,32.53-34.69Z"/>
</svg>