<?xml version="1.0" encoding="UTF-8"?>
<svg id="Ebene_1_Kopie" data-name="Ebene 1 Kopie" xmlns="http://www.w3.org/2000/svg" viewBox="0 0 114.73 114.73">
  <defs>
    <style>
      .cls-1 {
        fill: #3b0101;
      }
    </style>
  </defs>
  <path class="cls-1" d="M50.44,67.52v-19.51h7.75c1.19,0,2.25.24,3.19.71.94.47,1.67,1.14,2.2,2.01.53.86.79,1.9.79,3.11v.36c0,1.21-.27,2.25-.82,3.12-.55.87-1.29,1.54-2.22,2.01-.93.46-1.98.7-3.15.7h-4.74v7.5h-3.01ZM53.45,57.29h4.43c1.06,0,1.9-.28,2.54-.84.63-.56.95-1.32.95-2.29v-.28c0-.98-.32-1.76-.95-2.31-.63-.56-1.48-.84-2.54-.84h-4.43v6.55Z"/>
  <g>
    <path class="cls-1" d="M45.93,59.72c.04-8.45-.7-15.86-1.18-18l-.03-.11c-.51-1.05-.82,5.94-.78,13.91.06,6.62.37,12.37.73,15.89.17,1.46.41,2.73.58,1.62.32-2.45.61-6.82.68-13.31Z"/>
    <path class="cls-1" d="M68.16,62.1c-.23,1.04-.48,2.42-.75,4.15-.13.87-.27,1.83-.41,2.88-.07.53-.14,1.08-.21,1.65-.03.29-.07.58-.11.88-.02.11-.03.11-.05.15l-.1-.02h-.01s-.1,0-.1,0h-.2c-.14,0-.27,0-.41,0-.55,0-1.12.01-1.71.02-8.79.16-16.49,1.1-18.71,1.63l-.11.04c-1.08.54,6.2.68,14.5.44,1.37-.06,2.7-.11,3.99-.16,1.56-.08,3.07-.16,4.5-.23.04-.72.09-1.43.13-2.12.02-.43.04-.85.06-1.27.03-.82.06-1.61.08-2.36.04-1.49.06-2.81.05-3.92-.03-1.53-.15-2.87-.42-1.74Z"/>
    <path class="cls-1" d="M68.98,41.3c-.34,0-.67.01-.99.02-.6.02-1.17.03-1.72.05-1.09.04-2.06.09-2.89.16-1.28.12-2.4.31-1.44.52.81.16,1.87.32,3.18.48.66.08,1.38.16,2.16.23.4.04.8.07,1.23.11l.3.03.07.02s.08.03.1.04c-.02.06-.04.11-.05.15,0,.03,0-.02-.02.06l-.03.22c-.02.15-.04.3-.05.45-.07.61-.14,1.25-.22,1.91-.75,7.33-.63,13.83-.33,15.73l.02.1c.42.96,1.32-5.08,1.94-12,.11-1.32.21-2.61.29-3.84.09-1.55.18-3.03.27-4.43-.62,0-1.23,0-1.82-.01Z"/>
    <path class="cls-1" d="M44.94,41.6c1.28.38,3.57.8,6.99,1.05,4.45.28,8.38-.26,9.53-.68l.06-.03c.57-.48-3.1-.99-7.3-1.17-3.49-.12-6.53.03-8.4.29-.78.13-1.45.33-.88.53Z"/>
  </g>
</svg>