<?xml version="1.0" encoding="UTF-8"?>
<svg id="Ebene_1_Kopie" data-name="Ebene 1 Kopie" xmlns="http://www.w3.org/2000/svg" viewBox="0 0 567.23 702.57">
  <defs>
    <style>
      .cls-1 {
        fill: #3b0101;
      }
    </style>
  </defs>
  <path class="cls-1" d="M137.4,565.58V153.67h163.59c25.1,0,47.56,5,67.38,15,19.8,10,35.3,24.13,46.48,42.37,11.19,18.24,16.77,40.11,16.77,65.61v7.65c0,25.51-5.79,47.47-17.36,65.9-11.57,18.45-27.17,32.57-46.78,42.37-19.62,9.81-41.77,14.71-66.49,14.71h-100.04v158.29h-63.55ZM200.95,349.62h93.56c22.36,0,40.21-5.88,53.55-17.65,13.34-11.77,20.01-27.85,20.01-48.25v-5.88c0-20.79-6.68-37.07-20.01-48.85-13.34-11.77-31.18-17.65-53.55-17.65h-93.56v138.28Z"/>
  <g>
    <path class="cls-1" d="M42.27,401.02c.95-178.34-14.85-334.77-25.01-380.08l-.69-2.3C5.72-3.5-.83,144.05.09,312.33c1.35,139.83,7.79,261.16,15.51,335.43,3.65,30.88,8.66,57.66,12.23,34.29,6.68-51.71,12.96-144.02,14.45-281.04Z"/>
    <path class="cls-1" d="M511.56,451.16c-4.77,21.9-10.14,50.99-15.82,87.66-2.84,18.34-5.76,38.57-8.72,60.75-1.43,11.14-2.92,22.71-4.47,34.73-.74,6.04-1.49,12.2-2.25,18.47-.45,2.41-.69,2.23-1.01,3.14l-2.19-.51-.25-.06h-2.11s-4.26.03-4.26.03c-2.85.02-5.73.03-8.64.05-11.64.12-23.66.24-36.03.36-185.62,3.48-348.06,23.14-394.99,34.42l-2.38.75c-22.79,11.4,130.91,14.29,306.03,9.2,28.93-1.16,57.07-2.29,84.24-3.39,32.99-1.7,64.78-3.34,95.1-4.9.93-15.23,1.84-30.19,2.73-44.86.4-9.1.8-18.01,1.19-26.74.61-17.37,1.19-33.99,1.74-49.77.88-31.44,1.21-59.25,1.02-82.65-.71-32.35-3.15-60.58-8.92-36.68Z"/>
    <path class="cls-1" d="M528.77,12.03c-7.09.11-14.06.22-20.88.33-12.66.37-24.8.73-36.4,1.07-23.04.85-43.56,1.98-61.1,3.32-27.04,2.52-50.56,6.54-30.34,10.96,17.13,3.28,39.44,6.71,67.15,10.08,13.86,1.68,29.07,3.34,45.66,4.95,8.34.77,16.98,1.56,25.92,2.38l6.29.57,1.43.43c.88.28,1.6.55,2.17.81-.41,1.31-.78,2.37-1.13,3.21-.11.56-.11-.38-.32,1.36l-.58,4.69c-.38,3.15-.77,6.33-1.16,9.54-1.48,12.91-3.01,26.32-4.61,40.24-15.89,154.68-13.28,291.9-6.96,332.17l.5,2.06c8.95,20.21,27.84-107.23,41.03-253.37,2.39-27.96,4.43-55.1,6.13-81.07,1.98-32.71,3.88-63.98,5.67-93.52-13.05-.08-25.87-.15-38.47-.22Z"/>
    <path class="cls-1" d="M21.27,18.36c27.03,8.1,75.45,16.95,147.61,22.23,93.94,5.89,176.9-5.56,201.11-14.45l1.24-.63c12.03-10.23-65.5-20.87-154.21-24.61C143.29-1.63,79.14,1.44,39.75,7.09c-16.39,2.8-30.67,7.06-18.48,11.27Z"/>
  </g>
</svg>