<?xml version="1.0" encoding="UTF-8"?>
<svg id="Ebene_2" data-name="Ebene 2" xmlns="http://www.w3.org/2000/svg" viewBox="0 0 797.91 758.79">
  <defs>
    <style>
      .cls-1 {
        fill: #3b0101;
      }
    </style>
  </defs>
  <g id="Ebene_1_Kopie" data-name="Ebene 1 Kopie">
    <g>
      <path class="cls-1" d="M448.5,437.41l.11-.08.07-.04,1.26-.11c6.71-.62,13.33-1.24,19.88-1.84,12.96-1.37,25.58-2.7,37.81-3.99,24.27-2.77,46.59-5.74,66.4-8.71,39.62-5.94,69.21-11.92,84.35-16.47l1.98-.78s0,0,0,0c1.3.03,2.58-.23,3.71-1.25,6.82-7.11,13.4-19.33,15.34-36.83,1.54-22.69-13.68-41.23-23.65-46.14l-.68-.24c-.26-.05-.49.07-.75.05-.8-.71-2.17-1.41-4.89-2.04-6.75-1.32-14.86-2.61-23.76-3.85-.05-.15-.08-.38-.12-.51l-.19-.36c-.7-.79-1.61-.45-2.62.45-35.2-4.75-86.33-8.61-155-9.52h-8.95s-4.02,0-4.02,0l-.03-.07c-.02-.09.03-.14.03-.14,0,0-.04.04-.12.01,0-.33-.08.72-.03-.77l.14-4.54.23-9c.26-11.92.35-23.52.29-34.7-.12-22.38-.83-43.13-1.92-61.59-2.18-36.92-5.9-64.69-9.51-78.03l-.57-1.49c.13-1.13-1.02-2.29-4.21-3.46-11.5-3.68-27.07-7.52-46.93-11.16-9.93-1.82-20.93-3.58-33.02-5.25-6.33-.84-11.74-1.62-19.61-2.44-12.81-.92-25.99-1.87-39.6-2.85-.4,13.19-.82,26.99-1.25,41.2-3.44,90.03,10.16,169.12,19.69,192.07l.66,1.17c1.79,1.91,3.51,1.18,5.16-1.48-.99,12.19-1.88,25.68-2.58,39.69-.66,14.79-1.02,28.84-1.17,41.97-4.34.23-8.65.45-12.95.68.25-5.25.39-10.92.23-17.49-.88-23.01-6.59-43.11-10.97-52.35.37-.06.82-.12,1.18-.19,14.94-3.09,27.94-7.6,16.73-11.6-24.83-7.62-69.23-15.59-135.27-19.59-12.33-.6-24.45-.86-36.22-.81-17.06.27-33.69.53-49.97.79-1.19,6.54-2.37,13.03-3.54,19.47-1.02,5.84-2.48,13.85-2.61,15.76-.71,6.3-1.4,12.5-2.09,18.59-1.17,11.97-1.91,23.03-2.28,32.93-.75,19.8-.03,34.93,1.63,43.29l.13.38c-.35.79.16,1.54,1.73,2.22.02,0,.03.01.05.02,1,.43,2.39.83,4.29,1.2,35.75,5.73,99.35,10.33,193.48,9.31l9.08-.2,4.37-.11.04.07c.03.09-.02.15-.02.15,0,0,.02-.03.09,0-.05,5.68-.11,11.31-.16,16.87-.07,12.78.03,25.2.27,37.19.49,23.98,1.54,46.2,2.95,65.97,2.81,39.53,7.03,69.21,10.89,83.4l.61,1.61s.04.02.07.05c-.3,1.12,1.79,2.44,7.3,4.02,11.91,3.08,26.37,6.41,43.5,9.91,8.7,1.69,17.93,3.47,27.72,5.37,7.21,1.58,27.16,4.29,45.98,6.87.5-7.84,1.01-15.86,1.54-24.06.25-4.23.51-8.51.77-12.84.22-2.62.44-5.27.66-7.96.81-10.8,1.66-22.06,2.54-33.8,1.63-23.59,3.13-49.3,4.45-77.11.73-17.85,1.24-35.45,1.54-52.69.11-8.61.21-17.13.32-25.55l.02-5.65-.1-.11c-.07-.1-.15-.24-.24-.45.02-.08.08-.17.18-.27l.18-.15ZM236.69,409.76c-4.9.41-9.75.83-14.5,1.26,1.17-6.49,1.91-15.12,1.59-26.47-.83-17.78-5.86-33.27-10.08-41.32,9.45-.44,18.46-.99,27.07-1.64-2.78,6.51-5.55,16.76-7.09,31.6-1.23,14.41.58,27.62,3.01,36.58ZM182.16,415.11c-4.16.47-8.22.95-12.21,1.43,3-7.65,6.16-18.48,8.84-33,2.5-14.76,2.66-28.63,1.8-39.25,3.93-.07,7.75-.17,11.58-.28-1.92,7.54-3.8,16.57-5.44,26.11-2.82,17.52-4.15,33.21-4.58,44.98ZM168.51,344.43c-1.67,6.96-3.23,15.32-4.47,24.16-2.57,20.05-2.77,37.65-1.47,48.88-2.99.38-6.15.75-9.03,1.13,1.96-7.24,3.88-16.18,5.51-27.04,2.5-18.4,1.85-35.44.22-47.06,3.14,0,6.16-.05,9.24-.07ZM136.94,383.51c3.45-14.83,5.44-28.39,6.21-39.14,2.02.03,4.01.03,6.01.05-2.02,8.35-3.9,19.64-5.22,31.82-1.66,17.06-1.83,32.33-1.04,43.89-7.06,1.01-13.71,2.03-19.96,3.07,3.99-5.47,9.58-21.54,14.01-39.69ZM93.93,429.48c2.65-4.45,5.61-10.81,8.79-18.86,3.93-9.95,8.18-22.34,12.53-36.43,3.9-12.06,10.42-37.36,9.66-30.74.31.17.5.33.6.45,0,0,.01.06.09.09l3.44.11,2.65.08c-2.56,6.25-5.22,13.68-7.85,22.74-6.97,25.37-6.82,49-4.67,56.9-1.81.31-3.83.61-5.56.92-7.37,1.47-14.34,3.11-19.66,4.74ZM193.11,413.91c2.65-7.23,5.23-16.25,7.64-27.09,3.32-16.23,4.03-31.52,3.54-43.17.8-.03,1.65-.04,2.45-.08-1.38,6.58-1.56,18.44-.52,31.09,1.45,15.09,4.45,28.09,7.7,37.15-4.27.41-8.69.8-12.83,1.22-2.76.28-5.29.59-7.99.88ZM246.88,408.93c1.4-6.54,2.46-15.2,2.93-24.51.62-17.02-.95-31.85-3.42-40.97-.25-.79-.54-1.52-.83-2.21,5.47-.44,10.67-.93,15.75-1.44-1.56,7.11-1.31,23.08-.06,40.55.83,9.95,1.9,19.15,2.97,27.26-2.53.17-5.18.36-7.68.53-3.3.25-6.4.53-9.65.79ZM286.56,406.06c-2.82.19-5.51.38-8.3.57.33-4.4.49-9.2.43-14.38-.64-23.81-7.41-44.16-12.23-52.95,9.01-.98,17.08-2.1,24.55-3.28-1.63,7.6-1.93,22.88-.81,39.62.87,11.08,2.29,21.22,3.96,30.02-2.5.13-5.12.27-7.6.4ZM459.46,393.13l1.16,4.02c-.93.03-1.83.06-2.76.09.18-2.57.34-5.31.47-8.34.38,1.39.75,2.87,1.13,4.24ZM562.91,392.78c.22.86.48,1.7.77,2.44-4.38,0-8.93.02-13.52.05,1.81-6.57,3.41-15.11,4.3-26.25.65-10.63-.25-20.59-1.77-28.79,4.62-.41,9.28-.82,13.7-1.25-1.39,4.99-2.64,10.89-3.57,17.16-1.99,15.04-1.63,28.33.09,36.65ZM541.35,395.32c-5.35.05-10.76.11-16.34.2,1.9-7.3,3.2-17.88,3.07-32.33-.2-7.43-1.12-14.43-2.37-20.8,4.56-.33,9.06-.67,13.46-1.02-.55,5.03-.94,10.6-1.1,16.42-.21,15.05,1.2,28.14,3.27,37.54ZM517.32,391.73c.39,1.33.78,2.78,1.17,3.93-.72.02-1.47.03-2.2.05.36-1.26.71-2.54,1.02-3.98ZM503.65,348.59c-.51-1.72-1.04-3.26-1.57-4.63.79-.05,1.58-.1,2.36-.15-.3,1.45-.57,3.05-.79,4.78ZM506.14,393.82c.18.76.38,1.4.57,2.11-.31,0-.6.01-.91.02.12-.71.23-1.4.34-2.13ZM568.2,395.22c3.33-5.48,6.99-14.38,9.76-27.58,2.13-11.28,1.77-21.95.47-29.94,3.97-.43,8.09-.84,11.86-1.29-3.34,2.85-6.8,14.26-8.58,27.31-1.52,12.78-.96,24.03.7,31.6-4.59-.05-9.33-.08-14.22-.09ZM590.16,395.42c2.53-5.02,5.06-12,6.97-21.36,3.13-17.26-.75-33.1-4.09-37.92l-.08-.08c7.31-.88,14.16-1.79,20.65-2.72-1.8,5.17-3.58,10.96-5.19,17.09-4.49,18.1-6.34,34.3-6.01,44.56.02.23.06.43.08.66-.26,0-.49-.02-.75-.02-3.66-.09-7.65-.15-11.58-.21ZM640.13,377.24c.1-.33.16-.65.25-.97,2.35,9.16,5.98,16.9,10.31,22.59-4.91-.77-11.39-1.4-19.06-1.92,2.82-4.91,5.76-11.28,8.5-19.69ZM644.38,327.42c-1.42,2.31-2.62,5.17-3.62,8.39-3.66-2.18-10.18,11.83-14.53,28.61-3.04,12.54-4.08,23.79-3.75,32-4.22-.21-8.73-.4-13.53-.55,3.89-6.54,8.36-16.33,12.69-30.11,3.76-12.68,5.22-24.87,5.42-34.45.13-.02.3-.04.43-.06,6.24-1.17,12.09-2.48,16.88-3.82ZM494.49,344.42c-1.87,6.44-3.19,17.05-3.52,28.62-.12,8.48.33,16.34,1.14,23.22-4.34.1-8.65.2-13.08.3.36-5.06.71-10.12,1.06-15.14.85-14.63,1.15-27.07,1.03-36.32,3.52-.17,7.14-.34,10.61-.51.94-.05,1.82-.12,2.76-.17ZM474.15,345.44c-.84,3.46-1.71,7.39-2.63,11.85-.62,3.01-1.26,6.29-1.9,9.69-1.81-7.19-3.61-14.26-5.4-21.06,3.38-.16,6.61-.32,9.94-.48ZM317.59,649.51c8.53-18.63,17.16-103.57,21.23-198.46.51-16.23,1.01-32.25,1.49-47.81-1.49.08-2.91.15-4.4.23.33-4.1.66-8.24.97-12.63,3.35-52.79.34-99.68-2.76-116.63,2.88-26.74,4.85-61.51,5.47-98.28-.04-11.75-.08-23.2-.13-34.36-.18-15.92-.49-9.57-.92-11.99.06-.21.26-.45.63-.71l.32-.2c.02-.07.05-.14,1.73-.16l7.34-.23c6.71-.23,12.89-.59,19.13-.93-4.05,26.6-10.07,122.41-14.6,228.77-4.52,111.8-6.29,208.96-5.57,268.55.09,8.22.38,16.11.77,22.34-12.59.39-24.18,1.16-30.72,2.48ZM351.94,646.96c4.03-42.06,9.55-113.93,14.8-218.83,6.6-138.52,6.3-260.66,4.09-300.92,1.7-.1,3.62-.15,5.29-.25,8.39-.53,16.27-1.17,23.61-1.88-4.04,19.27-10.5,119.25-15.42,231.23-4.65,111.22-6.59,207.86-6.27,267.12.11,8.87.32,17.28.64,23.61-9.39-.03-18.37-.05-26.74-.08ZM403.25,647.35c-6.3-.1-12.41-.2-18.32-.29-.98,0-1.88,0-2.85,0,4.52-41.61,10.27-113.54,15.77-219.08,7-141.77,6.5-266.57,4.13-302.88l-.02-.24c6.97-.71,13.47-1.48,19.34-2.33,5.86-1.01,11.44-2.23,15.53-3.58-8.6,20.82-18.09,97.92-23.49,184.12-.76,15.1-1.51,30.03-2.24,44.5,2.82-.09,5.51-.17,8.31-.26-.21,5.76.48,13.65,1.97,21.89,2.37,11.99,6.02,22.12,9.69,29.21-7.59.36-15.09.7-22.76,1.06-.38,14.44-.76,29.06-1.14,43.77-1,41.8-1.34,81.74-1.14,118.76.24,18.45.47,36.22.69,53.22.21,8.44.42,16.69.62,24.73.33,3.13.73,3.88,1.11,6.6-1.39.28-3.12.55-5.2.8ZM439.5,398.02c.8-5.67.99-13.25-.14-23.03-1.56-11.31-5.52-21.23-9.41-28,5.21-.16,10.39-.32,15.54-.48,2.09,17.28,4.27,32.21,6.37,43.84.49,2.49,1.01,4.89,1.52,7.03-.29,0-.56.02-.84.03-4.29.2-8.71.4-13.03.61Z"/>
      <path class="cls-1" d="M43.1,432.86c-.14-193.29-16.88-362.79-27.31-411.87l-.71-2.49C4.09-5.45-1.56,154.49.38,336.88c2.2,151.55,9.37,283.03,17.54,363.51,3.84,33.45,9.01,62.47,12.44,37.13,6.36-56.07,12.09-156.14,12.74-304.65Z"/>
      <path class="cls-1" d="M725.6,489.37c-5.23,24.91-11.21,56.88-17.78,96.28-3.15,19.85-6.58,41.39-10.28,64.7-1.74,11.76-3.56,23.96-5.43,36.61-.91,6.35-1.84,12.81-2.78,19.38l-.32,2.16-.15.58-.3,1.1-.57,1.97-3.54-.47c-5.12-.04-10.32-.07-15.59-.11-11.51,0-23.34-.01-35.49-.02-24.36.15-49.98.3-76.83.46-244.85,3.45-459.48,23.11-521.6,34.39l-3.15.75c-30.3,11.4,172.34,14.31,403.37,9.24,48.88-1.22,96.11-2.75,141.03-4.49,50.38-2.22,98.21-4.32,142.85-6.29,1.27-14.87,2.52-29.47,3.75-43.81.66-9.21,1.31-18.25,1.95-27.1,1.16-17.66,2.27-34.6,3.33-50.76,1.97-32.24,3.43-61.19,4.37-86.29,1.16-42.57.34-79.73-6.82-48.28Z"/>
      <path class="cls-1" d="M745.64,11.64c-10.09.11-19.98.21-29.65.31-19.24.39-37.62.77-55.05,1.13-34.68.97-65.16,2.35-90.43,4.03-32.14,2.59-60.08,6.67-35.97,11.04,23.46,3.71,55.04,7.62,95.12,11.36,20.04,1.87,42.22,3.7,66.56,5.44,12.22.81,24.93,1.66,38.16,2.54,6.22.39,12.56.78,19.03,1.19.88.28,1.52.54,1.93.79l-.52,1.28-.24.48-.11.2c-.02.07-.03-.02-.06.17l-.21,1.54c-1.09,8.21-2.21,16.59-3.34,25.13-23,183.56-26.67,346.58-22.19,394.48l.4,2.45c8.03,24.11,32.79-127.08,52.69-300.51,2.61-24.96,5.15-49.34,7.62-72.99,2.95-30.96,5.8-60.94,8.55-89.78-17.75-.1-35.18-.19-52.27-.29Z"/>
      <path class="cls-1" d="M21.8,18.05c38.9,8.17,108.49,17.11,212.04,22.56,134.8,6.1,253.55-5.17,288.12-14.02l1.76-.63c17.07-10.21-94.29-21.02-221.55-24.96-105.76-2.69-197.69.24-254.07,5.81-23.45,2.76-43.86,6.99-26.3,11.23Z"/>
    </g>
  </g>
</svg>