<?xml version="1.0" encoding="UTF-8"?>
<svg id="Ebene_1_Kopie" data-name="Ebene 1 Kopie" xmlns="http://www.w3.org/2000/svg" viewBox="0 0 114.73 114.73">
  <defs>
    <style>
      .cls-1 {
        fill: #3b0101;
      }
    </style>
  </defs>
  <path class="cls-1" d="M59.71,60.11h0s0,0,0,0h.06c.32-.03.63-.06.94-.09.61-.06,1.21-.13,1.79-.19,1.15-.13,2.21-.27,3.15-.41,1.88-.28,3.28-.56,4-.78l.09-.04s0,0,0,0c.06,0,.12-.01.18-.06.32-.34.63-.92.73-1.74.07-1.07-.65-1.95-1.12-2.19h-.03s-.02,0-.04,0c-.04-.03-.1-.07-.23-.1-.32-.06-.7-.12-1.13-.18,0,0,0-.02,0-.02v-.02s-.09-.02-.13.02c-1.67-.22-4.09-.41-7.34-.45h-.42s-.19,0-.19,0h0s0-.01,0-.01c0,0,0,0,0,0,0-.02,0,.03,0-.04v-.22s.02-.43.02-.43c.01-.56.02-1.11.01-1.64,0-1.06-.04-2.04-.09-2.92-.1-1.75-.28-3.06-.45-3.7l-.03-.07c0-.05-.05-.11-.2-.16-.54-.17-1.28-.36-2.22-.53-.47-.09-.99-.17-1.56-.25-.3-.04-.56-.08-.93-.12-.61-.04-1.23-.09-1.88-.14-.02.62-.04,1.28-.06,1.95-.16,4.26.48,8.01.93,9.1l.03.06c.08.09.17.06.24-.07-.05.58-.09,1.22-.12,1.88-.03.7-.05,1.37-.06,1.99-.21.01-.41.02-.61.03.01-.25.02-.52.01-.83-.04-1.09-.31-2.04-.52-2.48.02,0,.04,0,.06,0,.71-.15,1.32-.36.79-.55-1.18-.36-3.28-.74-6.41-.93-.58-.03-1.16-.04-1.72-.04-.81.01-1.6.03-2.37.04-.06.31-.11.62-.17.92-.05.28-.12.66-.12.75-.03.3-.07.59-.1.88-.06.57-.09,1.09-.11,1.56-.04.94,0,1.65.08,2.05v.02s.01.07.09.11c0,0,0,0,0,0,.05.02.11.04.2.06,1.69.27,4.71.49,9.17.44h.43s.21-.01.21-.01h0s0,.01,0,.01c0,0,0,0,0,0,0,.27,0,.54,0,.8,0,.61,0,1.19.01,1.76.02,1.14.07,2.19.14,3.12.13,1.87.33,3.28.52,3.95l.03.08s0,0,0,0c-.01.05.08.12.35.19.56.15,1.25.3,2.06.47.41.08.85.16,1.31.25.34.07,1.29.2,2.18.33.02-.37.05-.75.07-1.14.01-.2.02-.4.04-.61.01-.12.02-.25.03-.38.04-.51.08-1.05.12-1.6.08-1.12.15-2.34.21-3.65.03-.85.06-1.68.07-2.5,0-.41,0-.81.01-1.21v-.27s0,0,0,0c0,0,0-.01-.01-.02,0,0,0,0,0-.01h0ZM49.68,58.81c-.23.02-.46.04-.69.06.06-.31.09-.72.08-1.25-.04-.84-.28-1.58-.48-1.96.45-.02.87-.05,1.28-.08-.13.31-.26.79-.34,1.5-.06.68.03,1.31.14,1.73ZM47.1,59.06c-.2.02-.39.04-.58.07.14-.36.29-.88.42-1.56.12-.7.13-1.36.09-1.86.19,0,.37,0,.55-.01-.09.36-.18.78-.26,1.24-.13.83-.2,1.57-.22,2.13ZM46.45,55.71c-.08.33-.15.73-.21,1.14-.12.95-.13,1.78-.07,2.32-.14.02-.29.04-.43.05.09-.34.18-.77.26-1.28.12-.87.09-1.68.01-2.23.15,0,.29,0,.44,0ZM44.96,57.56c.16-.7.26-1.34.29-1.85.1,0,.19,0,.28,0-.1.4-.18.93-.25,1.51-.08.81-.09,1.53-.05,2.08-.33.05-.65.1-.95.15.19-.26.45-1.02.66-1.88ZM42.92,59.74c.13-.21.27-.51.42-.89.19-.47.39-1.06.59-1.73.18-.57.49-1.77.46-1.46.01,0,.02.02.03.02,0,0,0,0,0,0h.16s.13,0,.13,0c-.12.3-.25.65-.37,1.08-.33,1.2-.32,2.32-.22,2.7-.09.01-.18.03-.26.04-.35.07-.68.15-.93.22ZM47.62,59c.13-.34.25-.77.36-1.28.16-.77.19-1.49.17-2.05.04,0,.08,0,.12,0-.07.31-.07.87-.02,1.47.07.71.21,1.33.36,1.76-.2.02-.41.04-.61.06-.13.01-.25.03-.38.04ZM50.16,58.77c.07-.31.12-.72.14-1.16.03-.81-.05-1.51-.16-1.94-.01-.04-.03-.07-.04-.1.26-.02.51-.04.75-.07-.07.34-.06,1.09,0,1.92.04.47.09.91.14,1.29-.12,0-.25.02-.36.03-.16.01-.3.03-.46.04ZM52.04,58.63c-.13,0-.26.02-.39.03.02-.21.02-.44.02-.68-.03-1.13-.35-2.09-.58-2.51.43-.05.81-.1,1.16-.16-.08.36-.09,1.08-.04,1.88.04.52.11,1.01.19,1.42-.12,0-.24.01-.36.02ZM60.23,58.02l.05.19s-.09,0-.13,0c0-.12.02-.25.02-.4.02.07.04.14.05.2ZM65.13,58s.02.08.04.12c-.21,0-.42,0-.64,0,.09-.31.16-.72.2-1.24.03-.5-.01-.98-.08-1.36.22-.02.44-.04.65-.06-.07.24-.13.52-.17.81-.09.71-.08,1.34,0,1.74ZM64.11,58.12c-.25,0-.51,0-.77,0,.09-.35.15-.85.15-1.53,0-.35-.05-.68-.11-.99.22-.02.43-.03.64-.05-.03.24-.04.5-.05.78,0,.71.06,1.33.15,1.78ZM62.97,57.95c.02.06.04.13.06.19-.03,0-.07,0-.1,0,.02-.06.03-.12.05-.19ZM62.33,55.91c-.02-.08-.05-.15-.07-.22.04,0,.07,0,.11,0-.01.07-.03.14-.04.23ZM62.44,58.05s.02.07.03.1c-.01,0-.03,0-.04,0,0-.03.01-.07.02-.1ZM65.38,58.12c.16-.26.33-.68.46-1.31.1-.53.08-1.04.02-1.42.19-.02.38-.04.56-.06-.16.13-.32.68-.41,1.29-.07.61-.05,1.14.03,1.5-.22,0-.44,0-.67,0ZM66.42,58.13c.12-.24.24-.57.33-1.01.15-.82-.04-1.57-.19-1.8h0c.35-.05.67-.09.98-.13-.09.25-.17.52-.25.81-.21.86-.3,1.62-.28,2.11,0,.01,0,.02,0,.03-.01,0-.02,0-.04,0-.17,0-.36,0-.55,0ZM68.79,57.26s0-.03.01-.05c.11.43.28.8.49,1.07-.23-.04-.54-.07-.9-.09.13-.23.27-.53.4-.93ZM68.99,54.9c-.07.11-.12.24-.17.4-.17-.1-.48.56-.69,1.36-.14.59-.19,1.13-.18,1.52-.2-.01-.41-.02-.64-.03.18-.31.4-.77.6-1.43.18-.6.25-1.18.26-1.63,0,0,.01,0,.02,0,.3-.06.57-.12.8-.18ZM61.89,55.71c-.09.3-.15.81-.17,1.36,0,.4.02.77.05,1.1-.21,0-.41,0-.62.01.02-.24.03-.48.05-.72.04-.69.05-1.28.05-1.72.17,0,.34-.02.5-.02.04,0,.09,0,.13,0ZM60.93,55.76c-.04.16-.08.35-.12.56-.03.14-.06.3-.09.46-.09-.34-.17-.68-.26-1,.16,0,.31-.02.47-.02ZM53.51,70.16c.4-.88.81-4.91,1.01-9.4.02-.77.05-1.53.07-2.26-.07,0-.14,0-.21.01.02-.19.03-.39.05-.6.16-2.5.02-4.72-.13-5.52.14-1.27.23-2.91.26-4.66,0-.56,0-1.1,0-1.63,0-.75-.02-.45-.04-.57,0-.01.01-.02.03-.03h.01s0-.02.08-.02h.35c.32-.02.61-.04.91-.05-.19,1.26-.48,5.8-.69,10.84-.21,5.3-.3,9.9-.26,12.72,0,.39.02.76.04,1.06-.6.02-1.15.06-1.46.12ZM55.14,70.04c.19-1.99.45-5.4.7-10.37.31-6.56.3-12.35.19-14.25.08,0,.17,0,.25-.01.4-.03.77-.06,1.12-.09-.19.91-.5,5.65-.73,10.95-.22,5.27-.31,9.85-.3,12.65,0,.42.01.82.03,1.12-.44,0-.87,0-1.27,0ZM57.57,70.06c-.3,0-.59,0-.87-.01-.05,0-.09,0-.14,0,.21-1.97.49-5.38.75-10.38.33-6.72.31-12.63.2-14.35h0c.33-.04.64-.08.92-.12.28-.05.54-.11.74-.17-.41.99-.86,4.64-1.11,8.72-.04.72-.07,1.42-.11,2.11.13,0,.26,0,.39-.01-.01.27.02.65.09,1.04.11.57.29,1.05.46,1.38-.36.02-.71.03-1.08.05-.02.68-.04,1.38-.05,2.07-.05,1.98-.06,3.87-.05,5.63.01.87.02,1.72.03,2.52.01.4.02.79.03,1.17.02.15.03.18.05.31-.07.01-.15.03-.25.04ZM59.29,58.25c.04-.27.05-.63,0-1.09-.07-.54-.26-1.01-.45-1.33.25,0,.49-.02.74-.02.1.82.2,1.53.3,2.08.02.12.05.23.07.33-.01,0-.03,0-.04,0-.2,0-.41.02-.62.03Z"/>
  <path class="cls-1" d="M40.51,59.9c0-9.16-.8-17.19-1.29-19.51l-.03-.12c-.52-1.13-.79,6.44-.7,15.08.1,7.18.44,13.41.83,17.22.18,1.58.43,2.96.59,1.76.3-2.66.57-7.4.6-14.43Z"/>
  <path class="cls-1" d="M72.84,62.58c-.25,1.18-.53,2.69-.84,4.56-.15.94-.31,1.96-.49,3.06-.08.56-.17,1.13-.26,1.73-.04.3-.09.61-.13.92l-.02.1v.03s-.02.05-.02.05l-.03.09-.17-.02c-.24,0-.49,0-.74,0-.55,0-1.11,0-1.68,0-1.15,0-2.37.01-3.64.02-11.6.16-21.77,1.09-24.71,1.63l-.15.04c-1.44.54,8.16.68,19.11.44,2.32-.06,4.55-.13,6.68-.21,2.39-.11,4.65-.2,6.77-.3.06-.7.12-1.4.18-2.08.03-.44.06-.86.09-1.28.05-.84.11-1.64.16-2.4.09-1.53.16-2.9.21-4.09.05-2.02.02-3.78-.32-2.29Z"/>
  <path class="cls-1" d="M73.79,39.95c-.48,0-.95,0-1.4.01-.91.02-1.78.04-2.61.05-1.64.05-3.09.11-4.28.19-1.52.12-2.85.32-1.7.52,1.11.18,2.61.36,4.51.54.95.09,2,.18,3.15.26.58.04,1.18.08,1.81.12.29.02.6.04.9.06.04.01.07.03.09.04l-.02.06v.02s-.02,0-.02,0c0,0,0,0,0,0v.07c-.06.39-.11.79-.17,1.19-1.09,8.7-1.26,16.42-1.05,18.69l.02.12c.38,1.14,1.55-6.02,2.5-14.24.12-1.18.24-2.34.36-3.46.14-1.47.27-2.89.4-4.25-.84,0-1.67,0-2.48-.01Z"/>
  <path class="cls-1" d="M39.5,40.25c1.84.39,5.14.81,10.04,1.07,6.39.29,12.01-.25,13.65-.66l.08-.03c.81-.48-4.47-1-10.49-1.18-5.01-.13-9.36.01-12.04.28-1.11.13-2.08.33-1.25.53Z"/>
</svg>