<?xml version="1.0" encoding="UTF-8"?>
<svg id="Ebene_1_Kopie" data-name="Ebene 1 Kopie" xmlns="http://www.w3.org/2000/svg" viewBox="0 0 114.73 114.73">
  <defs>
    <style>
      .cls-1 {
        fill: #3b0101;
      }
    </style>
  </defs>
  <path class="cls-1" d="M75.29,56.21c.1-.09.17-.24.25-.34,0-.32,0-.59,0-.87-1.1-.81-2.09-1.53-3.06-2.24-.13-.22-.25-.42-.36-.61-.85-.9-1.61-1.69-2.35-2.47-.03-.23-.06-.43-.09-.63-.69-.81-1.28-1.52-1.86-2.21-.21-.49-.38-.91-.56-1.32-.52-.7-.95-1.29-1.38-1.88-.21-.28-.41-.55-.61-.82-.06-.23-.11-.46-.17-.68-.6-.7-1.18-1.39-1.74-2.04,0-.19,0-.37,0-.55-.45-.54-.88-1.06-1.28-1.54,0-.16,0-.31,0-.46-.52-.63-.99-1.2-1.4-1.7,0-.15-.02-.29-.02-.42-2.14-2.78-2.72-3.44-.41-.14.05.07.1.14.16.23,0,.13,0,.26,0,.43.4.53.82,1.07,1.32,1.73,0,.14,0,.29,0,.46.38.48.76.97,1.22,1.57,0,.17,0,.35,0,.56.53.65,1.07,1.33,1.7,2.12.05.21.09.42.15.67.61.86,1.24,1.76,1.95,2.77.17.42.34.85.54,1.35.55.68,1.12,1.38,1.76,2.17.03.21.05.41.08.65.76.83,1.54,1.68,2.39,2.61.12.22.25.43.39.68.77.58,1.57,1.19,2.41,1.83-.01,0-.02,0-.03,0-.29-.03-.63-.06-1.02-.08-.21,0-.41-.02-.6-.03-.3,0-.58-.01-.86-.02h-.29c0,1.54.02,1.19.05,2.54.24,0,.48-.02.74-.03.13-.01.26-.02.39-.03.21-.02.43-.05.66-.08.02,0,.03,0,.04,0v.91c-.01.55-.02,1.11-.02,1.68,0,1.13-.02,2.29-.03,3.47-.02,2.37-.04,4.83-.05,7.39-.03,4.94-.06,10.27-.1,15.97-1.76,0-3.57-.02-5.41-.03-.51,0-1.03,0-1.55,0-.15,0-.12.03-.11-.14.02-1.05.04-2.1.07-3.17.09-4.27.17-8.72.27-13.34l.03-1.75.02-.87v-.44s0-.4,0-.4l-.19-.37c-.63-1.09-1.41-2.04-2.34-2.87-1.82-1.67-4.35-2.6-6.81-2.48-2.47.05-4.83,1.14-6.59,2.75-.44.4-.85.83-1.23,1.29-.39.48-.69.87-1.06,1.52-.07.12-.14.24-.12.38v.3s-.01.42-.01.42l-.02.83-.03,1.66c-.08,4.4-.16,8.72-.23,12.94-.02,1.05-.04,2.1-.05,3.14-.02.73.02.51-.03.56h-1.19c-1.83.01-3.63.02-5.41.03.14-11.07.26-21.21.37-30.05.02,0,.03,0,.05,0,.19.03.42.06.69.08.15.01.29.02.42.04.28.01.55.02.8.03.01-.49.02-.93.03-1.34,0-.39,0-.77,0-1.15-.25,0-.51,0-.77,0-.13,0-.26,0-.4.01-.22.01-.47.03-.73.04-.17.01-.32.03-.47.04.39-.28.78-.56,1.15-.85l.7-.54c.25-.2.4-.32.75-.62.22-.15.19-.49.17-.72.64-.58,1.27-1.15,1.88-1.7.04-.26.09-.51.13-.75.57-.55,1.12-1.08,1.66-1.6.05-.34.1-.67.15-1,.51-.49,1.01-.97,1.49-1.43.09-.29.18-.59.27-.87.52-.58,1.03-1.14,1.52-1.69,0-.14,0-.28,0-.42,1.54-2.27,2.89-4.26,4.05-5.96,0-.17,0-.34,0-.5.82-1.04,1.53-1.95,2.14-2.74l.06-.08.16-.58c.04-.16.07-.3.09-.41v-.02s.03,0,.03,0c.27-.02.32-.05.16-.07.01-.02.02-.1.04-.29.04-.53.08-1.1.13-1.71-.13-.14-.25-.28-.39-.42-.61,0-1.24-.02-1.91-.02-.03.02-.07.04-.1.07,0-.07,0-.13-.01-.2l.13.1c.63,0,1.29.02,1.97.03l.35-.37c.12.15.24.29.36.44,0,0,0,0,0,0l-.28.38c.02.74.04,1.45.06,2.11.09.01.18.03.27.04.11.32.21.62.3.88l.03.07c.1.21.05-.1-.21-1.09l-.18-.04s-.02,0-.03-.01c.01-.57.03-1.2.05-1.87l.16-.2c.56.01,1.15.02,1.77.03.23.08.47.16.71.23,0-.4,0-.81,0-1.22-.24.09-.48.19-.72.29-.56-.01-1.14-.02-1.72-.03l-.2-.25v-.35c0-.39.01-.78.02-1.17.17-.24.33-.48.5-.71-.58,0-1.16.01-1.72.02.17.24.34.48.51.71,0,.51,0,1.01,0,1.5l-.2.22c-.58,0-1.14,0-1.68.01-.11-.08-.21-.15-.31-.22l-.31-.22.03.38c.02.27.04.53.07.79l.02.29.24-.17c.08-.06.15-.11.23-.16.6-.02,1.17-.03,1.72-.05.1.1.19.19.28.28,0,.16,0,.3,0,.45,0,.75,0,1.42.02,1.47-.04,0-.09-.01-.16-.02h-.08s-.03.09-.03.09c-.08.22-.19.53-.34.93-.57.66-1.37,1.59-2.39,2.78,0,.16,0,.33,0,.51-1.15,1.58-2.58,3.57-4.26,5.89,0,.12,0,.24,0,.37-.48.51-.98,1.03-1.5,1.58-.09.26-.19.55-.28.84-.51.47-1.03.95-1.58,1.45-.05.31-.11.65-.17.99-.55.5-1.12,1.03-1.7,1.57-.04.23-.09.48-.14.73-.59.51-1.2,1.05-1.83,1.6l-.18.15v.25c.01.07.02.15.02.22,0,.04,0,.08-.04.1l-.56.45-.69.52c-.47.35-.95.69-1.43,1.02l-.36.23s-.1.03-.11.06h-.02s-.04.02-.04.02c-.05.02-.1.04-.13.06-.08.05-.15.1-.21.16-.22.24-.35.56-.23.96.11.42.66.6.67.58.08,0,.17.05.16.14,0,.03-.02.03-.04.04,0,0,0,0-.01.05,0,.06-.01.19.05.35.06.16.19.28.3.35l.08.04s-.02-.01,0,0h.01s.04,0,.06,0c.04-.02,0,.05.02.08-.21,9.11-.45,19.67-.71,31.02,2.27,0,4.56.01,6.89.02h2.09c.11-.01.3.05.35-.04v-.39s.02-.39.02-.39c1.21.21,3.86.36,6.75.4,3.52.02,6.57-.14,8.45-.38.14-.02.28-.04.41-.07,0,.3-.01.59.02.84h1.44s1.53,0,1.53,0c2.26,0,4.48-.01,6.66-.02-.02-5.95-.05-11.61-.07-16.95-.01-2.57-.03-5.06-.04-7.47,0-1.21-.01-2.39-.02-3.56,0-.58,0-1.16-.01-1.73v-.57c-.05-.13.08-.09.16-.1h0c-.05.01.25-.02.41-.19.19-.17.23-.4.23-.54,0-.12-.03-.31-.16-.48,0,0,.01,0,.02,0,.15-.12.25-.2.34-.26ZM60.56,29.56s-.03,0-.19-.06c.19-.08.15-.06.18-.08v.13ZM57.96,27.07l-.03.04h0s-.03-.05-.03-.05c-.02,0,.09,0,.06,0ZM39.97,54.51s.01.03.01.05c0,.04.04.14-.01-.05ZM40.27,55.1c-.48.12-.09.07.36-.23.18.03.37.06.6.08.29.03.56.05.81.08.16.01.32.02.47.03h.25c.08.02.03.02.05.03h0c-.01-.18,0,.99.03,1.14,0,0-.02.01-.03.02-.1,0-.21.02-.33.03-.18.02-.38.05-.58.07-.21.03-.37.06-.51.09-.05-.07-.1-.13-.16-.13-.04-.01-.08-.04-.13-.07.03-.02.05-.05.02-.09.01-.05.03-.04.04-.06.02-.01.02-.09.01-.14,0-.49-.43-.8-.91-.85ZM58.77,75.34c.71,0,1.42-.01,2.11-.02.34,0,.68-.01,1.02-.02h.25c.05,0,.02,0,.04,0h.04c.02-.25.03.84.05,1.45.02.68.05,1.34.07,1.99.06,1.23.11,2.4.16,3.48.11,1.98.24,3.47.35,4.34-.56-.06-1.18-.11-1.87-.16.05-.95.11-2.19.16-3.75.02-.87.05-1.79.07-2.77.02-1.15.04-2.36.06-3.65-.65,0-1.34-.01-2.04-.02-2.12,0-4.12,0-6.04,0,.02,1.31.04,2.59.06,3.82.02.67.04,1.32.06,1.95-.06.06-.13.13-.2.2.07.07.14.13.21.2,0,.2.01.41.02.6.05,1.46.11,2.59.16,3.34-.92.05-1.75.13-2.47.21,0-.02,0-.03,0-.06.11-1.17.22-2.74.32-4.71.07-1.89.16-4.04.26-6.51.07,0,0,.01.16.02.27,0,.55.01.83.02.57.01,1.15.02,1.74.03,1.51,0,2.98.01,4.41.02ZM56.54,86.23c-.2-.28-.46-.61-.8-1-.74-.81-1.53-1.37-1.96-1.59,0-.27.01-.52.02-.8,1.2,1.18,2.36,2.31,3.45,3.38.57-.6,1.12-1.17,1.65-1.73.4-.44.79-.86,1.16-1.26.26-.29.49-.56.65-.76.01.4.02.79.03,1.16-.35.19-.86.54-1.5,1.12-.57.52-1,1.06-1.3,1.5-.47-.01-.93-.02-1.39-.02ZM54.65,86.06c-.29-.35-.67-.53-.92-.58.02-.33.03-.71.04-1.14,0-.07,0-.16,0-.24.23.32.6.75,1.02,1.19.36.37.71.69,1.03.96-.35,0-.71.01-1.04.02-.04-.07-.07-.13-.12-.2ZM53.89,86.31c-.07,0-.15,0-.22,0,0-.08.01-.17.02-.27.06.08.13.17.2.26ZM53.87,78.85c.25-.13.6-.39.95-.72.45-.44.79-.88.98-1.21.39,0,.76,0,1.15,0-.3.31-.6.62-.91.93-.27.29-.55.59-.85.9-.52.57-.96,1.07-1.29,1.48-.02.02-.03.04-.04.06,0-.47.01-.94.02-1.43ZM53.88,78.18c0-.42.01-.84.02-1.27.41,0,.84,0,1.27,0-.16.11-.34.23-.53.4-.32.28-.57.59-.75.87ZM60.7,82.31s-.03.02-.05.04c-.47.41-.97.85-1.5,1.32-.6.55-1.24,1.13-1.91,1.75-.03-.04-.02-.03-.09-.1l-.29-.31c-.2-.21-.41-.43-.61-.64-.44-.45-.89-.92-1.35-1.4-.17-.18-.34-.35-.51-.52l-.25-.25h0c.71-.71,2.59-2.63,3.11-3.21.71.65,1.42,1.29,2.08,1.89.59.53,1.06.92,1.36,1.17,0,.09,0,.19,0,.28ZM58.67,76.91c.13.25.39.58.71.93.46.47.92.82,1.25,1,0,.49.01.96.02,1.43-.5-.64-1.53-1.76-2.7-2.95-.14-.14-.27-.27-.41-.41.38,0,.75,0,1.12,0ZM59.35,76.9c.42,0,.85,0,1.26,0,0,.46.01.89.02,1.33-.11-.18-.25-.37-.43-.58-.27-.31-.58-.56-.85-.74ZM53.84,80.89c0-.09,0-.19,0-.28.67-.5,1.7-1.37,3.12-2.72.09-.09.18-.18.27-.26,0,0,0,0,0,0,.33.31.64.61,1,.96.4.37.78.71,1.13,1.01.53.46.98.81,1.28,1.02,0,.25,0,.52.01.76,0,.15,0,.29.01.44-.13-.16-.29-.35-.52-.62-.36-.39-.74-.81-1.15-1.25-.56-.58-1.15-1.2-1.77-1.85-.95.93-1.95,1.91-2.98,2.92-.15.15-.29.29-.43.43,0-.19,0-.37.01-.57ZM59.28,85.71c.65-.63,1.15-1.24,1.46-1.69.01.38.02.77.03,1.12,0,.12.01.23.02.34-.2.04-.44.14-.74.36-.17.14-.29.3-.39.46-.32-.02-.66-.03-1-.05.2-.17.41-.36.62-.56ZM60.82,85.98c0,.15.02.29.03.41-.11,0-.21-.02-.32-.02.12-.13.22-.26.29-.39ZM63.1,86.58c.08-.48.16-1.39.23-2.67.06-1.13.11-2.52.16-4.09.02-.8.04-1.63.06-2.49.01-1.1.03-2.23.05-3.4-1.28-.01-2.6-.02-3.93-.03.04-1.1.07-2.27.11-3.51.02-1.22.04-2.49.07-3.79,0-.32,0-.63,0-.94,0-.13.02-.31-.05-.44-.05-.13-.15-.3-.2-.38-.11-.17-.24-.33-.39-.48-.59-.61-1.53-.84-2.28-.68-.39.07-.76.23-1.06.45-.32.24-.52.43-.79.82-.06.11-.16.22-.17.35-.01.12,0,.29,0,.37v.41c0,.27.01.53.01.79.03,2.08.1,3.85.2,5.21.09,1.12.24,2.1.39,1.26.14-.93.3-2.24.44-3.93.06-.89.13-1.83.2-2.83.02-.26.03-.53.05-.8.03-.26-.03-.04.17-.29.31-.3.68-.46,1.1-.42.32.02.58.15.79.39.05.06.1.12.15.19v.02s.02.63.02.63c.02.93.04,1.84.05,2.73.04.84.07,1.67.1,2.48.02.38.04.75.07,1.12l.02.27c0,.08.01.08.02.12l.04.22-.24.05c-.07.02-.34.03-.5.05-.34.04-.67.07-.99.1-.6.07-1.06.14-1.38.2l-.08.02c-.2.09,0,.18.45.25-.33,0-.68,0-1.01,0-1.6.02-3.15.03-4.63.04.02,1.24.04,2.44.06,3.59.03.92.05,1.81.08,2.66.06,1.68.12,3.16.19,4.4.05.79.12,1.52.18,1.95-.66.08-1.23.16-1.65.25l.02-.79c.02-1.06.05-2.12.07-3.19.09-4.27.19-8.62.28-13.02l.04-1.78.02-.89c0-.08-.01,0,.01-.06l.22-.34c.61-.91,1.37-1.74,2.22-2.41,1.7-1.36,3.84-2.1,5.96-1.93,2.12.1,4.09,1.1,5.54,2.62.37.37.71.78,1.01,1.21.15.21.3.43.43.65l.08.13v.28c-.02,1.11-.04,2.22-.05,3.32-.06,4.4-.13,8.71-.19,12.9-.01,1.05-.03,2.09-.04,3.12,0,.05,0,.12,0,.17-.46-.08-1.02-.15-1.67-.23ZM72.93,57.05c-.17-.02-.34-.04-.5-.06-.07,0-.23-.02-.24-.03-.03,0-.05-.02-.06-.03l.02-.06s.01-.06.02-.17c.01-.2.02-.39.03-.57,0-.15,0-.27,0-.4,0-.05,0-.01,0-.03-.17,0,.44-.02.72-.04.34-.02.65-.05.92-.09.34-.04.63-.09.85-.14v.08s0,.14,0-.01c0,.04.02.12-.02.14-.05,0-.1,0-.16.02-.02,0-.2.05-.37.16-.17.1-.38.38-.35.67v.04s0,0,0,0c.01.07.03.14.08.24-.29-.02-.57-.02-.51.32-.13-.02-.26-.05-.42-.07ZM74.32,56.62h0s0,0,0,0h0ZM74.36,56.82h0s0,.04,0,.04h0s0-.04,0-.04ZM74.11,56.26h.02s0-.01,0-.01h0s-.02.01-.02.01Z"/>
  <path class="cls-1" d="M59.5,43.33c0-.46.02-.93.03-1.4v-.36s.02-.17-.02-.29c-.03-.09-.06-.15-.09-.23-.14-.28-.36-.52-.63-.69-.47-.28-.98-.31-1.44-.25-.47.06-.96.31-1.24.72-.07.11-.12.19-.18.35-.06.22-.02.29-.03.38v.56c0,.36.01.71.02,1.06.02,1.37.06,2.55.11,3.44.02.33.05.64.08.83-.09,0-.17,0-.26,0,.01.23.02.46.03.69l.04.4c.06.47.14.89.2.53.03-.2.05-.4.08-.6l.04-.37c.01-.12.03-.15.04-.22.14.02.11.03.2.05l-.03.42c1.21.03,1.09.06,2.43.08h.04c0,.19,0,.36.02.42,0,.02-.47.04-.73.07-.29.03-.59.06-.89.09-.53.06-.93.13-1.16.18h-.04c-.14.09.16.15.73.21.29.03.65.05,1.05.06.22,0,.44.02.65.02.35,0,.7,0,1.04.01,0-.62.02-1.23.03-1.83,0-.15,0-.31,0-.46h-.31c.04-.31.08-.85.12-1.55.03-.76.05-1.55.08-2.36ZM58.9,47.96c0-.05,0-.04,0,0h0ZM59.09,47.96v-.19s0,.19,0,.19h0ZM58.98,47.2s-.07,0-.1.01c.05-.33.09-.88.12-1.6.05.69.1,1.24.14,1.61-.05,0-.11-.02-.16-.02ZM57.23,40.89c-.25.09-.49.24-.64.49.03-.06.12-.21.22-.29.11-.1.26-.16.41-.21ZM56.22,47.46c.07-.62.14-1.48.21-2.6,0-.14.01-.29.02-.43,0,.91.03,1.7.06,2.33.02.27.04.52.06.69-.12,0-.23,0-.35.01ZM57,47.44c-.1,0-.2,0-.3.01.08-.54.16-1.28.24-2.23.08-1.13.16-2.26.24-3.44.12-.19.38-.28.69-.26.29-.01.57.22.53.22.03,2.53.18,4.61.31,5.51h-.34s0,.45,0,.45c0,.18,0-.15,0-.07v.06s0,.07,0,.07c.09,0-1.5.03-1.35.06l-.02-.37ZM58.9,47.96h0s0,0,0,0h0ZM59.09,47.97h0s0,0,0,0h0ZM59.15,47.24h-.05s.02,0,.05,0Z"/>
  <path class="cls-1" d="M57.25,80.53s.3.24.51.43c.2.17.41.34.62.52.38.31.67.53.86.65l.04.02c.15.05.01-.17-.32-.58-.21-.25-.42-.49-.63-.73l-.4-.45c-.23-.24-.45-.48-.68-.71-.61.59-1.21,1.17-1.8,1.74-.26.26-.51.51-.76.76,1.36,1.35,1.39,1.36,2.56,2.48.21-.22.42-.44.63-.67l.38-.42c.21-.24.42-.49.64-.74.34-.42.61-.8.27-.56-.24.18-.54.41-.89.71l-.57.49-.32.28c-.13.12-.1.07-.15.11l-.04-.05s-.02-.03-.09-.11l-.34-.37-.76-.81c-.1-.1-.19-.2-.29-.3-.06-.06-.02-.02-.03-.03.15-.14,1.49-1.53,1.54-1.64Z"/>
</svg>