<?xml version="1.0" encoding="UTF-8"?>
<svg id="Ebene_1_Kopie" data-name="Ebene 1 Kopie" xmlns="http://www.w3.org/2000/svg" viewBox="0 0 114.73 114.73">
  <defs>
    <style>
      .cls-1 {
        fill: #3b0101;
      }
    </style>
  </defs>
  <path class="cls-1" d="M110.28,65.86c-.79-1.05-1.56-2.09-2.33-3.12-4.11-.42-8.16-.83-12.14-1.23-4.32-3.41-8.53-6.74-12.64-9.99-5.86-3.25-11.53-6.39-16.96-9.39-22.3,5.37-41.22,9.93-55.12,13.28-1.73.43-3.43.85-5,1.24-.57.85-1.11,1.66-1.62,2.43,1.72.06,3.25.11,4.48.15,1.05.02,1.84.03,2.34.04.02,1.36.04,2.68.06,3.91.04,1.56.08,2.98.11,4.28.1,2.76.24,5.15.36,3.07.06-1.44.12-3.17.2-5.19.05-1.99.11-4.28.18-6.87,1.67-.17,3.46-.35,5.4-.54,2.09-.22,4.32-.46,6.71-.72.9-.1,1.78-.2,2.66-.3,0,2.49,0,4.9,0,7.21,0,1.26.02,2.5.03,3.7,0,.6.01,1.19.02,1.77,0,.29,0,.58.01.87v.21s0,.04,0,.04v.08c-3.44.09-6.53.17-9.07.24-2.63.09-4.62.18-5.79.27l-.21.02c-.75.12.65.23,3.49.33,1.45.04,3.22.08,5.24.13,2.23.03,4.73.06,7.43.1,0-.17,0-.34,0-.51h0c.85.04,1.8.08,2.88.14.57.02,1.17.04,1.8.06.32,0,.65.02.99.03.21,0,.42,0,.63.01,0,.01,0,.02,0,.04,2.1.04,4.41.09,6.88.14.02,0,.03,0,.05,0,.05,0,.1,0,.16.01h.06s0,0,0,0c.03,0,.06,0,.09,0,0-.01,0-.03,0-.04.01,0,.01,0,.03,0,.14,0,.29,0,.43,0,.22-.02.45-.04.68-.06,0-.02,0-.05,0-.07.52.21,1.37.43,2.6.53,1.28.09,2.45-.1,3.16-.32,0,.05,0,.1,0,.15v.61s.63,0,.63,0c.14,0,.28,0,.41,0h.64s0-.15,0-.15c.02,0,.04.02.07.03.15.02.27-.05.37-.14,4.05.05,8.23.1,12.49.16,3.74.04,7.41.08,10.99.11,0-.05,0-.11,0-.16,3.02-.23,6.24-.48,9.63-.74,4-.03,8.23-.07,12.55-.1,4.08-.05,8.06-.1,11.89-.14,0-1.86,0-3.67-.01-5.47.69-.04,1.38-.08,2.06-.12ZM83.44,54.59c4.76,3.64,9.02,6.9,12.6,9.63-.85-.04-1.72-.08-2.56-.12-3.15-2.05-6.25-4.06-9.25-6.01-1.06-1.31-2.1-2.6-3.13-3.86-2.07-.65-4.11-1.29-6.12-1.92,0-.11,0-.22.01-.32-5.62,1.14-10.87,2.21-15.68,3.19-1.38.29-2.71.56-4.01.83-2.88.59-5.68,1.15-8.35,1.7-3.84.34-7.45.65-10.82.95,0-.02,0-.05,0-.07-1.54-.55-3.04-1.09-4.5-1.61-1.17-.41-2.3-.8-3.42-1.19,0-.1,0-.2,0-.3-.21.03-.42.05-.63.08-.2-.07-.4-.14-.59-.21,0,.09,0,.18,0,.28-2.73.33-5.37.66-7.87.97-2.01.26-3.94.51-5.78.75,8.77-1.64,21.44-4.1,38.3-7.5,5.4-1.11,10.68-2.2,15.73-3.24,5.72,2.84,11.14,5.53,16.07,7.98ZM95.34,62.73h0,0ZM107.87,64.74c-.09,0-.18.01-.26.02-.94-.04-1.86-.09-2.79-.13-.72-.09-1.52-.18-2.4-.28-1.66-.18-3.58-.39-5.73-.63.03-.21,0-.47-.08-.73-.02-.05-.05-.09-.07-.14,3.62.37,7.21.73,10.73,1.09.2.27.4.54.6.8ZM82.54,52.58c0,.11,0,.23.03.36-4.67-2.38-9.69-4.93-14.89-7.57-.01-.3-.1-.68-.24-1.06-.04-.09-.08-.18-.12-.26,4.78,2.68,9.83,5.51,15.16,8.5.02.01.03.03.05.04ZM6.31,56.99c6.69-1.52,14.98-3.4,24.93-5.65,9.92-2.29,21.49-4.95,34.77-8.01-.01.29.01.63.12,1.04.13.45.38.83.63,1.1-.33.07-.65.13-.98.2-22.54,4.64-42.07,8.82-54.01,11.49-3.08.7-5.91,1.36-6.7,1.6.38-.54.77-1.1,1.24-1.77ZM8.81,59.02c-1.07-.06-2.21-.13-3.51-.21.23-.03.55-.08.98-.16,1.45-.26,3.11-.56,4.96-.91,0,.5.02.97.02,1.45-.45-.04-1.24-.1-2.45-.17ZM30.3,70.98c-.86.05-1.68.11-2.19.17.03-3.26.06-6.77.09-10.39,0-1.25,0-2.48.01-3.7,0,0,0,0,.03.02l.88.32c.59.21,1.18.43,1.78.65,1.35.48,2.67.95,3.94,1.4-.17,3.51-.41,8.98-.45,11.34-1.52.07-2.89.13-4.1.19ZM42.13,71.28c-.07.06-.34.17-.48.25,0-.3,0-.62,0-.93.03-.49.07-1,.1-1.55.05-.95.11-2,.18-3.16h0c0,.32,0,.63,0,.95,0,.27.01.53.02.8.02.5.04.99.06,1.48l.09,1.3.06.57.06.25-.1.05ZM46.29,70.91c-1.37-.03-2.57.1-3.3.29-.06.02-.11.04-.16.06.06-.55.12-1.11.18-1.67.07-.75.12-1.62.16-2.61,0-.47.02-.33.02-.34h0s.5-.02.5-.02c.35-.02.7-.04,1.06-.06.68-.05,1.31-.11,1.87-.18.79-.1,1.43-.21,1.88-.32,0,.29,0,.9,0,1.32,0,.7.01,1.41.02,2.15,0,.56.02,1.11.03,1.66-.54-.13-1.36-.23-2.26-.27ZM50.29,71.21s-.05.02-.07.03c-.03-2-.07-3.93-.1-5.79.18.01.35.03.54.04-.07,1.86-.15,3.78-.22,5.74-.05,0-.09-.02-.14-.02ZM51.61,71.15c.06-2.29.13-4.53.19-6.69-.58-.04-1.14-.08-1.7-.12,0-.04,0-.08,0-.11-1,.04-1.98.09-2.93.13-.75.04-1.49.08-2.2.12-.04,0-.07,0-.11,0-1.45.06-2.87.11-4.24.17.06,2.2.13,4.3.18,6.28-2,.01-3.86.02-5.57.03.12-1.46.24-3.03.38-4.74.13-1.88.28-3.92.44-6.13.01-.24.03-.47.04-.7,3.39-.25,7.07-.52,10.98-.82,8.03-1.56,17.07-3.31,26.74-5.19-.19,3.93-.4,8.14-.62,12.64-.08,1.78-.16,3.55-.24,5.29-7.48-.06-14.67-.12-21.34-.18ZM83.74,70.55c-3.39.32-6.59.63-9.54.91.26-6.3.5-12.32.73-17.99,1.8.57,3.63,1.16,5.48,1.75.98,1.22,1.99,2.48,3.01,3.75.09.06.18.12.27.17-.18,1.01-.34,2.59-.4,4.78-.05,2.87.28,5.42.56,6.61-.04,0-.08,0-.11,0ZM106.99,70.12v.09s0,0,0,0h0c-4.04.05-7.98.1-11.78.14-3.8.07-7.45.13-10.92.19.17-.92.27-2.85.27-4.96-.02-2.53-.18-4.73-.4-6.12,2.92,1.92,5.9,3.87,8.92,5.85,1.8.09,3.61.18,5.43.26.5.04.99.08,1.5.12,1.19.1,2.43.16,3.7.24.63.03,1.28.02,1.93.03.33,0,.65,0,.98,0h.01c.13,0,.26.01.39.02,0,1.11-.02,2.25-.02,3.41v.72Z"/>
</svg>