<?xml version="1.0" encoding="UTF-8"?>
<svg id="Ebene_2" data-name="Ebene 2" xmlns="http://www.w3.org/2000/svg" viewBox="0 0 2560.95 737.25">
  <defs>
    <style>
      .cls-1 {
        fill: #3b0101;
      }
    </style>
  </defs>
  <g id="Ebene_1_Kopie" data-name="Ebene 1 Kopie">
    <path class="cls-1" d="M2560.95,574.24c-19.04-25.51-37.73-50.55-56.36-75.52-99.37-10.06-197.41-19.99-293.88-29.75-104.45-82.49-206.53-163.11-305.94-241.63C1762.86,148.74,1625.79,72.82,1494.33,0,954.75,130.02,496.97,240.34,160.4,321.44c-41.94,10.35-82.98,20.49-121.11,29.9-13.74,20.57-26.89,40.27-39.3,58.86,41.68,1.36,78.6,2.55,108.36,3.52,25.32.47,44.5.83,56.57,1.05.55,32.92,1.08,64.84,1.57,94.5.97,37.64,1.86,72.22,2.66,103.5,2.37,66.67,5.78,124.57,8.64,74.3,1.36-34.95,2.99-76.68,4.9-125.63,1.29-48.2,2.76-103.49,4.43-166.29,40.31-4.03,83.84-8.38,130.65-13.06,50.56-5.41,104.65-11.2,162.33-17.38,21.7-2.45,43.18-4.87,64.33-7.25.02,60.15.04,118.48.05,174.44.22,30.59.44,60.51.65,89.65.16,14.51.31,28.83.46,42.94.09,7.04.18,14.02.26,20.96l.07,5.18.08,1.01.17,1.89c-83.51,2.17-158.12,4.1-219.76,5.7-63.62,2.15-111.89,4.42-140.19,6.45l-4.98.49c-18.1,2.92,15.74,5.64,84.36,7.96,35.12.87,77.97,1.93,126.88,3.14,53.97.71,114.56,1.51,179.71,2.37.04-4.02.08-8.27.11-12.33h0c20.5.97,43.66,2.06,69.77,3.29,13.75.47,28.24.97,43.53,1.49,7.79.22,15.78.45,23.97.69,4.96.08,10.18.17,15.25.25-.02.3-.04.57-.06.86,50.83,1.03,106.68,2.17,166.45,3.39.46.04.63.08,1.15.12,1.25.08,2.49.16,3.99.25l1.49.09.02-.33c.75.02,1.45.03,2.2.05,0-.33,0-.7,0-1.04.25.02.35.07.63.09,3.42-.03,6.9-.07,10.43-.11,5.42-.47,10.92-.94,16.47-1.42.06-.55.12-1.13.18-1.68,12.65,5.15,33.09,10.29,62.94,12.94,31.05,2.22,59.3-2.35,76.5-7.66.02,1.19.04,2.43.05,3.62l.23,14.88,15.01.04c3.35,0,6.7.02,9.95.03l15.53.04-.06-3.76c.6.16,1.02.59,1.64.7,3.53.37,6.45-1.25,9-3.45,97.89,1.24,199.22,2.52,302.34,3.83,90.47.93,179.29,1.84,265.86,2.73.05-1.33.11-2.6.16-3.93,72.98-5.6,151.06-11.58,233.07-17.87,96.81-.78,199.05-1.61,303.62-2.46,98.76-1.21,194.97-2.38,287.78-3.51-.11-44.92-.22-88.91-.32-132.35,16.73-.97,33.4-1.94,49.84-2.9ZM1911.36,301.35c115.12,88,218.27,166.86,305,233.16-20.59-.95-41.6-1.92-61.99-2.87-76.29-49.56-151.16-98.2-223.86-145.42-25.58-31.6-50.91-62.88-75.67-93.47-50.15-15.71-99.52-31.17-148.12-46.39.1-2.56.21-5.25.32-7.81-136.01,27.7-263.11,53.59-379.48,77.3-33.38,6.95-65.5,13.64-96.96,20.19-69.81,14.18-137.41,27.91-202.06,41.04-93,8.12-180.35,15.75-261.84,22.87.03-.56.07-1.14.1-1.7-37.19-13.32-73.53-26.34-108.99-39.04-28.26-9.85-55.73-19.42-82.8-28.86,0-2.37.01-4.81.02-7.18-5.19.64-10.08,1.24-15.24,1.87-4.72-1.64-9.59-3.34-14.27-4.97.02,2.29.05,4.43.07,6.71-65.95,8.1-129.93,15.95-190.51,23.39-48.74,6.3-95.39,12.32-139.86,18.07,212.34-39.71,518.73-99.23,926.81-181.57,130.77-26.95,258.32-53.23,380.54-78.42,138.51,68.79,269.54,133.87,388.79,193.1ZM2199.43,498.37h0,0ZM2502.58,547.07c-2.12.13-4.25.26-6.3.39-22.71-1.05-44.93-2.08-67.48-3.12-17.52-2.06-36.85-4.34-58.08-6.83-40.1-4.38-86.66-9.46-138.59-15.13.8-5,.11-11.37-1.97-17.61-.47-1.23-1.1-2.29-1.65-3.44,87.56,8.91,174.36,17.75,259.64,26.43,4.87,6.51,9.72,13,14.44,19.31ZM1889.65,252.75c-.07,2.77.18,5.67.8,8.81-113.11-57.55-234.57-119.35-360.21-183.28-.36-7.22-2.34-16.41-5.69-25.75-.88-2.26-1.91-4.28-2.88-6.39,115.71,64.88,237.92,133.41,366.79,205.67.39.31.8.64,1.2.95ZM44.84,359.42c161.83-36.68,362.44-82.16,603.25-136.74,240.08-55.33,520.13-119.86,841.5-193.92-.3,6.94.36,15.22,2.86,25.06,3.18,10.99,9.1,20,15.3,26.59-7.91,1.62-15.75,3.23-23.73,4.86C938.65,197.47,465.94,298.69,176.93,363.4c-74.6,16.92-142.92,32.94-162.11,38.84,9.23-13.17,18.74-26.73,30.02-42.82ZM105.54,408.59c-25.96-1.55-53.41-3.2-84.94-5.09,5.62-.81,13.23-2.05,23.7-3.87,35.1-6.29,75.3-13.62,120.01-21.9.2,12.04.39,23.41.58,35.06-10.95-.99-29.9-2.35-59.35-4.2ZM625.46,698.16c-20.89,1.24-40.57,2.67-53.08,4.1.72-78.84,1.49-163.73,2.28-251.35.08-30.28.16-60.03.25-89.49.12.07.24.14.81.37l21.2,7.74c14.24,5.17,28.62,10.39,43.1,15.65,32.65,11.61,64.5,22.94,95.39,33.93-4.16,85.04-9.84,217.23-10.79,274.44-36.86,1.71-69.96,3.26-99.17,4.61ZM911.79,705.32c-1.59,1.37-8.23,4.02-11.73,6.06-.07-7.34-.14-15.1-.21-22.58.8-11.8,1.64-24.16,2.54-37.49,1.31-23.05,2.74-48.47,4.33-76.52h.24c.05,7.66.09,15.34.14,22.88.15,6.47.3,12.88.45,19.25.51,12.05,1.01,23.89,1.52,35.77l2.23,31.47,1.34,13.88,1.46,5.99-2.31,1.29ZM1012.32,696.38c-33.2-.84-62.07,2.31-79.79,7.02-1.35.42-2.57.9-3.78,1.38,1.44-13.35,2.89-26.79,4.38-40.52,1.62-18.23,2.98-39.28,3.92-63.26.24-11.27.37-7.89.39-8.31v-.05l11.99-.43c8.43-.47,16.87-.93,25.57-1.41,16.48-1.14,31.73-2.65,45.28-4.34,19.11-2.38,34.58-5.11,45.56-7.69-.04,6.96.09,21.69.14,31.93.14,16.87.28,34.21.42,52.01.21,13.55.41,26.8.62,40.11-13.09-3.22-33.03-5.62-54.7-6.44ZM1109.21,703.67c-.66.07-1.11.53-1.74.66-.83-48.38-1.63-95.06-2.41-140.14,4.34.35,8.56.7,12.96,1.06-1.74,44.96-3.53,91.54-5.36,138.8-1.15-.14-2.27-.43-3.46-.38ZM1141.28,702.28c1.56-55.5,3.08-109.6,4.55-161.96-13.94-.95-27.6-1.88-41.21-2.81-.02-.89-.03-1.84-.05-2.73-24.18,1.08-47.85,2.14-70.96,3.18-18.21.99-35.96,1.95-53.22,2.89-.89.05-1.69.1-2.58.16-35.1,1.37-69.37,2.72-102.68,4.02,1.55,53.25,3.03,104.03,4.43,152-48.29.27-93.3.52-134.75.76,2.83-35.23,5.89-73.25,9.22-114.65,3.24-45.46,6.76-94.81,10.57-148.41.34-5.71.68-11.3,1.02-16.97,82.1-6.09,171.04-12.69,265.8-19.72,194.39-37.7,412.98-80.08,647.04-125.47-4.64,95.01-9.61,197.08-14.92,305.89-1.97,43.06-3.92,85.79-5.85,128.08-181.01-1.49-355.04-2.93-516.42-4.26ZM1918.73,687.77c-82.08,7.81-159.42,15.17-230.8,21.97,6.18-152.41,12.08-298.03,17.64-435.22,43.52,13.91,87.8,28.07,132.71,42.43,23.72,29.61,48.13,60.08,72.74,90.8,2.12,1.39,4.31,2.82,6.43,4.22-4.31,24.54-8.2,62.67-9.61,115.77-1.22,69.34,6.76,131.11,13.65,160-.91.02-1.86.03-2.77.05ZM2481.42,677.35l-.02,2.18-.02.08-.03.14c-97.73,1.11-193.15,2.19-285.08,3.23-91.9,1.58-180.26,3.1-264.22,4.55,4-22.21,6.46-68.91,6.46-119.95-.41-61.23-4.43-114.4-9.58-148.11,70.75,46.37,142.83,93.6,215.94,141.51,43.51,2.11,87.29,4.24,131.29,6.38,12.17.95,23.9,1.87,36.36,2.84,28.78,2.44,58.8,3.88,89.45,5.8,15.34.79,30.86.42,46.6.68,7.87.05,15.78.11,23.75.16h.29c3.14.15,6.33.3,9.46.46-.19,26.77-.38,54.36-.57,82.6l-.07,17.44Z"/>
  </g>
</svg>