<?xml version="1.0" encoding="UTF-8"?>
<svg id="Ebene_2" data-name="Ebene 2" xmlns="http://www.w3.org/2000/svg" viewBox="0 0 1530.51 700.97">
  <defs>
    <style>
      .cls-1 {
        fill: #3b0101;
      }
    </style>
  </defs>
  <g id="Ebene_1_Kopie" data-name="Ebene 1 Kopie">
    <path class="cls-1" d="M1524.35,49.89c-2.56-7.08-4.14-10.56-6-14.8-6.38.72-11.93,1.53-16.73,2.39,8.05-7.55,15.31-14.52,20.7-20.04-.61-4.83-1.2-8.45-1.78-11.06l-.41-1.43c.35-.68.18-.97-.59-.82-.85-1.2-1.7-1.25-2.51.43-.06.15-.13.4-.19.57-1.94,1-4.56,2.52-8.15,4.76-24.88,15.98-56.84,37.22-96.06,64.07-19.89,13.77-41.29,28.59-64.31,44.54-22.52,15.87-46.58,32.82-72.29,50.95-40.85,1.4-85.15,2.92-133,4.56l-18.64.8-.15-.11.13-.12c-21.03,13.47,52.19-33.77,90.49-59.21,14.82-9.89,28.89-19.27,43.07-28.73,6.67-4.06,12.88-7.85,19.75-12.04,20.55-12.88,41.66-26.12,63.04-39.52,37.94-6.33,72.46-12.1,102.12-17.05,31.17-5.56,55.21-10.27,70.56-13.77l3.39-.9c10.32-3.76-5.16-4.21-39.23-2.12-18.11,1.4-39.6,3.06-64.15,4.95-9.88.94-20.65,1.97-31.39,3,2.47-1.55,4.85-3.04,7.33-4.6-55.93,6.55-114.4,13.4-173.99,20.38-18.54,2.26-36.86,4.49-54.93,6.69-.28.16-.54.31-.82.48-27.08,3.2-54.45,6.43-82.06,9.69-19.25,2.35-38.24,4.66-56.93,6.94-.17.09-.33.18-.5.27-15.93,1.89-31.85,3.77-47.95,5.68-24.74,3.02-49.12,6-73.08,8.93l-.09.05c-1.82.22-3.56.42-5.38.64-34.26,4.19-68,8.31-101.13,12.36-.28.13-.53.25-.81.39-12.44,1.43-25.01,2.88-37.71,4.33-18.9,2.31-37.49,4.58-55.75,6.81-27.56,12.65-54.3,24.91-80.16,36.78-24.82,11.67-48.75,22.91-71.72,33.71-49.82,23.82-95.84,45.83-137.88,65.93-14.62,6.06-29.88,12.39-46.45,19.26-24.02,10.22-49.93,21.26-77.31,32.92-55.37,24.28-116.64,51.15-179.92,78.89-35.46,15.98-70.45,31.74-104.79,47.21,26.68,3.04,52.89,6.02,78.82,8.98-.1.05-.2.09-.3.14,7.5.85,14.77,1.68,22.21,2.52-2.52,9.04-5.05,20.86-7.26,36.29-1.19,8.34-2.3,17.63-3.26,27.9-.45,5.43-.89,10.8-1.33,16.14l-.3,4.27-.28,6.41c0,5.5-.73,12.19-.12,17.32,1.34,4.4,2.63,8.62,3.89,12.75,1.65,1.14,4.78.83,7.09,1.31,2.46.35,4.85.81,8.39-.47,6.35-1.77,13.19-3.1,18.95-5.26l15.28-7.93c-.11-5.84-.22-11.72-.33-17.73-.15-2.99-.31-6.03-.46-9.14-.41-5.3-.84-10.79-1.29-16.56-1-10.65-2.26-20.46-3.65-29.18-2.32-14.5-4.99-25.71-7.45-32.94,3.17.36,6.4.73,9.56,1.09,90.57,15.58,221.01,35.86,394.64,59.88,60.58,7.76,119.29,15.28,175.56,22.48,18.27,2.08,35.81,4.08,53.55,6.11-4.98,32.48-9.85,83.79-12.14,161.83l-.16,14.68c.58,4.14,1.69,7.67,2.53,11.53-.65,5.3,6.11,3.31,9.72,4.42,4.02.39,9,1.1,12.22,1.22,4.06-.91,7.94-.81,12.31-3.6l10.01-5.09,20.76-10.66-.31-24.53-.45-14.84-1.27-28.3c-.99-18.2-2.25-34.98-3.66-49.89-2.05-21.82-4.4-39.5-6.63-51.87,23.17,2.64,46.08,5.26,68.07,7.77,23.81-18.85,46.35-36.69,68.12-53.93,15.57,5.11,38.86,10.26,71.57,13.69,2.58.2,5.04.38,7.43.56,4.38.23,8.6.44,12.75.66,4.09-4.75,8.02-9.3,12.06-13.99,3.85-4.63,7.72-9.29,11.81-14.21-1.3-4.56-2.64-9.24-4.03-14.1-.79-2.36-1.61-4.79-2.46-7.32-2.21-6.77-4.55-13.97-7.05-21.61-22.65.48-28.67,2.02-36.64,3.58,6.91-5.6,13.97-11.33,20.49-16.62,36.59-30.06,64.26-53.53,82.01-69.31,6.46,14.48,12.92,28.96,19.12,42.87,6.87,14.46,13.57,28.56,20.14,42.38,6.32,12.5,12.48,24.69,18.54,36.68.4.76.78,1.47,1.18,2.23-.39,21.29-.79,42.79-1.2,64.51.06,17.61.11,34.54.16,51.24,19.97,2.1,39.5,4.15,58.94,6.19l-.32-15.97c2.6-1.21,5.26-2.47,8.66-4.35,1.25-9.29,2.36-17.61,3.34-24.92.87-7.49,1.46-15.72,1.72-24.21.41-25.89-2.5-48.64-6.78-63.7l-3.28-11.53-6.56,3.18-.72.35c-1.01-2.69-2.3-4.96-3.94-6.53,2.52-13.51,4.3-31.98,4.81-51.95.43-33.49-2.87-62.49-7.56-80.97,6.4.92,13.31,1.72,20.89,2.32,2.66.1,5.1.2,7.44.29,4.15.04,8.06.08,11.93.11,3.28-4.18,6.44-8.2,9.81-12.49,3.04-4.03,6.18-8.19,9.59-12.71-2.38-7.06-5.18-15.19-6.67-18.65-2.08-5.33-4.34-11.12-6.76-17.34-4.45.42-8.78.87-12.72,1.34,19.83-13.45,41.5-28.5,65.54-45.68,4.33-3.13,8.41-6.23,12.66-9.36,12.19,3.56,28.52,6.74,50.01,8.46,2.66.1,5.11.2,7.45.29,4.17.04,8.08.07,11.97.11,3.28-4.18,6.44-8.21,9.8-12.5,3.03-4.03,6.17-8.19,9.57-12.71-2.38-7.08-5.17-15.19-6.66-18.65-2.08-5.34-4.34-11.14-6.76-17.36-2.73.26-5.31.54-7.93.82,21.97-17.47,41.98-34.04,59.73-49.28,9.86,3.88,23.75,7.39,42.14,9.23,2.72.11,5.15.2,7.44.29,3.38.04,6.47.08,9.54.11,2.9-3.72,5.66-7.26,8.73-11.19,2.61-3.51,5.38-7.23,8.5-11.42-1.8-5.11-4.68-13.54-6.16-16.98ZM1515,10.84c-.26.88-.52,1.81-.77,2.56-.81.22-2.18.85-3.91,1.78,1.64-1.5,3.4-3.1,4.68-4.34ZM1170.26,61.23c27.55-3.49,54.48-6.91,80.79-10.25l10.16-1.34c2.36-.31,2.05-.3,2.05-.3l.19-.08,1.2-.41,4.86-1.24c-.02.21-.23.56-.67,1.07-15.69,9.64-31.7,19.49-48.26,29.67-36.12,22.62-74.06,46.37-112.83,70.64-21.2,13.51-41.88,26.68-62.69,39.94-3.84-.09-7.99-.17-12.76-.2-16.03.13-35.5.28-58.21.46-12.85.32-26.74.67-41.41,1.03,5.99-2.83,12.25-5.78,18.79-8.86l3.96-1.82c4.08-2.19,8.21-4.4,12.37-6.63,8.37-4.51,16.91-9.11,25.62-13.81,35.21-19.29,73.2-40.1,114.23-62.57,21.27-11.99,42.16-23.76,62.6-35.29ZM973.62,107.57c19.11-9.9,37.89-19.64,56.28-29.17,21.09-2.66,41.76-5.27,62.01-7.83.31-.18,1.45-.52,3.15-.97-28.62,16.6-56.58,32.82-83.25,48.3-48.07,28.4-93.3,55.12-135.5,80.05-3.42-.14-7.16-.25-11.56-.33-13.5.01-29.69.03-48.52.05-8.8.18-18.37.38-28.16.58,20.76-9.47,17.08-6.17,63.66-29.51,37.25-18.7,77.76-39.03,121.89-61.18ZM907.97,93.31c9.7-1.19,19.31-2.37,28.84-3.54l7.59-.95.04-.04.21-.12c.38-.17,1.51-.52,3.54-1.02-27.39,14.69-54.04,29-79.55,42.68-48.74,26.7-94.44,51.74-136.89,75-2.12-.09-4.4-.17-6.89-.24-10.51-.28-24.35-.36-41.06-.25-5.74.09-12.13.2-18.35.3,7.78-3.14,15.91-6.41,24.53-9.89l4.72-1.78,2.1-.77,5.93-2.66c8.97-4.1,18.17-8.3,27.59-12.61,38.34-17.96,80.35-37.64,126.33-59.18,17.41-8.45,34.53-16.77,51.31-24.92ZM801.05,106.38c4.68-.48,10.05-1.39,19.12-3.01.13-.02.15.04.25.04-25.82,13.05-50.81,25.68-74.81,37.81-48.65,25.19-94.05,48.69-135.92,70.37-1.24-.06-2.08-.14-3.45-.2-8.96-.34-20.81-.49-35.2-.48-3.42.04-7.29.09-10.9.13,8.49-3.23,17.35-6.61,26.76-10.19,3.45-1.24,7-2.52,10.64-3.83,9.04-3.89,18.3-7.88,27.8-11.97,38.81-17.19,81.46-36.08,128.37-56.85,16.06-7.4,31.86-14.68,47.35-21.82ZM497.14,205.86c3.42-1.14,6.94-2.31,10.55-3.52,8.26-3.35,16.74-6.78,25.45-10.31,38.18-15.72,81.25-33.87,129.28-54.62,13.67-6.03,27.08-11.95,40.32-17.79-21.76,10.61-43.14,21.03-63.49,30.96-48.05,23.8-92.78,45.96-133.87,66.32-.39-.02-.6-.05-1-.07-7.73-.38-18.01-.59-30.53-.66-1.63.01-3.52.02-5.2.04,9.02-3.27,18.44-6.69,28.49-10.34ZM119.71,422.86c-.56-1.87-1.07-3.96-1.69-5.57-.13-.29-.29-.52-.42-.81,1.25.14,2.51.28,3.76.43-.58,1.53-1.11,3.77-1.66,5.95ZM130.36,387.7l-17.04-2.13-.14-.13.14-.1h-.01s-.02-.05-.02-.05l.02-.04,6.01-2.75c18.39-8.48,36.48-16.82,54.24-25.01,34.95-16.51,68.53-32.38,100.52-47.5,60.62-29.12,114.78-55.99,154.02-76.26,7.17-.58,14.43-1.17,21.33-1.73,10.72-.99,20.29-1.96,29.15-2.91-9.46,4.13-19.02,8.3-29.13,12.72-24.96,11.15-51.82,23.14-80.14,35.79-57.13,26.18-120.11,55.04-185.11,84.83-18.21,8.55-35.88,16.84-53.83,25.27ZM213.55,397.36l-19.78-2.45-4.93-.61c-.49-.07-.29-.06-.29-.06l-.06-.06.11-.11h-.01c1.09-.55-4.31,1.95,9.45-4.57,18.93-9.08,37.56-18.01,55.85-26.78,36.08-17.67,70.78-34.67,103.84-50.87,62.83-31.24,119.53-60.24,161.17-82.31,14.57-1.14,28.59-2.24,42.12-3.3,8.14-.83,16.04-1.63,24.03-2.45-35.26,16.52-74.69,35.01-117.26,54.96-58.75,28.4-123.19,59.55-189.65,91.67-19.14,9.45-37.78,18.65-56.65,27.97-1.7-.23-5.08-.66-7.94-1.03ZM311.22,408.71c-11.15-1.39-22.21-2.77-33.17-4.13l.07-.11h0s0-.06,0-.06l13.15-6.57c19.44-9.78,38.58-19.4,57.38-28.86,37.15-19.04,72.91-37.38,107.01-54.86,64.98-33.75,124.2-65.28,168.2-89.46,23.05-1.77,45.27-3.48,65.94-5.07,5.98-.62,11.96-1.24,17.86-1.86.46-.06.9-.11,1.36-.17-37.67,18.96-79.74,40.13-124.87,62.84-60.14,31.05-125.62,64.86-193.13,99.72-20.08,10.56-39.64,20.85-59.42,31.25-6.39-.83-13.31-1.74-20.38-2.66ZM429.29,422.42c-14.42-1.77-28.74-3.53-42.93-5.27l.03-.11c65.8-35.51,128.24-69.22,185.27-99.99,34.3-19.04,66.92-37.16,97.52-54.14,27.57-15.68,53.2-30.25,76.94-43.75,11.81-.85,23.47-1.68,34.79-2.49,11.43-.88,22.58-1.75,33.44-2.59,7.13-.68,14.07-1.34,20.82-1.98,7.42-.81,14.64-1.64,21.36-2.46-1.25.74-2.55,1.5-3.79,2.24-39.08,21.5-82.37,45.31-128.55,70.71-61.03,34.28-127.1,71.4-195.11,109.6-20.81,11.88-41.11,23.46-61.6,35.16-12-1.55-24.95-3.21-38.18-4.92ZM575.11,439.36c-17.17-2.09-34.23-4.17-51.12-6.23-6.13-.73-3.48-.44-4.1-.52v-.04s.04-.03.04-.03c67.76-39.52,132.22-77.11,191.35-111.6,35.02-20.93,68.43-40.89,99.9-59.7,28.57-17.42,55.29-33.71,80.18-48.88,20.87-1.45,41.27-2.86,60.74-4.21,19.19-1.74,37.18-3.37,54.01-4.89,6.87-.73,13.56-1.47,19.89-2.22-5.17,3.29-10.54,6.71-15.67,9.99,2.33-.13,4.56-.25,6.89-.38-37.9,23.44-78.78,48.72-122.11,75.52-60.95,38.32-126.36,79.44-193.56,121.69-21.03,13.39-41.59,26.5-62.3,39.69-20.33-2.6-41.91-5.36-64.15-8.2ZM771.18,513.59c-.27-1.87-.55-3.62-.84-5.34.72.08,1.46.16,2.18.25-.46,1.6-.89,3.33-1.34,5.09ZM786.88,662.98l-.05-.02c-.43.2.62-.33-.99.47.45-2.49.85-5.33,1.26-8.13-.08,2.62-.15,5.05-.22,7.69ZM792,543.43c-.43,5.22-.8,11.35-1.19,17.26-1.04-20.27-3.03-37.79-5.7-50.75,3.53.4,7.14.81,10.64,1.21-1.37,7.83-2.63,18.72-3.75,32.28ZM1007.3,449.74s0,.09,0,.13h-5.82c-8.05.09-15.71.34-22.87.75-7.28.41-14.02.98-20.2,1.66.08-.06.17-.14.25-.2,4.46-3.62,8.54-6.93,12.89-10.45,5.57,3.89,15.45,6.89,26.29,7.98,3.41.24,6.24.24,9.46.12ZM1176.48,366.64c-7.86-20.58-16.96-43.28-26.81-66.78l-.43-1.01c7.79-4.42,16.57-9.61,26.5-15.69,2.28.91,4.49,1.83,7.3,2.71-2.85,17-5.15,46.08-6.56,80.77ZM1191.29,461.31c-.29-.91-.58-1.85-.87-2.77.41.05.81.11,1.25.13,0,.05.08.29.06.32-.15.13-.3,1.11-.44,2.32ZM1203.25,490.34c-1,10.07-2,20.22-3.02,30.52l-1.31,17.48c-.41,4.08-.8,2.59-1.15,3.51-.46-.27-1.37-.58-.87-.7.37-.05.18-.16-.59-.34.17-.07.91-.07.72-.17v-.14s.18-.21.18-.21c0,0,.04.2.05-.25l.03-4.55c-.03-6.05-.06-11.98-.1-17.91l-.41-17.36-.31-8.44c-.11-.8-.24-.54-.38-.97-.27-.57-.58-1.44-.93-2.7-.27-.88-.96-4.04-.74-3.11l.54,1.3c.68.65,1.14-.64,6.42-.89l2.56-.12c-.23,1.8-.47,3.18-.69,5.06ZM1194.6,288.97c1.44.34,2.92.66,4.45.98-.74,3.88-1.47,8.13-2.19,12.77-.74-5.05-1.5-9.62-2.25-13.75ZM1198.18,269.09c1.94-1.24,3.87-2.47,5.88-3.76.95.82,1.67,1.7,2.93,2.4-3.11.4-5.95.88-8.81,1.36ZM1255.97,197.85c-39.14,26.44-89.39,61.16-152.1,105.42-33.74,24.02-70.66,50.31-110.92,78.98-39.21,28.31-81.63,58.93-127.42,91.98-33.44-4.25-68.58-8.71-105.25-13.37-19.34-2.34-38.53-4.67-57.56-6.97l-13.89-1.66-.03-.04.03-.03c68.58-44.48,134.01-86.92,194.37-126.06,35.16-23.27,68.81-45.54,100.68-66.63,26.84-18.06,52.06-35.03,76.01-51.14,40.53-2.21,80.47-4.4,119.07-6.51,26.92-1.69,52.8-3.32,78.16-4.91-.4.31-.77.62-1.16.93Z"/>
  </g>
</svg>