<?xml version="1.0" encoding="UTF-8"?>
<svg id="Ebene_1_Kopie" data-name="Ebene 1 Kopie" xmlns="http://www.w3.org/2000/svg" viewBox="0 0 114.73 114.73">
  <defs>
    <style>
      .cls-1 {
        fill: #3b0101;
      }
    </style>
  </defs>
  <path class="cls-1" d="M93.32,43.13c-.12-.34-.2-.5-.28-.7-.3.03-.57.07-.79.11.38-.36.72-.69.98-.95-.03-.23-.06-.4-.08-.52l-.02-.07s0-.05-.03-.04c-.04-.06-.08-.06-.12.02,0,0,0,.02,0,.03-.09.05-.22.12-.39.23-1.18.76-2.69,1.76-4.55,3.03-.94.65-1.96,1.35-3.05,2.11-1.07.75-2.21,1.55-3.42,2.41-1.94.07-4.03.14-6.3.22l-.88.04h0s0-.01,0-.01c-1,.64,2.47-1.6,4.29-2.8.7-.47,1.37-.91,2.04-1.36.32-.19.61-.37.94-.57.97-.61,1.97-1.24,2.99-1.87,1.8-.3,3.43-.57,4.84-.81,1.48-.26,2.62-.49,3.34-.65l.16-.04c.49-.18-.24-.2-1.86-.1-.86.07-1.88.14-3.04.23-.47.04-.98.09-1.49.14.12-.07.23-.14.35-.22-2.65.31-5.42.63-8.24.97-.88.11-1.75.21-2.6.32-.01,0-.03.01-.04.02-1.28.15-2.58.3-3.89.46-.91.11-1.81.22-2.7.33,0,0-.02,0-.02.01-.75.09-1.51.18-2.27.27-1.17.14-2.33.28-3.46.42h0c-.09.01-.17.02-.25.03-1.62.2-3.22.39-4.79.59-.01,0-.03.01-.04.02-.59.07-1.18.14-1.79.21-.9.11-1.78.22-2.64.32-1.31.6-2.57,1.18-3.8,1.74-1.18.55-2.31,1.09-3.4,1.6-2.36,1.13-4.54,2.17-6.53,3.12-.69.29-1.42.59-2.2.91-1.14.48-2.36,1.01-3.66,1.56-2.62,1.15-5.52,2.42-8.52,3.74-1.68.76-3.34,1.5-4.96,2.24,1.26.14,2.51.29,3.73.43,0,0,0,0-.01,0,.36.04.7.08,1.05.12-.12.43-.24.99-.34,1.72-.06.4-.11.84-.15,1.32-.02.26-.04.51-.06.76v.2s-.03.3-.03.3c0,.26-.03.58,0,.82.06.21.12.41.18.6.08.05.23.04.34.06.12.02.23.04.4-.02.3-.08.62-.15.9-.25l.72-.38c0-.28-.01-.56-.02-.84,0-.14-.01-.29-.02-.43-.02-.25-.04-.51-.06-.78-.05-.5-.11-.97-.17-1.38-.11-.69-.24-1.22-.35-1.56.15.02.3.03.45.05,4.29.74,10.47,1.7,18.69,2.84,2.87.37,5.65.72,8.32,1.07.87.1,1.7.19,2.54.29-.24,1.54-.47,3.97-.58,7.67v.7c.02.2.07.36.11.55-.03.25.29.16.46.21.19.02.43.05.58.06.19-.04.38-.04.58-.17l.47-.24.98-.51v-1.16s-.04-.7-.04-.7l-.06-1.34c-.05-.86-.11-1.66-.17-2.36-.1-1.03-.21-1.87-.31-2.46,1.1.13,2.18.25,3.22.37,1.13-.89,2.2-1.74,3.23-2.55.74.24,1.84.49,3.39.65.12,0,.24.02.35.03.21.01.41.02.6.03.19-.22.38-.44.57-.66.18-.22.37-.44.56-.67-.06-.22-.12-.44-.19-.67-.04-.11-.08-.23-.12-.35-.1-.32-.22-.66-.33-1.02-1.07.02-1.36.1-1.74.17.33-.27.66-.54.97-.79,1.73-1.42,3.04-2.54,3.88-3.28.31.69.61,1.37.91,2.03.33.68.64,1.35.95,2.01.3.59.59,1.17.88,1.74.02.04.04.07.06.11-.02,1.01-.04,2.03-.06,3.06,0,.83,0,1.64,0,2.43.95.1,1.87.2,2.79.29l-.02-.76c.12-.06.25-.12.41-.21.06-.44.11-.83.16-1.18.04-.35.07-.74.08-1.15.02-1.23-.12-2.3-.32-3.02l-.16-.55-.31.15-.03.02c-.05-.13-.11-.24-.19-.31.12-.64.2-1.51.23-2.46.02-1.59-.14-2.96-.36-3.84.3.04.63.08.99.11.13,0,.24,0,.35.01.2,0,.38,0,.57,0,.16-.2.31-.39.46-.59.14-.19.29-.39.45-.6-.11-.33-.25-.72-.32-.88-.1-.25-.21-.53-.32-.82-.21.02-.42.04-.6.06.94-.64,1.97-1.35,3.1-2.16.21-.15.4-.3.6-.44.58.17,1.35.32,2.37.4.13,0,.24,0,.35.01.2,0,.38,0,.57,0,.16-.2.3-.39.46-.59.14-.19.29-.39.45-.6-.11-.34-.24-.72-.32-.88-.1-.25-.21-.53-.32-.82-.13.01-.25.03-.38.04,1.04-.83,1.99-1.61,2.83-2.33.47.18,1.13.35,2,.44.13,0,.24,0,.35.01.16,0,.31,0,.45,0,.14-.18.27-.34.41-.53.12-.17.25-.34.4-.54-.09-.24-.22-.64-.29-.8ZM92.88,41.28s-.02.09-.04.12c-.04.01-.1.04-.19.08.08-.07.16-.15.22-.21ZM76.55,43.67c1.3-.17,2.58-.33,3.83-.49l.48-.06c.11-.01.1-.01.1-.01h0s.06-.02.06-.02l.23-.06s-.01.03-.03.05c-.74.46-1.5.92-2.29,1.41-1.71,1.07-3.51,2.2-5.34,3.35-1,.64-1.98,1.26-2.97,1.89-.18,0-.38,0-.6,0-.76,0-1.68.01-2.76.02-.61.02-1.27.03-1.96.05.28-.13.58-.27.89-.42l.19-.09c.19-.1.39-.21.59-.31.4-.21.8-.43,1.21-.65,1.67-.91,3.47-1.9,5.41-2.96,1.01-.57,2-1.13,2.97-1.67ZM67.24,45.86c.91-.47,1.79-.93,2.67-1.38,1-.13,1.98-.25,2.94-.37.01,0,.07-.02.15-.05-1.36.79-2.68,1.55-3.94,2.29-2.28,1.35-4.42,2.61-6.42,3.79-.16,0-.34-.01-.55-.02-.64,0-1.41,0-2.3,0-.42,0-.87.02-1.33.03.98-.45.81-.29,3.02-1.4,1.76-.89,3.68-1.85,5.77-2.9ZM64.13,45.18c.46-.06.91-.11,1.37-.17l.36-.05h0s.01,0,.01,0c.02,0,.07-.02.17-.05-1.3.7-2.56,1.37-3.77,2.02-2.31,1.26-4.47,2.45-6.48,3.55-.1,0-.21,0-.33-.01-.5-.01-1.15-.02-1.94-.01-.27,0-.57,0-.87.01.37-.15.75-.3,1.16-.47l.22-.08.1-.04.28-.13c.43-.19.86-.39,1.31-.6,1.82-.85,3.81-1.78,5.98-2.8.82-.4,1.64-.79,2.43-1.18ZM59.06,45.8c.22-.02.48-.07.91-.14,0,0,0,0,.01,0-1.22.62-2.41,1.22-3.54,1.79-2.3,1.19-4.46,2.31-6.44,3.33-.06,0-.1,0-.16,0-.42-.02-.99-.02-1.67-.02-.16,0-.35,0-.52,0,.4-.15.82-.31,1.27-.48.16-.06.33-.12.5-.18.43-.18.87-.37,1.32-.57,1.84-.81,3.86-1.71,6.08-2.69.76-.35,1.51-.7,2.24-1.03ZM44.67,50.52c.16-.05.33-.11.5-.17.39-.16.79-.32,1.21-.49,1.81-.74,3.85-1.6,6.12-2.59.65-.29,1.28-.57,1.91-.84-1.03.5-2.04,1-3.01,1.47-2.28,1.13-4.4,2.18-6.34,3.14-.02,0-.03,0-.05,0-.37-.02-.85-.03-1.45-.03-.08,0-.17,0-.25,0,.43-.16.87-.32,1.35-.49ZM26.79,60.8c-.03-.09-.05-.19-.08-.26,0-.01-.01-.02-.02-.04.06,0,.12.01.18.02-.03.07-.05.18-.08.28ZM27.29,59.13l-.81-.1h0s0-.01,0-.01h0s0,0,0,0h0s.28-.13.28-.13c.87-.4,1.73-.8,2.57-1.18,1.66-.78,3.25-1.53,4.76-2.25,2.87-1.38,5.44-2.65,7.3-3.61.34-.03.68-.06,1.01-.08.51-.05.96-.09,1.38-.14-.45.2-.9.39-1.38.6-1.18.53-2.45,1.1-3.8,1.7-2.71,1.24-5.69,2.61-8.77,4.02-.86.41-1.7.8-2.55,1.2ZM31.23,59.59l-.94-.12-.23-.03s-.01,0-.01,0h0s0,0,0,0h0c.05-.03-.2.09.45-.22.9-.43,1.78-.85,2.65-1.27,1.71-.84,3.35-1.64,4.92-2.41,2.98-1.48,5.66-2.85,7.63-3.9.69-.05,1.35-.11,2-.16.39-.04.76-.08,1.14-.12-1.67.78-3.54,1.66-5.55,2.6-2.78,1.35-5.84,2.82-8.98,4.34-.91.45-1.79.88-2.68,1.32-.08-.01-.24-.03-.38-.05ZM35.86,60.12c-.53-.07-1.05-.13-1.57-.2h0s0,0,0,0h0s.62-.31.62-.31c.92-.46,1.83-.92,2.72-1.37,1.76-.9,3.45-1.77,5.07-2.6,3.08-1.6,5.88-3.09,7.97-4.24,1.09-.08,2.14-.16,3.12-.24.28-.03.57-.06.85-.09.02,0,.04,0,.06,0-1.78.9-3.78,1.9-5.91,2.98-2.85,1.47-5.95,3.07-9.15,4.72-.95.5-1.88.99-2.81,1.48-.3-.04-.63-.08-.97-.13ZM41.45,60.77c-.68-.08-1.36-.17-2.03-.25h0c3.12-1.69,6.07-3.28,8.78-4.74,1.62-.9,3.17-1.76,4.62-2.56,1.31-.74,2.52-1.43,3.64-2.07.56-.04,1.11-.08,1.65-.12.54-.04,1.07-.08,1.58-.12.34-.03.67-.06.99-.09.35-.04.69-.08,1.01-.12-.06.03-.12.07-.18.11-1.85,1.02-3.9,2.15-6.09,3.35-2.89,1.62-6.02,3.38-9.24,5.19-.99.56-1.95,1.11-2.92,1.67-.57-.07-1.18-.15-1.81-.23ZM48.36,61.58c-.81-.1-1.62-.2-2.42-.29-.29-.03-.16-.02-.19-.02h0s0,0,0,0c3.21-1.87,6.26-3.65,9.06-5.29,1.66-.99,3.24-1.94,4.73-2.83,1.35-.83,2.62-1.6,3.8-2.32.99-.07,1.95-.14,2.88-.2.91-.08,1.76-.16,2.56-.23.33-.03.64-.07.94-.1-.24.16-.5.32-.74.47.11,0,.22-.01.33-.02-1.8,1.11-3.73,2.31-5.78,3.58-2.89,1.82-5.99,3.76-9.17,5.76-1,.63-1.97,1.26-2.95,1.88-.96-.12-1.99-.25-3.04-.39ZM57.65,65.09c-.01-.09-.03-.17-.04-.25.03,0,.07,0,.1.01-.02.08-.04.16-.06.24ZM58.39,72.17h0s.03-.02-.05.02c.02-.12.04-.25.06-.39,0,.12,0,.24-.01.36ZM58.63,66.51c-.02.25-.04.54-.06.82-.05-.96-.14-1.79-.27-2.4.17.02.34.04.5.06-.06.37-.12.89-.18,1.53ZM68.83,62.07s0,0,0,0h-.28c-.38,0-.74.02-1.08.04-.34.02-.66.05-.96.08,0,0,0,0,.01,0,.21-.17.4-.33.61-.5.26.18.73.33,1.25.38.16.01.3.01.45,0ZM76.85,58.13c-.37-.97-.8-2.05-1.27-3.16l-.02-.05c.37-.21.78-.46,1.26-.74.11.04.21.09.35.13-.14.81-.24,2.18-.31,3.83ZM77.55,62.62s-.03-.09-.04-.13c.02,0,.04,0,.06,0,0,0,0,.01,0,.02,0,0-.01.05-.02.11ZM78.11,63.99c-.05.48-.09.96-.14,1.45l-.06.83c-.02.19-.04.12-.05.17-.02-.01-.07-.03-.04-.03.02,0,0,0-.03-.02,0,0,.04,0,.03,0h0s0-.02,0-.02c0,0,0,0,0-.01v-.22c0-.29,0-.57,0-.85l-.02-.82v-.4s-.03-.03-.03-.05c-.01-.03-.03-.07-.04-.13-.01-.04-.05-.19-.04-.15l.03.06s.05-.03.3-.04h.12c-.01.08-.02.14-.03.23ZM77.7,54.45c.07.02.14.03.21.05-.03.18-.07.39-.1.6-.04-.24-.07-.46-.11-.65ZM77.87,53.51c.09-.06.18-.12.28-.18.04.04.08.08.14.11-.15.02-.28.04-.42.06ZM80.61,50.14c-1.85,1.25-4.23,2.9-7.2,4.99-1.6,1.14-3.35,2.38-5.25,3.74-1.86,1.34-3.87,2.79-6.04,4.36-1.58-.2-3.25-.41-4.99-.63-.92-.11-1.83-.22-2.73-.33l-.66-.08h0s0,0,0,0c3.25-2.11,6.35-4.12,9.21-5.97,1.67-1.1,3.26-2.16,4.77-3.16,1.27-.86,2.47-1.66,3.6-2.42,1.92-.1,3.81-.21,5.64-.31,1.28-.08,2.5-.16,3.7-.23-.02.01-.04.03-.06.04Z"/>
</svg>