<?xml version="1.0" encoding="UTF-8"?>
<svg id="Ebene_1_Kopie" data-name="Ebene 1 Kopie" xmlns="http://www.w3.org/2000/svg" viewBox="0 0 1491.73 765.93">
  <defs>
    <style>
      .cls-1 {
        fill: #3b0101;
      }
    </style>
  </defs>
  <path class="cls-1" d="M1490.04,437.66c-.37-40.41-.74-80.36-1.11-119.7-4.08-.12-8.05-.24-12.12-.36-25.52-20.76-76.23-59.26-144.55-109.95-2.32-1.71-4.83-3.55-7.18-5.29,1.45-5.45,2.79-13.2,3.96-22.94,1.34-11.17,2.48-24.76,3.34-39.82l1.09-23.58.63-30.24c.01-6.82.03-13.55.04-20.22-6.14.04-12.03.09-18.04.13l.85-2.14-16.35-6.51c-2.13-.85-4.46-1.43-6.87-1.69-4.28-.24-8.27.63-11.7,2.22l-15.66,7.29.71,1.55c-4.64.1-9.29.2-13.95.3-.03,35.05.8,41.3,1.68,55.32.85,11.73,1.93,22.04,3.15,30.93-17.24-12.69-34.95-25.72-53.42-39.31-48.76-35.44-101.33-73.64-156.38-113.65-63.69,12.88-130.45,26.38-198.51,40.15-111.75,23.4-218.66,45.78-318.64,66.72-49.8,10.74-97.85,21.1-143.89,31.03-22.94,5.04-45.38,9.97-67.29,14.77-10.93,2.43-21.73,4.83-32.39,7.2l-15.88,3.58-9.04,2.11c-5.5,1.43-11.07,4.79-14.7,7.82l1.27-2.01c-28.27,35.68-61.15,65.32-91.67,91.67-30.71,26.35-59.92,49.38-86.44,69.73-23.31,17.65-45.78,34.67-62.91,47.64l-8.07,6.11,9.5,1.46c5.21.8,9.64,1.44,13.68,1.99-3.36,118.91-6.57,233.04-9.62,341.06,145.03,6.49,279.17,12.49,399.73,17.89,115.81,4.5,218.46,8.48,305.48,11.86,121.2,3.9,226.52,5.93,135.37-1.65-82.55-6.5-191.69-14.4-328.81-23.54-22.51-1.41-46.05-2.89-70.06-4.4,1.62-6.71,3.11-17.1,4.39-30.32,1.34-13.79,2.48-30.56,3.34-49.14.36-9.6.72-19.29,1.09-29.09.21-12.87.42-25.82.64-38.87l.03-14.68c-20.15.05-39.74.1-58.94.15.13,11.88.25,23.61.37,35.26.19,6.48.39,12.9.58,19.29.58,12.02,1.15,23.85,1.71,35.64,1.37,22.34,3.15,41.67,5.17,57,.69,4.49,1.47,8.71,2.29,12.3-109.81-6.9-234.33-14.71-374.34-23.5,3.02-80.21,6.31-167.67,9.81-260.61l.94-27.01.45-13.2.04-.2c12.64-1.15,25.02-2.29,37.59-3.43.16,6.37.33,12.77.51,19.38.15,4.19.31,5.58.48,7.35l.53,5.31c.55,5.12,1.24,9.78,1.92,14.46.16,8.38,1.44,15.96,3.51,22.3-.55-.02-1.12-.09-1.67-.09l-14.87-.06-.24,15.34c-.03,1.9.04,3.77.18,5.6l1.3,16.19,13.8-1.1c13.46-1.07,24.5-6.51,30.51-11.6.2-.09.4-.18.6-.27,4.12.47,8.62.94,13.86,1.37,2.47-34.86,4.16-43.52,4.66-75.75,0-8,0-15.74.01-23.43,119.5-10.91,235.62-21.52,346.2-31.61,137.79-13.52,267.09-26.21,384.99-37.78.69,56.92,1.34,110.72,1.94,160.66.98,53.03,1.87,101.55,2.67,145.12,2.37,92.98,5.78,173.73,8.64,103.62,1.34-48.15,2.98-106.6,4.91-175.91,1.28-67.67,2.76-145.86,4.44-235.22,107.94,4.64,232.44,9.99,373.33,16.05-2.86.63-5.79,1.24-8.21,1.98l-8.73,2.65c-3.7-.19-7.35-.38-11.07-.58-11.91-.45-23.62-.89-35.19-1.33.15,16.27.29,32.12.43,47.84.33,10.09.65,20.02.97,29.92,1.1,21.11,2.19,41.96,3.28,62.69l26.76-1.57,14.26-1.73c1.86-.29,3.68-.6,5.44-.92,2.24,4.45,4.4,6.06,5.71.86l.38-2.12c.91-.21,1.77-.42,2.58-.64,2.77.63,5.56,1.27,8.73,1.88-4.6,1.26-8.56,2.5-11.18,3.66l-.8.49c-7.75,7.76,43.54,14.09,102.08,15.15l3.56.03,15.28.11v-15.38c0-.63,0-1.23,0-1.85,6.62.9,16.08,1.74,32.7,2.5.9-17.14,1.82-34.52,2.75-52.08.71-15.12,1.21-31.44,1.44-48.22,0-11.85,0-23.45.01-34.9-15.25.18-29.88.36-44.67.53l.79-2.6-7.77-2.55c29.12,1.04,58.03,2.06,86.48,3.07.82,66.91,1.62,132.13,2.4,195.14,1.14,63.12,2.23,123.96,3.28,181.97-132.7,7.88-250.84,14.89-347.03,20.6-98.46,6.46-172.8,12.08-215.04,16.05l-6.92.78c-26.47,4.21,27.55,4.78,134.03,2.65,53.84-1.4,120.03-3.12,195.58-5.09,80.28-2.7,170.36-5.74,266.76-8.99-.53-98.73-1.1-204.5-1.69-312.99ZM429.97,729.59c3.92-10.71,7.53-26.44,9.83-47.43,2.33,21.23,5.06,37.82,7.6,48.53-5.81-.36-11.54-.73-17.43-1.1ZM436.04,599.43c.63.08.18.13-.41.16l.2-.14.21-.02ZM434.45,599.59v.02c-.34,0-.54-.01-.2-.03h.2ZM1303.59,96.04c.08-6.12.65,16.36,1.57,28.32.33,4.9.76,9.49,1.17,14.1-1.25-.67-2.75-1.16-4.16-1.73.68-15.95-2.33-30.49-6.35-40.93,2.62.08,5.25.16,7.77.24ZM1297.61,163.77c4.11-.62,7.79-1.82,11.06-3.34.05.43.1.92.15,1.34,1.72,13.2,3.7,24.13,5.66,32.8-7.17-5.28-14.47-10.65-21.94-16.15,1.84-4.01,3.53-9.04,5.08-14.64ZM1269.43,157.1c1.31,1.17,2.78,2.22,4.66,3.15.31,1.89.71,3.61,1.08,5.37-2.2-1.62-4.4-3.24-6.62-4.87.3-1.23.59-2.33.89-3.65ZM124.85,309.32c43.14-32.28,93.87-68.88,141.67-124.3l-7.54-6.07,8.69,4.37.05.04.09.09.17.18.31.37.49.75c.27.49.42.95.5,1.3.49.67-.65,1.07,1.12.67l9.93-1.92c6.67-1.29,13.41-2.6,20.23-3.92,13.68-2.64,27.66-5.34,41.95-8.09,28.66-5.56,58.54-11.36,89.64-17.4,62.45-12.33,129.76-25.62,202-39.89,73.44-15.1,145.17-29.85,214.53-44.11,62.51-13.37,122.66-26.23,180.35-38.57-14.22,16.52-41.62,57.07-71.21,102.83-34.36,54.74-61.38,104.1-75.62,135.81-5.64,13.36-9.44,25.68-1.23,18.1,17.38-17.28,44.97-50.36,80.67-102.92,43.94-66.17,72.88-130.74,76.98-155.87,1.04-.22,2.16-.46,3.2-.68,50.74,35.11,98.86,68.42,143.7,99.45,46.02,31.37,88.6,60.4,127.03,86.6,65.32,44.12,117.47,78.62,152.48,101.09-53.7-1.62-106.35-3.2-157.74-4.75-104.18-5.65-249.04-12.5-418.18-19.86l-13.28-.58-.07,9.58c-18.32,1.58-36.8,3.17-55.65,4.8-71,2.25-173.35,7.65-309.89,17.91-171.53,13.43-326.87,32.28-420.12,46.17-21.48,1.95-43.4,3.94-64.57,5.87,28.85-18.06,61.92-39.88,99.33-67.07ZM14.91,383.31c-.11-.03-.22-.06-.34-.08,2.89-1.78,5.97-3.74,8.96-5.6-.04,1.33-.07,2.61-.11,3.94-2.44.47-5.1.97-7.18,1.41l-1.34.34ZM1328.65,425.09c.02-2.2-.09-4.29-.15-6.42,3.67-.89,7.01-1.91,10.03-3.3.43,4.28.94,8.36,1.51,12.31-3.36-1.1-7.21-1.97-11.4-2.59ZM1306.94,376.29c.36.08.84.14,1.21.22-1.86,3.91-3.56,8.87-5.13,14.4-4.96.67-9.58,1.63-13.57,2.97.15-2.73.3-5.41.45-8.16l.49-13.64c4.81,1.44,10.28,2.86,16.54,4.2ZM1337.33,382.73c-.16.21-.33.33-.33.33,0,0-.05-.11-.06.14v4.34c.02,1.95.16,3.78.21,5.7-3.57-1.05-7.53-1.91-11.78-2.49-.93-4.36-2-8.27-3.22-11.74,1.8.29,3.25.64,5.14.92l5.75.81c1.79.26,4.74.53,4.15.72.37.41.44.78.28,1.1l-.13.18ZM1288.27,413.42c2.98,1.5,6.3,2.9,10.14,4.1-.14,2.93-.18,5.81-.06,8.64-4.22.93-8,2.13-11.35,3.54.46-5.04.87-10.59,1.27-16.28ZM1285.2,446.63c4.68,2.6,10.63,4.84,17.87,6.45.95,2.94,1.97,5.6,3.05,8.02-8.74.81-16.68,1.74-23.89,2.79,1.05-4.43,2.06-10,2.97-17.26ZM1325.62,453.35c7.03-1.47,13.04-4.08,17.74-7.07,1.02,4.58,2.1,8.66,3.2,12.3-7.89.28-15.3.69-22.55,1.16.58-1.98,1.12-4.08,1.61-6.39ZM1251.61,468.17l-12.15-1.8c-2.43-.59-4.49-1.16-6.14-1.72l.98-4.39c.32-1.42.63-1.61.94-5.87.57-7.03,1.14-14.1,1.72-21.25,1.07-14.97,1.98-31.53,2.66-49.72.12-6.1.22-7.91.28-8.36-2.4-.08-1.96-.07,0-.04.03-.14.05-.09.07,0,5.09.09,19.22.36,22.57.11.06.07.11.09.16.18l.29.53.31,4.61c.47,5.95.94,11.97,1.42,18.06,1.03,11.59,2.21,22.22,3.46,31.68,1.97,14.91,4.12,26.74,6.13,34.91-1.71.29-3.83.54-5.42.84-1.47.36-3.01.73-4.6,1.12l-7.88,1.91c-1.62-.27-3.08-.54-4.8-.81ZM1379.99,378.83c.2-.31.38-.52.56-.64.5.19.88.37,1.13.54.43.09-.45.17.97.25l5.47.23,5.17.15.05.11-.03.13c-.03.22-.01-.41.05.42l.33,15.25c.45,9.4.91,18.97,1.38,28.86.7,8.5,1.42,17.22,2.15,26.19.82,10.58,1.73,9.19,2.69,14.26-1.44.66-3.37,1.34-5.68,2.04-2.47.48-4.89.95-7.32,1.42v-10.16s-15.26.1-15.26.1c-.96,0-1.81.06-2.77.07,1.78-8.5,3.57-18.06,5.27-29.99,1.18-9.59,2.36-19.2,3.55-28.89l1.61-16.57c.27-3.97.46-3.27.66-3.76Z"/>
  <path class="cls-1" d="M1303.59,96.04h0s0,.02,0,.07v-.07Z"/>
  <path class="cls-1" d="M1071.37,203.68c2.73.27,5.39.53,7.99.78,2.26.25,10.39.49,10.23.71,3.71.45,15.24.85,22.37,1.2,7.31.15,13.39.27,19.15.39-4.39-12.69-9.25-25.39-13.87-36.48-2.85-7.05-2.62-5.13-5.53-11.94-1.93-3.96-4.02-8.26-6.25-12.84-6.45.77-12.08,1.62-16.79,2.52-4.48.9-6.04,1.84-8.79,2.8-4.81,1.92-8.49,3.9-10.76,5.69l-.45.49c-.06.11-.02.21-.06.31-.43.4-.88.74-1.1,1.67-.68,4.1-1.04,9.19-.92,15.27.06,3.04.24,6.33.56,9.86.93,5.3,2.43,12.11,4.23,19.57ZM1088.28,169.75c-.11.63-.23,1.13-.37,1.5-.19.25-.45.19.45,3.35.6,2.92-.33,1.16-.34,1.64h-.02c.42.06-.7.27,1.94.61.16.08,1.45.18.59.28-.64.1-3.88.21-1.47.32,1.76.11,1.44.24,1.16.36l-.64.41c-.36,2.54-5.03-6.11-9.07-12.09,1.37.4,2.4.86,3.97,1.23,4.19.9,2.91,1.71,3.82,2.39Z"/>
  <path class="cls-1" d="M990.46,371.5s0,0-.03,0c.01.07.02.13.03,0Z"/>
  <path class="cls-1" d="M990.42,371.46s-.03,0-.07,0c0,.02,0,.02,0,.04.06,0,.02,0,.08,0v-.04Z"/>
  <path class="cls-1" d="M1119.51,339.88c-10.22-3.36-26.33-5.88-43.66-6.83-24.99-.96-46.9,1.75-60.94,6.01l-8.73,2.65c-3.7-.19-7.35-.38-11.07-.58-11.91-.45-23.62-.89-35.19-1.33.15,16.27.29,32.12.43,47.84.33,10.09.65,20.02.97,29.92,1.1,21.11,2.19,41.96,3.28,62.69l26.76-1.57,14.26-1.73c1.86-.29,3.69-.6,5.44-.92,2.24,4.45,4.4,6.06,5.71.86l.38-2.12c.91-.21,1.77-.42,2.58-.64,2.77.63,5.56,1.27,8.73,1.88-4.6,1.26-8.56,2.5-11.18,3.66l-.8.49c-7.75,7.75,43.54,14.09,102.08,15.15l3.56.03,15.28.11v-15.38c0-.63,0-1.23,0-1.86,6.63.9,16.08,1.74,32.7,2.5.9-17.14,1.82-34.52,2.75-52.08.71-15.12,1.21-31.44,1.44-48.22,0-11.85,0-23.45.01-34.9-15.25.18-29.88.36-44.67.53l.79-2.6-10.89-3.57ZM1079.1,421.53c.02-2.2-.09-4.29-.15-6.42,3.67-.89,7.01-1.91,10.03-3.3.43,4.28.94,8.36,1.51,12.31-3.36-1.1-7.21-1.97-11.4-2.59ZM1057.39,372.73c.36.08.84.14,1.21.22-1.86,3.91-3.57,8.87-5.13,14.4-4.96.67-9.58,1.63-13.56,2.97.15-2.73.3-5.41.45-8.16l.49-13.64c4.81,1.44,10.28,2.86,16.54,4.2ZM1087.78,379.17c-.16.21-.33.33-.33.33,0,0-.05-.11-.06.14v4.34c.02,1.95.15,3.78.21,5.7-3.57-1.05-7.53-1.91-11.78-2.49-.93-4.36-2-8.27-3.22-11.74,1.8.29,3.25.64,5.14.92l5.75.81c1.79.26,4.74.53,4.15.72.37.41.44.78.28,1.1l-.13.18ZM1038.72,409.86c2.98,1.5,6.3,2.9,10.14,4.1-.14,2.93-.18,5.81-.06,8.64-4.22.93-7.99,2.13-11.34,3.54.46-5.04.87-10.59,1.27-16.28ZM1035.65,443.07c4.67,2.6,10.63,4.84,17.87,6.45.95,2.94,1.97,5.6,3.05,8.02-8.74.81-16.68,1.74-23.89,2.79,1.05-4.43,2.06-10,2.97-17.26ZM1076.07,449.78c7.03-1.47,13.04-4.08,17.74-7.07,1.02,4.58,2.1,8.66,3.2,12.3-7.89.28-15.3.69-22.55,1.16.58-1.99,1.12-4.08,1.61-6.39ZM1002.06,464.61l-12.15-1.8c-2.43-.59-4.49-1.16-6.14-1.72l.98-4.39c.32-1.42.63-1.61.94-5.87.57-7.03,1.14-14.1,1.72-21.25,1.07-14.96,1.98-31.53,2.66-49.72.12-6.1.22-7.91.28-8.36-2.41-.08-1.96-.07,0-.04.03-.14.05-.09.07,0,5.09.09,19.22.36,22.57.11.06.07.11.09.16.18l.29.53.31,4.61c.47,5.95.94,11.97,1.42,18.06,1.03,11.59,2.21,22.22,3.46,31.68,1.97,14.91,4.12,26.74,6.13,34.92-1.71.29-3.83.54-5.42.84-1.47.36-3.01.73-4.6,1.12l-7.88,1.91c-1.62-.27-3.08-.54-4.8-.81ZM1130.44,375.27c.2-.31.38-.52.56-.64.5.19.88.37,1.13.54.43.09-.45.17.97.25l5.47.23,5.17.15.05.11-.03.13c-.03.22-.01-.41.05.42l.33,15.25c.45,9.4.91,18.97,1.38,28.86.7,8.5,1.42,17.22,2.15,26.19.82,10.58,1.73,9.19,2.69,14.26-1.44.66-3.37,1.34-5.68,2.04-2.47.48-4.89.95-7.32,1.42v-10.16s-15.26.1-15.26.1c-.96,0-1.81.06-2.77.07,1.78-8.5,3.57-18.07,5.27-29.99,1.18-9.59,2.36-19.2,3.55-28.89l1.61-16.57c.28-3.97.46-3.27.66-3.76Z"/>
  <path class="cls-1" d="M1239.97,375.03s-.03,0-.07,0c0,.02,0,.02,0,.04.06,0,.02,0,.08,0,0-.02,0-.02,0-.04Z"/>
  <path class="cls-1" d="M1240.01,375.07s0,0-.03,0c.01.07.02.13.03,0Z"/>
  <path class="cls-1" d="M842.48,469.33c4.93,1.09,13.63,2.11,25.16,3.05l4.84-51.6c1.3-16.65,2.31-35.31,2.91-54.65.19-11.28.37-22.34.55-33.22-19.29,1.26-38.03,2.48-56.76,3.7l.31,16.04c-1.65-.31-3.73-.59-5.75-.87.08-4.27.16-8.92.23-14.27l-18.63,1.24c-13.3,1.01-26.31,2-39.16,2.97,0,.41,0,.82,0,1.23-19.03,1.24-37.54,2.45-56.04,3.66l.31,16.04c-1.65-.31-3.73-.59-5.75-.87.08-4.27.16-8.92.23-14.27l-18.63,1.24c-13.3,1.01-26.31,2-39.16,2.97.07,10.23.14,20.33.21,30.4l.42,15.67c.46,9.75.92,19.43,1.39,29.27,1.49,18.55,3,37.52,4.56,56.91l7.17-.64.2,14.64,14.96-.57c26.13-.99,47.53-8.93,54.56-14.78l.43-.49s0-.04,0-.06l.47-.21-.16-.16c.49-.25.99-.4,1.46-1.11.21-.37.42-.88.63-1.28,4.93,1.09,13.63,2.11,25.16,3.05l4.84-51.6c1.3-16.65,2.31-35.31,2.91-54.65.02-1.1.04-2.14.05-3.23l.4,14.9c.46,9.75.92,19.43,1.39,29.27,1.48,18.55,3,37.52,4.56,56.91l7.17-.65.2,14.65,14.96-.57c26.13-.99,47.53-8.93,54.56-14.78l.43-.49s0-.04,0-.06l.47-.21-.16-.16c.49-.25.99-.4,1.46-1.11.21-.37.42-.88.63-1.27ZM729.62,374.36l.49.29c.11.01-.41.06-1.09.11l.08-.11c.18-.2.36-.29.52-.29ZM728.91,374.91l1.01-.03c.55-.02-.26.04-1.06.1l.05-.06ZM725.88,375.26l-.02.03c-.02.21,0,.01.02-.03ZM699.83,458.74l.18-.26c.85,2.13,1.73,4.1,2.63,5.86-.71-.24-1.27-.48-1.51-.71-1.29-.87-2.14-1.66-2.5-2.36.44-1.1.84-1.94,1.2-2.54ZM700.81,377l.23,4.76c-.39,1.01-.81,1.92-1.19,3.01-.06-.4-.11-1.11-.17-1.41-.54-.76-1.17-2.01-1.86-3.83.95-.77,1.28-1.59,2.99-2.53ZM667.67,380.02l.02.02-.26.02v-.03s.11-.04.11-.04l.13.03ZM665.46,380.19l-.66.05.65-.06s0,.01,0,.01ZM665.44,380.09s-.06,0-.09,0c.03-.03.06-.05.09,0ZM664.81,379.89s.24-.03.38.06c.03.17.07.17.11.14-.61.03-1.08.05-.75,0l.26-.21ZM663.62,436.33c1.18-11.9,2.15-25.57,2.97-40.2.11,1.67.22,3.26.34,4.96.96,11.63,2.15,22.34,3.47,31.85.75,5.41,1.54,10.3,2.35,14.89.44,3.92.88,7.91,1.39,12.55-3.06-.11-5.76-.2-8.21-.28l-5.19-.18c.15-.75.3-1.46.45-2.42l2.42-21.16ZM722.4,471.12l-.96-.42c-1.37-.59-3.08-1.15-4.64-1.73.58-2.32,1.16-4.81,1.74-7.52,2.34-7.32,4.01-17.44,4.8-28.49.26-1.92.53-3.69.78-5.71.94-7.45,1.8-15.78,2.6-24.62.3,7.22.57,14.56,1.05,21.22.71,9.74,1.59,18.82,2.57,27.09l.76,6.04c.26,2.02.55,2.07.83,3.33l1.72,6.87c-2.6,1.32-7.07,2.66-11.25,3.95ZM818.85,448.74l.18-.26c.85,2.13,1.73,4.1,2.63,5.86-.71-.24-1.27-.48-1.51-.71-1.29-.87-2.14-1.65-2.5-2.36.44-1.1.84-1.93,1.2-2.54ZM848.65,364.36l.49.29c.11,0-.41.05-1.09.11l.08-.11c.19-.2.36-.3.52-.29ZM847.93,364.91l1.01-.03c.55-.02-.26.04-1.06.1l.05-.07ZM844.9,365.26l-.02.03c-.02.21,0,.01.02-.03ZM845.74,392.61c.3,7.22.57,14.56,1.05,21.22.71,9.74,1.58,18.82,2.57,27.09l.76,6.04c.26,2.02.55,2.07.83,3.33l1.72,6.87c-2.6,1.31-7.07,2.66-11.25,3.94l-.96-.42c-1.37-.59-3.08-1.16-4.64-1.73.58-2.32,1.16-4.81,1.74-7.52,2.34-7.32,4.01-17.44,4.8-28.49.26-1.92.53-3.7.79-5.71.94-7.45,1.8-15.78,2.6-24.62ZM819.84,367l.23,4.75c-.4,1.01-.8,1.92-1.19,3.02-.06-.4-.11-1.11-.17-1.41-.54-.76-1.17-2.01-1.86-3.83.95-.77,1.28-1.59,2.99-2.53ZM786.69,370.01l.02.02-.26.02v-.03s.11-.04.11-.04l.13.03ZM784.48,370.18l-.66.05.65-.06s0,.01,0,.01ZM784.46,370.09s-.06,0-.09,0c.03-.03.06-.05.09,0ZM783.84,369.89s.24-.03.38.06c.03.17.07.17.11.14-.61.03-1.08.04-.75,0l.26-.2ZM782.64,426.32c1.18-11.9,2.15-25.57,2.97-40.2.11,1.67.22,3.25.34,4.95.96,11.63,2.15,22.33,3.48,31.85.75,5.41,1.55,10.3,2.36,14.89.43,3.92.87,7.91,1.39,12.55-3.06-.11-5.76-.2-8.21-.28l-5.2-.18c.15-.75.3-1.46.45-2.42l2.42-21.16Z"/>
  <path class="cls-1" d="M615.25,442.38c.79-13.03,1.34-27.02,1.59-41.81,0-10.73,0-21.2.01-31.49-22.44,1.33-42.98,1.04-61.09,3.97.21,9.14.42,18.32.63,27.61.33,4.41.67,8.86,1.01,13.37,1.5,17.32,3.55,32.67,5.75,45.13.23,1.12.47,2.23.72,3.33-1.59-.09-3.18-.2-4.73-.2l-14.91-.02-.19,15.29c-.03,2.34.03,4.64.18,6.88l1.04,16.01,14.05-.91c18.01-1.17,32.54-7.5,39.27-12.93,4.12.36,8.64.71,13.58,1.05,1.04-15.4,2.07-30.47,3.07-45.28ZM583.5,463.84c.71.33,1.43.61,2.18.81.26.56.48,1.21.75,1.73-1.15-.32-2.48-.57-3.7-.87.26-.56.52-1.09.77-1.67ZM585.28,400.36c-.16.4-.32.76-.47,1.17-.05.03-.1.09-.16.13-.28-.67-.57-1.29-.87-1.93,0,0,0,0,.01-.01.43-.24,1.19.44,1.49.65Z"/>
  <path class="cls-1" d="M467.53,465.95l-.19,15.29c-.03,2.34.03,4.64.18,6.88l1.04,16.01,14.05-.91c18.01-1.17,32.53-7.5,39.27-12.93,4.12.36,8.64.71,13.59,1.05,1.04-15.4,2.06-30.47,3.07-45.28.79-13.03,1.34-27.02,1.59-41.81,0-10.72,0-21.2.01-31.49-22.44,1.33-42.98,1.04-61.09,3.97.21,9.14.42,18.32.63,27.61.33,4.41.67,8.86,1.01,13.37,1.5,17.32,3.55,32.67,5.75,45.13.23,1.12.47,2.23.72,3.33-1.59-.09-3.18-.2-4.73-.2l-14.91-.02ZM506.78,467.53c.71.33,1.43.6,2.18.81.26.56.48,1.21.75,1.73-1.15-.32-2.48-.57-3.7-.86.26-.56.52-1.09.77-1.67ZM508.57,404.04c-.16.4-.32.76-.47,1.16-.06.03-.1.1-.16.13-.28-.67-.57-1.29-.87-1.93,0,0,0,0,.01-.01.43-.24,1.19.44,1.49.65Z"/>
  <path class="cls-1" d="M393.19,506.06l14.03-.93c17.51-1.16,31.63-7.41,38.29-12.81,4.14.38,8.69.74,13.68,1.08,1.05-15.21,2.07-30.04,3.07-44.55.79-12.9,1.34-26.13,1.59-41.27,0-10.5,0-20.75.01-30.83-21.64,1.29-43.07,1.06-60.43,3.92.21,9.03.42,18.1.63,27.31.33,4.31.67,8.66,1.01,13.08,1.13,12.81,2.63,24.03,4.22,34.26.2,1.22.33,2.49.57,3.66.33,2.01.63,4.38.97,6.26.21,1.01.44,2,.66,2.98-1.49-.08-2.99-.19-4.45-.2l-14.91-.02-.2,15.3c-.03,2.29.03,4.54.18,6.74l1.07,16.02ZM430.91,470.17c.67.32,1.36.58,2.08.78.17.36.33.79.5,1.14-.92-.26-2.22-.37-3.19-.62.2-.44.41-.85.61-1.3ZM432.05,408.63c-.19-.44-.39-.85-.58-1.27.25-.14.66.08,1,.32-.14.33-.28.6-.41.94Z"/>
  <path class="cls-1" d="M390.88,449.28c.79-12.67,1.34-24.47,1.59-40.26,0-10.09,0-19.93.01-29.62-20.16,1.22-43.23,1.1-59.2,3.84.21,8.75.41,17.55.62,26.5.33,4.2.67,8.45,1.01,12.78.8,8.62,1.76,16.62,2.81,24.09.43,5.28,1.29,10.06,2.34,14.55.21,1.18.39,2.63.61,3.77.17.79.36,1.56.54,2.34-1.31-.07-2.63-.18-3.91-.18l-14.9-.03-.2,15.31c-.03,2.2.03,4.36.18,6.47l1.11,16.06,13.98-.96c16.59-1.14,29.99-7.24,36.51-12.59,4.17.4,8.73.79,13.83,1.15,1.05-14.85,2.08-29.23,3.07-43.21ZM360.28,470.32c.6.3,1.22.54,1.85.73-.59-.17-1.4-.25-2.01-.41.05-.11.11-.21.16-.32Z"/>
  <path class="cls-1" d="M254.05,468.53l-.22,15.32c-.03,2.11.04,4.18.18,6.19l1.16,16.1,13.93-1c15.67-1.13,28.35-7.07,34.7-12.37,4.2.43,8.76.84,13.95,1.23,1.06-14.48,2.08-28.39,3.07-41.82.34-6.19.67-12.25,1-18.24.2-7.1.4-14.05.59-20.98,0-9.67,0-19.08.01-28.36-18.63,1.15-43.39,1.14-57.94,3.76.2,8.36.41,16.8.62,25.4.33,4.18.67,8.41,1.01,12.74.73,7.54,1.59,14.63,2.54,21.26.45,6.63,1.52,12.61,2.99,17.96.08.41.15.95.23,1.35.13.56.27,1.11.4,1.67-1.11-.05-2.25-.16-3.34-.16l-14.89-.04Z"/>
  <path class="cls-1" d="M232.98,392.06c-15.3.99-43.74,1.23-55.18,3.58.2,7.53.4,15.16.6,23.01.15,4.19.31,5.58.48,7.35l.54,5.31c.55,5.11,1.24,9.77,1.92,14.44.16,8.39,1.44,15.97,3.51,22.32-.55-.02-1.12-.09-1.67-.09l-14.86-.06-.24,15.34c-.03,1.9.03,3.77.18,5.59l1.3,16.19,13.8-1.1c13.46-1.07,24.5-6.51,30.51-11.6.2-.09.39-.18.59-.27,4.12.47,8.62.94,13.86,1.37,2.47-34.86,4.16-43.52,4.66-75.75,0-8.74,0-17.23.01-25.61Z"/>
  <path class="cls-1" d="M496.73,672.14l-.83.47c-2.19,2.06.07,4.11,5.73,6.04,2.9.97,6.36,1.9,11.09,2.8,6.91.94,15.66,1.87,26.15,2.76.99-15.07,1.94-29.77,2.88-44.17.75-12.33,1.26-25.47,1.51-39.4,0-10.55,0-20.85.01-31.05-21.1.8-41.67,1.58-62.58,2.37.64,34.12,1.62,40.88,2.84,53.97,1.22,11.96,2.68,22.47,4.29,31.16,2.37,11.01,5.78,20.58,8.64,12.27,1.09-3.68,2.18-8.12,3.26-12.98,1.04,1.27,2.28,2.23,3.58,3.31,1.75,3.66,3.5,6.58,5.35,8.85-4.64,1.23-9.49,2.44-11.93,3.61Z"/>
  <path class="cls-1" d="M565.63,672.14l-.83.47c-2.2,2.06.06,4.11,5.73,6.04,2.9.97,6.36,1.9,11.09,2.8,6.91.94,15.66,1.87,26.15,2.76.99-15.07,1.94-29.77,2.88-44.17.75-12.33,1.26-25.47,1.51-39.4,0-10.55,0-20.85.01-31.05-21.1.8-41.67,1.58-62.58,2.37.64,34.12,1.62,40.88,2.84,53.97,1.22,11.96,2.68,22.47,4.29,31.16,2.37,11.01,5.78,20.58,8.64,12.27,1.09-3.68,2.18-8.12,3.26-12.98,1.04,1.27,2.28,2.23,3.58,3.31,1.75,3.66,3.5,6.58,5.35,8.85-4.64,1.23-9.49,2.44-11.93,3.61Z"/>
  <path class="cls-1" d="M343.88,668.19l-.76.47c-2,2.07.05,4.11,5.2,6.03,2.99.97,4.98,1.87,10.87,2.79,6.35.93,14.38,1.84,23.97,2.72,1-14.26,1.96-27.95,2.88-41.15.75-11.84,1.26-21.73,1.51-37.23,0-9.6,0-18.95.01-28.23-19.95.77-39.47,1.52-59.58,2.29.18,6.29.36,12.62.54,19.05l.32,8.98.34,5.04c.53,5.6,1.07,11.33,1.63,17.26,1.22,10.87,2.68,20.42,4.29,28.32,2.37,10.01,5.78,18.7,8.64,11.15,1-3.08,2-6.87,3-10.85.79,1.04,1.73,1.83,2.68,2.74,1.59,2.91,3.13,5.24,4.8,7.13-4.33,1.17-7.88,2.36-10.35,3.47Z"/>
  <path class="cls-1" d="M187.84,658.64c-1.79,2.07.04,4.11,4.63,6.02,3.04,1.88,14.83,3.75,32.26,5.46,1.02-13.37,1.98-25.98,2.88-37.9.32-5.31.64-10.45.94-15.49.19-6.62.38-13.03.56-19.41,0-8.57,0-16.89.01-25.17-18.69.73-37.06,1.46-56.34,2.21.18,5.59.36,11.26.54,17.04l.32,8.04.34,5.93c.52,4.94,1.07,10.05,1.63,15.39,1.22,9.7,2.68,18.21,4.29,25.26,2.37,8.93,5.78,16.68,8.64,9.95.89-2.44,1.78-5.51,2.66-8.58.56.8,1.19,1.42,1.84,2.15,1.37,2.14,2.66,3.83,4.08,5.31-3.5,1.12-6.56,2.24-8.62,3.3l-.68.47Z"/>
  <path class="cls-1" d="M101.17,656.51c-1.68,2.07.03,4.11,4.34,6.01,2.7,1.87,14.95,3.75,30.97,5.44,1.03-12.92,1.99-24.99,2.88-36.27.33-5.02.64-9.84.94-14.55l.33-7.6c.08-3.9.16-7.75.23-11.58,0-8.06,0-15.86.01-23.64-18.04.72-35.83,1.42-54.72,2.17.39,9.61.78,19.53,1.2,29.99.52,4.61,1.06,9.42,1.63,14.46,1.22,9.11,2.68,17.1,4.29,23.73,2.37,8.38,5.78,15.67,8.64,9.34.82-2.12,1.64-4.84,2.46-7.47.46.7.97,1.25,1.49,1.89,1.22,1.74,2.37,3.11,3.62,4.36-2.94,1.1-5.91,2.2-7.7,3.24l-.64.47Z"/>
</svg>