<?xml version="1.0" encoding="UTF-8"?>
<svg id="Ebene_1_Kopie" data-name="Ebene 1 Kopie" xmlns="http://www.w3.org/2000/svg" viewBox="0 0 2464.14 948.41">
  <defs>
    <style>
      .cls-1 {
        fill: #3b0101;
      }
    </style>
  </defs>
  <path class="cls-1" d="M2461.77,423.17l-5.47-3.35-8.71-5.29-11.92-7.11c-7.84-4.64-15.53-9.2-23.08-13.68l-11.14-6.56c-2.04-.76-4.42-3.62-8.05-3.84l-8.54.12c-32.38.82-61.44.4-86.22-2.04-16.9-1.35-32.4-3.88-42.94-6.24,3.4-88.59,6.74-175.26,9.98-259.59-101.26-4.1-199.02-8.07-293.21-11.88-314.62,33.96-587.33,63.39-800.76,86.43-27.08-.59-50.54-1.11-73.23-1.61-76.67-1.08-149.04-2.09-194.07-2.73-12.92,5.35-23.31,9.75-30.95,13.09-.15-22.91-.31-45.73-.45-67.8-71.52-20.43-137.82-39.37-197.92-56.54-56.17-15.38-106.47-29.16-149.97-41.07-31.44-8.2-60.88-15.52-76.64-18.67l-4.04-8.11c-.26-1.54-1.71-1.14-.98-4.28l-2.16-2.23c-2.44-.43-5.66-.02-8.45-.08-6.31,1.13-14.45,5.83-21.57,8.56l-12.01,5.25c-59.22,29.56-109.08,69.39-154.51,110.08-45.35,40.96-85.69,84.08-122.94,126.77-18.68,21.28-36.45,42.71-53.7,63.37-4.16,4.89-8.9,10.65-12.44,14.36-2.96,3.76-8.41,7.12-13.3,10.24-5.11,3.11-10.55,5.92-16.12,8.47l-9.33,3.97c-5.35,2.15-11.29,4-16.93,5.9,5.51,82.16,10.64,158.56,15.33,228.47,4.86,66.51,9.27,126.8,13.18,180.26,3.15,37.05,6.17,72.7,8.51,100.3,17.28.35,26.62.32,34.58.21,2.58-.04,4.46-.11,6.5-.17l.7,11.64,12.38-2.99c8.85-2.14,17.18-4.15,25.37-6.13-.07-1.37-.14-2.67-.21-4.04,5.36.86,12.55,1.84,21.95,2.98,16.14,1.73,36.69,3.94,61.42,6.6,26.38,2.47,57.17,5.36,91.94,8.62,7.35-3.73,15.14-7.69,22.88-11.61,44.25-5.81,113.55-17.9,209.65-38.88,42.46-9.5,80.32-19,119.87-29.61,35.15-18.33,65.74-35.23,91.42-50.04-.06,2.04-.12,4.27-.16,6.82-.01,11.64-.03,27.34-.06,47.08.12,10.18.25,21.4.4,33.62.11,6.16.22,12.57.34,19.23.51,6.7-.77,12.98,2.33,23.23,10.28,13.78,22.26,20.8,36.19,27.94,13.78,6.76,28.78,12.33,44.72,17.27,15.95,4.92,32.86,9.15,50.65,12.84,9.27,1.89,17.17,3.51,28.27,5.09,9.49.1,19.16.2,29.01.3,77.77.65,166.86,1.39,265.03,2.21l11.37.09.06-8.12c166.38.07,358.4.16,565.01.25,120.71-23.21,247.19-47.53,376.36-72.36,6.1,2.06,13.73,4.02,22.46,5.82l.25,3.63,8.32-2.11c17.29,2.92,38.2,4.79,63.28,3.65l9.04-.41.31-9.39c30.4-.85,63.88-1.79,99.93-2.8,33.39-27.74,69.34-57.61,106.61-88.57.65-17.53,1.31-35.31,1.98-53.24,3.25-95.28,5.32-184.31,6.37-262.22.18-11.61.35-23.05.52-34.3l.06-3.2c-.17-.96-1.63-1.23-2.37-1.89ZM2313.15,396.04c12.3,2,25.55,3.56,39.74,4.8,7.15.49,14.48,1,21.98,1.52,3.79.18,7.63.36,11.51.55,3.35-.03,2.86.19,6.62,2.79,13.14,8.92,26.87,18.24,41.22,27.99,8.19,6.4,4.84.24,4.87,11.25-.54,9.35-1.09,18.89-1.66,28.63-.95,18.85-1.95,38.54-2.97,58.86-15.98-6.62-32.07-13.29-48.6-20.14-12.87,1.67-25.88,3.35-38.98,5.05-33.48,4.65-65.79,9.14-97.18,13.5,1.94-50.49,3.87-100.54,5.76-149.86,15.69,6.51,35.02,11.38,57.68,15.06ZM2183.65,648.91c-.2,8.48-.38,16.61-.55,24.66-8.48-1.46-26.32-2.84-52.25-4.11-23.77-.85-52.27-1.88-84.73-3.04-16.79-.41-34.58-.83-53.25-1.29-12.38-.19-25.11-.38-38.09-.58,5.33-23.61,10.43-77.65,13.15-136.96,1.3-32.69,1.67-63.26,1.36-90.61,19.62,4.87,49.68,9.65,91.38,12.44,55.78,3.11,105.72-3.24,129.01-9.37-2.26,78.21-4.3,148.55-6.04,208.85ZM1198.96,712.06c1.01-57.93,2.14-123.2,3.4-195.95,39.97,5.86,109.2,12.17,211.19,16.02,8.54.28,17.01.5,25.41.68-.46,7.9-.9,15.99-1.3,24.51-3.59,90.9,3.35,171.33,9.64,204.39-.09,0-.19,0-.29,0-72.36,1.36-134.97,3.15-184.64,5.17-28.2,1.33-54.31,3-65.04,4.7.52-18.97,1.06-38.73,1.62-59.53ZM1945.2,664.41c-8.14-.12-16.22-.25-24.57-.38-.11,11.39-.22,22.99-.34,34.75-.11,10.34-.22,7.02-.32,8.64l-1.13-.14c-.43-.02.25-.05-1.08-.07l-5.36-.07c-7.17-.08-14.41-.17-21.71-.25-14.63-.14-29.5-.29-44.56-.43-30.22-.19-61.21-.38-92.64-.57-14.37,0-28.32,0-42.46-.01,4.93-25.68,9.3-80.68,11.36-140.9.87-30.61,1-59.4.6-85.63,19.68,4.87,49.7,9.67,91.26,12.52,52.81,3.03,100.13-2.37,124.98-8.1-4.66,79,.44,149.4,5.96,180.64ZM1700.66,705.88c-8.55,0-17.33,0-25.77,0,.02,14.13.03,28.14.05,42.03l.04,11.01.05.14c-79.21.93-152.81,1.79-219.18,2.57,5.13-24.64,9.5-86.11,11.21-153.86.52-26.24.55-51.17.24-74.5,101.46.98,187.31-4.53,225.81-9.76-3.43,79.12,1.93,149.44,7.54,182.4ZM2189.99,429.78c-17.37-4.7-54.88-8.53-96.47-9.93-50.66-1.28-94.72,1.48-121.75,5.95-.9.17-1.76.37-2.63.55-.51-27.44-1.72-51.15-3.47-69.29-.29-2.47-.61-4.84-.96-7.12,80.08,3.35,156.35,6.55,227.29,9.51-.7,24.1-1.37,47.47-2.03,70.32ZM1940.11,471.38c-18.92-4.24-54.32-7.66-92.85-9.03-50.82-1.38-95.02,1.3-122.14,5.72-.79.15-1.54.32-2.31.48-.7-32.54-2.25-60.5-4.38-81.38-.36-2.94-.76-5.73-1.18-8.39,81.82-9.93,161.43-19.83,235.66-29.33.82.03,1.61.07,2.43.1-5.37,25.72-11.03,66.05-15.23,121.83ZM1693.46,515.08c-33-5.32-117.74-10.05-211.2-12.11-5.28-.1-10.36-.14-15.57-.21-.96-33.17-2.7-61.65-4.92-83.1-.47-3.86-1-7.55-1.57-10.9,29.76-3.33,60.24-6.74,91.61-10.24,52.67-6.14,104.7-12.37,156.1-18.6-5.33,28.21-10.82,72.82-14.44,135.17ZM1440.98,502.42c-89.4-.77-166.08,1.35-215.57,4.93-8.65.75-16.83,1.64-22.94,2.62.41-23.44.82-47.53,1.26-72.54,74.88-8.37,157.7-17.63,247.91-27.72-3.78,21.34-7.6,51.98-10.66,92.71ZM1197.25,774.59c2.27.32,5.21.63,9.25.94,24.67,1.6,55.22,3.22,91.51,4.77-12.37.43-24.4.86-35.52,1.31-28.68,1.35-55.13,3.05-65.56,4.78.11-3.99.21-7.72.32-11.8ZM2181.46,677.49l1.55-.2c-.06,2.91-.12,5.65-.18,8.5-7.85-1.41-24.44-2.75-48.67-3.98-2.98-.11-6.24-.23-9.37-.35,24-1.36,43.44-2.71,56.66-3.97ZM2255.4,694.27c.63,23.4,2.33,43.46,4.73,58.07.44,2.27.95,4.44,1.49,6.42-1.67.27-3.63.5-5.18.79-2.36.51-4.61,1.07-6.65,1.67.87-9.23,1.75-18.59,2.63-28.76.96-12.24,1.96-25.02,2.98-38.18ZM2264.79,561.05c.05-.75.09-1.42.14-2.17l.09.03.21.06c-.15.65-.29,1.4-.44,2.08ZM2284.98,671.14c3.62-47.8-1.1-90.8-6.46-113.82l10.07-1.3c5.34-.71,10.55-1.42,15.83-2.12-4.16,18.34-7.7,49.73-9.44,84.02-1.99,47.81.16,89.45,4.25,115.04.11.58.23,1.12.35,1.69-2.72.18-5.32.34-8.12.52-7.69.64-14.63,1.42-21.09,2.27,5.43-17.77,11.04-45.76,14.6-86.29ZM2410.27,594.75c-1.26-17.4-3.7-32.53-6.49-43.67l11.62,4.4c.5.19.47.17.78.29-2.25,9.01-4.26,22.54-5.91,38.99ZM2382.73,587.64c-1.62-18.06-4.26-33.16-7.07-43.88,2.1-.3,4.32-.63,6.41-.93,2.43.92,4.81,1.83,7.23,2.74-2.67,9.8-4.95,24.75-6.57,42.07ZM2354.89,602.52c-1.37-22.79-4.29-41.83-7.45-54.67,4.85-.7,9.71-1.41,14.5-2.1-3.02,13.38-5.54,33.64-7.06,56.78ZM2324.11,669.41c.47-6.32.72-12.5.93-18.64-.23,35,1.87,65.21,5.32,85.28-2.53-.06-5.15-.12-7.67-.19-.08,5.71-.16,11.31-.24,16.96,0,0-.02.27-.19.45-.13.04.09.09-.35.14l-2.95.11-5.79.25c-.8.05-1.65.11-2.46.16,5.04-18.47,10.08-45.98,13.39-84.51ZM2317.61,552.12c1.41-.19,2.85-.38,4.26-.57,4.12-.6,8.01-1.16,12.09-1.75-3.93,17.47-7.16,46.73-8.6,78.7-.07,1.96-.03,3.73-.08,5.67-.01-34.71-3.6-64.27-7.67-82.05ZM2354.12,663.9c.81,23.53,2.73,43.92,5.47,58.48l-6.32-.38-.66,14.58c-3.43-.08-6.7-.16-10.07-.24,4.43-16.45,8.68-40.44,11.58-72.45ZM2378.75,723.7c.59-.17-2.91-.33-4.94-.47l-2.2-.13c3.72-13.29,7.24-32.01,9.92-56.12,1.07,16.72,2.89,31.15,5.2,41.95.19.76.43,1.39.63,2.12-1.27-.13-2.33-.26-3.67-.39-.78,4.13-1.52,8.89-2.21,14.15-1.22-.4-2.12-.77-2.75-1.1ZM2406.25,673.79c-.05,14.04.22,27.33.74,39.75-.62-.1-1.09-.21-1.84-.31-2.29-.36-4.99-.7-7.76-1.05,3.16-9.34,6.24-22.04,8.86-38.38ZM453.56,21.03c40.43,14.39,93.67,32.65,160.42,54.78,65.46,21.2,142.57,46.18,232.23,75.22-.28,14.7-.58,29.96-.88,45.79-1.96.51-14.03,4.25-22.31,6.79-14.3,4.45-28.83,8.96-43.58,13.55.45,13.81.91,27.86,1.38,42.07,3.21,81.23,6.32,159.97,9.28,234.95,1.83,37.34,3.61,73.72,5.34,108.99.94,17.54,1.86,34.79,2.77,51.74.47,8.45.94,16.81,1.4,25.1l.68,11.93.31,2.35c-76.54,19.4-144.94,36.73-201.59,51.08-56.16,14.72-98.96,26.54-125.01,34.37l-.05-1.9c-.33-16.04-.68-32.43-1.03-49.13-.71-32.04-1.45-65.33-2.22-99.68-3.82-137.76-8.11-292.54-12.55-452.99-1.19-33.24-2.37-66.17-3.53-98.74l-.98-24.39-.54-12.19-.34-7.1c-.3-3.92-.14-8.26-.82-11.82l-.84-1.68c.86.32,1.51.58,2.45.92ZM417.52,326.1c.56,15.43,1.12,31.18,1.7,47.26,1.24,32.23,2.53,65.74,3.86,100.54,1.95,43.08,3.87,85.38,5.74,126.73-16.53,1.42-32.72,2.81-48.92,4.21,3.96-25.47,7.3-65.12,7.93-120.32.2-74.08-9.25-139.68-16.69-168.22,14.98-5.75,29.8-11.45,45.69-17.55l-.11,4.49c.26,7.54.53,15.17.79,22.87ZM356.58,443.63c1.36,65.37,6.42,122.02,12.29,156.64.36,1.86.73,3.67,1.12,5.42-2.91.25-5.94.51-8.84.76.42,11.58.84,23.12,1.26,34.57l.19,5.01.03.17.07.28-.2.07-.12.04-.07.02-2.09.14-16.77,1.15c-9.86.66-19.54,1.31-29.27,1.96,3.88-26.75,7.03-69.07,7.26-128.32-.36-80.04-10.81-150.38-18.54-179.03,18.6-7.15,37.95-14.58,58.24-22.38-3.58,23.38-5.3,71.24-4.55,123.49ZM289.86,478.64c1.85,68.8,7.33,128.4,13.46,164.82.47,2.45.96,4.79,1.47,7.03-2.68.18-5.43.36-8.1.54.27,10.08.53,20.12.79,30.08.12,2.83.15,1.51.23,2.56l-1.45.26-14.75,1.03c-8.59.58-16.99,1.14-25.45,1.71,3.93-26.13,7.15-67.74,7.38-126.32-.37-79.15-11.04-148.54-18.79-175.95,14.61-11.87,29.64-24.08,45.55-37.01,1.15-.44,2.47-.95,3.63-1.4-3.68,23.58-5.16,75.73-3.98,132.64ZM231.88,518.43c1.85,67.31,7.34,125.61,13.47,161.23.52,2.68,1.08,5.21,1.65,7.63-2.27.15-4.62.31-6.88.46.1,10.57.19,21.08.29,31.51l.07,4.25.08.77.15,1.66c-14.4,1-28.45,1.98-42.26,2.94,3.91-20.73,5.34-71.06,3.88-126.33-2.14-64.3-7.86-119.96-14.15-153.95-1.23-5.89-2.62-11.34-4-15.03,16.11-13.09,33.15-26.94,51.25-41.65-3.34,24.34-4.66,73.21-3.53,126.51ZM189.71,729.48c-8.61.6-17.26,1.2-25.62,1.78-6.35.45-12.4.88-18.62,1.31,3.7-19.2,5.22-61.71,4.08-108.07-1.81-55.97-7.25-104.4-13.36-133.96-1.45-6.22-3.15-11.99-4.8-14.96,13.16-10.42,27.05-21.43,42.01-33.27,1.48-1.2,3.09-2.51,4.58-3.72-4.08,24.7-7.43,65.45-7.41,124.13.69,74.39,11.32,139.76,19.14,166.76ZM135.66,733.28c-4.2.3-8.59.61-12.73.9-6.33.46-12.58.91-18.75,1.36,3.97-18.93,7.17-49.62,6.9-94.19-1.09-62.45-14.27-116.61-22.19-132.09h0c11.64-9.22,24.11-19.11,37.64-29.83-4.41,21.23-8.24,57.52-8.53,110.57.3,62.9,10.04,118.61,17.65,143.27ZM93.96,728.72c.75,2.68,1.56,5.26,2.4,7.5l-3.42.38c-.76-7.81-1.49-15.25-2.23-22.74,1.06,5.36,2.14,10.43,3.25,14.86ZM59.59,861.37c-5.06-.4-10.23-.82-16.55-1.32-1.82-56.14-4.04-124.48-6.67-205.6-3.29-80.68-7.09-174.01-11.43-280.65l3.47-1.16,11.3-4.77c7.49-3.47,14.98-7.3,22.3-12.24,7.3-4.37,14.81-12.74,19.67-18.34,5.34-6.13,10.73-12.32,16.16-18.56,21.4-24.84,43.67-50.22,67.47-75.69,47.53-50.81,100.4-103.29,162.9-149.45,11.13-8.26,22.28-16.37,33.96-23.48,11.36-7.72,23.08-14.55,35.05-20.72,5.99-3.04,11.67-6.88,17.89-9.22l7.35-3.17-.08.03v.04s.46,9.96.46,9.96c2.08,54.87,4.12,108.82,6.12,161.63.73,18.88,1.45,37.42,2.18,55.99-53.94,22.78-104.91,44.31-152.19,64.27-54,48.49-101.36,91.02-141.5,127.06-48.12,44.34-89.02,83.78-54.39,57.76-3.56,12.37-5.09,42.86-4.4,78.54-2.66-24.74-5.03-44.85-6.98-59.5l-.8-4.99c-3.07-13.7-4.16,2.7-3.63,41.69.53,20.36,1.18,45.34,1.94,74.49,1.29,30.71,2.74,65.53,4.34,103.55-.52.03-1.07.06-1.59.08.58,14.04,1.15,27.85,1.71,41.41.48,8.99.95,17.82,1.4,26.48,1,16.53,1.95,32.37,2.88,47.62-4.57-.52-10.51-1.1-18.33-1.76ZM99.02,832.92c-.17,4.41-.34,8.9-.51,13.47-.09,2.08-.21,3.39-.32,4.51.2-11.48.4-22.92.62-35.26.08-8.68.17-17.57.26-26.68.03-4.43.06-8.91.09-13.45l.38-2.1,1.48.2.63.1h.65c-.68,10.79-1.39,22.18-2.17,34.57-.36,7.9-.73,16.1-1.11,24.63ZM191.19,863.58c-27.81-.96-51.17-1.77-69.88-2.42l-5.14-.05c-.28-5.47-.57-10.97-.85-16.3-.36-4.94-.71-9.78-1.06-14.53-.74-9.19-1.45-18-2.14-26.49-1.1-11.33-2.31-21.99-3.52-30.17,5.48-.09,11-.19,16.62-.28,13.39-.28,27.16-.58,41.34-.88,17.06-.58,33.77-1.14,50.23-1.69,21.41-.94,42.42-1.87,63.12-2.78-.06-10.92-.13-21.77-.19-32.54-.04-4.25-.08-2.89-.12-3.25l-.14-.41c.56-.11-.63-.15,1.62-.36l15.33-1.01c14.31-.91,28.42-1.8,42.31-2.68-.2-10.49-.4-20.88-.6-31.17l-.16-3.87-.16-.88-.33-2.03,1.81-.5,1.05-.27,3.99-.49c5.81-.71,11.54-1.41,17.2-2.09,13.87-1.64,27.35-3.23,40.4-4.77-.72-9.3-1.43-18.39-2.13-27.27-.59-5.54-1.04-7-1.59-11.17,5.27-1.36,20.1-3.38,29.91-5.05,7.04-1.17,12.84-2.24,18.05-3.26,2.08,47.27,4.06,92.58,5.94,135.28l.27,4.9c-.18.75.69,2.13-.35,2.41l-8.28,4.63c-8.39,4.6-16.66,9.14-24.81,13.61-16.25,8.94-32.02,17.62-47.27,26.02-29.77,16.52-57.53,31.92-83.11,46.12-36.63-1.62-69.19-3.06-97.34-4.31ZM634.18,775.37c-15.03,3.43-30.37,6.93-45.91,10.48-86.38,20.53-163.17,41.18-220.53,58.35,21.04-10.68,42.95-21.81,66.05-33.53,6.52-3.34,13.12-6.71,19.8-10.13l13.41-6.91,4.47-2.32c1.53-.75,3.4-1.32,2.72-3.37l-.09-3.59c13.23-1.53,37.53-5.62,71.29-11.96,32.45-6.41,72.01-14.22,117.2-23.14,17.29-3.63,35.57-7.47,54.28-11.39-3.45,1.51-6.53,2.82-10.11,4.4-22.73,10.36-47.17,21.51-72.6,33.1ZM902.98,931.1c-7.73.32-17.74-2.11-26.26-3.31-17.64-3.08-34.55-6.7-50.55-10.97-31.24-8.67-62.5-19.12-79.2-38.69-2.11-3.59-1.23-9.72-1.95-15.17-.32-5.49-.64-10.85-.95-16.1-.6-10.47-1.17-20.46-1.71-29.95-1.1-18.86-2.08-35.77-2.94-50.67l-.9-12.91c-.08-.89-.16-1.48-.24-2.27,17.71-10.26,32.96-19.44,45.19-27.17,14.29-3,28.87-6.06,43.71-9.17-2.74-83.43-5.77-175.23-8.88-270.03-2.98-71.6-5.85-140.68-8.57-206.31,21.68-7.08,42.97-14.04,63.84-20.85-.04-5.34-.07-10.33-.11-15.62,7.48-2.5,17.85-6.1,31.77-11.07,0,0,.18.01.31.02,74.18,3.59,162.73,7.87,266.6,12.9,206.25-18.99,471.67-43.42,801.05-73.75,82.86,4.06,170.49,8.36,262.81,12.89-2.91,67.03-5.94,136.65-9.06,208.62-6.64,166.01-13.13,328.47-19.38,484.69l-9.53,2.45c-.91.23-1.8.46-2.71.69l-.85-11.58-8.96,1.77c2.23-18.47,5.11-51.95,8.48-97.77,3.01-45.07,6.75-100.89,11.05-165.14,4.04-68.96,8.6-146.91,13.53-231.21-83.42-4.83-173.3-10.03-266.72-15.43-44.88,5.31-90.93,10.76-137.5,16.28-114.9,14.13-225.57,27.73-330.28,40.6-108.43,13.87-210.61,26.95-304.73,38.99.89,79.19,1.71,152.78,2.46,220.03,1.13,63.21,2.16,120.4,3.07,170.93,1.18,46.31,2.62,89.55,4.12,112.63l-6.29.07.08,8.17c-92.06,1.1-176.38,2.1-251.32,2.99-9.66.14-19.17.27-28.53.4ZM1765.89,912.66c-211.41,2.49-404.82,4.76-572.77,6.74.14-2.75.29-5.58.43-9.06.95-34.74,2.06-75.42,3.3-121.09,2.3.33,5.4.67,9.67.99,83.83,5.44,233.58,11.02,456.07,13.52,18.92.09,37.69.19,56.21.28.03-14.38.06-28.69.1-42.91l.02-12.14h0c38.67-.27,76.18-.53,112.34-.79,44.9-.7,87.98-1.38,128.89-2.02-.18-11.83-.36-23.52-.54-35.07l-.14-5.54c-.05-2.07-.1-1.31-.14-2.13l-.29-2.88c50.02-1.99,95-3.78,133.01-5.3,39.63-1.91,69.97-3.88,88.7-5.66l2.03-.26c-1.28,61.71-1.87,109.82-1.79,141.08l-3.15.62c-143.16,28.36-281.13,55.69-411.93,81.6ZM2338.65,841.54c-35.54,3.2-68.72,6.19-98.9,8.91.08-.46.14-.61.22-1.11,2.82-20.61,5.9-47.3,9.08-80.14,8.09,2.43,18.13,4.87,31.26,7.1,7.63,1.29,16.13,2.51,25.52,3.6,4.98.52,9.89,1.03,14.76,1.54,10.31.51,20.49,1.02,30.64,1.52l.15-1.59c.3-5.07.57-9.72.84-14.28l.02-.11c4.62-.07,9.28-.14,14.19-.22l15.96-.24-1.01-14.35c-.06-.93-.14-1.96-.2-2.9,7.19-.62,14.6-1.25,22.37-1.92-.77-6.01-1.57-12.23-2.37-18.51,1.48-.96,3.91-1.94,6.44-2.91,1.08,18.56,2.71,34.68,4.74,47.09.16.83.34,1.63.51,2.44-10.61,9.36-21.27,18.76-31.52,27.79-14.65,13.15-28.9,25.92-42.68,38.28Z"/>
</svg>