<?xml version="1.0" encoding="UTF-8"?>
<svg id="Ebene_1_Kopie" data-name="Ebene 1 Kopie" xmlns="http://www.w3.org/2000/svg" viewBox="0 0 114.73 114.73">
  <defs>
    <style>
      .cls-1 {
        fill: #3b0101;
      }
    </style>
  </defs>
  <path class="cls-1" d="M109.84,55.19l-.23-.14-.37-.23-.51-.3c-.33-.2-.66-.39-.98-.58l-.48-.28c-.09-.03-.19-.15-.34-.16h-.36c-1.38.04-2.62.02-3.68-.08-.72-.06-1.38-.17-1.83-.27.15-3.78.29-7.48.43-11.08-4.32-.18-8.49-.34-12.51-.51-13.42,1.45-25.06,2.7-34.17,3.69-1.16-.03-2.16-.05-3.12-.07-3.27-.05-6.36-.09-8.28-.12-.55.23-.99.42-1.32.56,0-.98-.01-1.95-.02-2.89-3.05-.87-5.88-1.68-8.44-2.41-2.4-.66-4.54-1.24-6.4-1.75-1.34-.35-2.6-.66-3.27-.8l-.17-.35c-.01-.07-.07-.05-.04-.18l-.09-.1c-.1-.02-.24,0-.36,0-.27.05-.62.25-.92.37l-.51.22c-2.53,1.26-4.65,2.96-6.59,4.7-1.93,1.75-3.66,3.59-5.25,5.41-.8.91-1.56,1.82-2.29,2.7-.18.21-.38.45-.53.61-.13.16-.36.3-.57.44-.22.13-.45.25-.69.36l-.4.17c-.23.09-.48.17-.72.25.24,3.51.45,6.77.65,9.75.21,2.84.4,5.41.56,7.69.13,1.58.26,3.1.36,4.28.74.02,1.14.01,1.48,0,.11,0,.19,0,.28,0l.03.5.53-.13c.38-.09.73-.18,1.08-.26,0-.06,0-.11,0-.17.23.04.54.08.94.13.69.07,1.57.17,2.62.28,1.13.11,2.44.23,3.92.37.31-.16.65-.33.98-.5,1.89-.25,4.85-.76,8.95-1.66,1.81-.41,3.43-.81,5.11-1.26,1.5-.78,2.8-1.5,3.9-2.14,0,.09,0,.18,0,.29,0,.5,0,1.17,0,2.01,0,.43.01.91.02,1.43,0,.26,0,.54.01.82.02.29-.03.55.1.99.44.59.95.89,1.54,1.19.59.29,1.23.53,1.91.74.68.21,1.4.39,2.16.55.4.08.73.15,1.21.22.4,0,.82,0,1.24.01,3.32.03,7.12.06,11.31.09h.49s0-.34,0-.34c7.1,0,15.29,0,24.11.01,5.15-.99,10.55-2.03,16.06-3.09.26.09.59.17.96.25v.16s.37-.09.37-.09c.74.12,1.63.2,2.7.16l.39-.02v-.4c1.31-.04,2.74-.08,4.28-.12,1.42-1.18,2.96-2.46,4.55-3.78.03-.75.06-1.51.08-2.27.14-4.07.23-7.86.27-11.19,0-.5.02-.98.02-1.46v-.14s-.07-.05-.1-.08ZM103.49,54.03c.52.09,1.09.15,1.7.2.31.02.62.04.94.06.16,0,.33.02.49.02.14,0,.12,0,.28.12.56.38,1.15.78,1.76,1.19.35.27.21.01.21.48-.02.4-.05.81-.07,1.22-.04.8-.08,1.64-.13,2.51-.68-.28-1.37-.57-2.07-.86-.55.07-1.1.14-1.66.22-1.43.2-2.81.39-4.15.58.08-2.15.16-4.29.25-6.39.67.28,1.49.49,2.46.64ZM97.97,64.82c0,.36-.02.71-.02,1.05-.36-.06-1.12-.12-2.23-.18-1.01-.04-2.23-.08-3.62-.13-.72-.02-1.48-.04-2.27-.05-.53,0-1.07-.02-1.63-.02.23-1.01.45-3.31.56-5.84.06-1.39.07-2.7.06-3.87.84.21,2.12.41,3.9.53,2.38.13,4.51-.14,5.5-.4-.1,3.34-.18,6.34-.26,8.91ZM55.95,67.52c.04-2.47.09-5.26.15-8.36,1.71.25,4.66.52,9.01.68.36.01.73.02,1.08.03-.02.34-.04.68-.06,1.05-.15,3.88.14,7.31.41,8.72,0,0,0,0-.01,0-3.09.06-5.76.13-7.88.22-1.2.06-2.32.13-2.77.2.02-.81.05-1.65.07-2.54ZM87.79,65.48c-.35,0-.69-.01-1.05-.02,0,.49,0,.98-.01,1.48,0,.44,0,.3-.01.37h-.05s.01,0-.05,0h-.23c-.31,0-.61,0-.93-.01-.62,0-1.26-.01-1.9-.02-1.29,0-2.61-.02-3.95-.02-.61,0-1.21,0-1.81,0,.21-1.1.4-3.44.48-6.01.04-1.31.04-2.53.03-3.65.84.21,2.12.41,3.89.53,2.25.13,4.27-.1,5.33-.35-.2,3.37.02,6.37.25,7.71ZM77.36,67.25c-.36,0-.74,0-1.1,0,0,.6,0,1.2,0,1.79v.47s0,0,0,0c-3.38.04-6.52.08-9.35.11.22-1.05.41-3.67.48-6.56.02-1.12.02-2.18.01-3.18,4.33.04,7.99-.19,9.63-.42-.15,3.38.08,6.38.32,7.78ZM98.24,55.47c-.74-.2-2.34-.36-4.12-.42-2.16-.05-4.04.06-5.19.25-.04,0-.07.02-.11.02-.02-1.17-.07-2.18-.15-2.96-.01-.11-.03-.21-.04-.3,3.42.14,6.67.28,9.7.41-.03,1.03-.06,2.03-.09,3ZM87.58,57.25c-.81-.18-2.32-.33-3.96-.39-2.17-.06-4.05.06-5.21.24-.03,0-.07.01-.1.02-.03-1.39-.1-2.58-.19-3.47-.02-.13-.03-.24-.05-.36,3.49-.42,6.89-.85,10.06-1.25.04,0,.07,0,.1,0-.23,1.1-.47,2.82-.65,5.2ZM77.05,59.11c-1.41-.23-5.02-.43-9.01-.52-.23,0-.44,0-.66,0-.04-1.42-.12-2.63-.21-3.55-.02-.16-.04-.32-.07-.46,1.27-.14,2.57-.29,3.91-.44,2.25-.26,4.47-.53,6.66-.79-.23,1.2-.46,3.11-.62,5.77ZM66.28,58.57c-3.81-.03-7.09.06-9.2.21-.37.03-.72.07-.98.11.02-1,.04-2.03.05-3.09,3.2-.36,6.73-.75,10.58-1.18-.16.91-.32,2.22-.45,3.96ZM55.88,70.18c.1.01.22.03.39.04,1.05.07,2.36.14,3.9.2-.53.02-1.04.04-1.52.06-1.22.06-2.35.13-2.8.2,0-.17,0-.33.01-.5ZM97.88,66.04h.07c0,.12,0,.23,0,.35-.33-.06-1.04-.12-2.08-.17-.13,0-.27,0-.4-.02,1.02-.06,1.85-.12,2.42-.17ZM101.03,66.76c.03,1,.1,1.85.2,2.48.02.1.04.19.06.27-.07.01-.16.02-.22.03-.1.02-.2.05-.28.07.04-.39.07-.79.11-1.23.04-.52.08-1.07.13-1.63ZM101.43,61.07s0-.06,0-.09h0s0,0,0,0c0,.03-.01.06-.02.09ZM102.29,65.77c.15-2.04-.05-3.87-.28-4.86l.43-.06c.23-.03.45-.06.68-.09-.18.78-.33,2.12-.4,3.58-.08,2.04,0,3.82.18,4.91,0,.02,0,.05.01.07-.12,0-.23.01-.35.02-.33.03-.62.06-.9.1.23-.76.47-1.95.62-3.68ZM107.64,62.51c-.05-.74-.16-1.39-.28-1.86l.5.19s.02,0,.03.01c-.1.38-.18.96-.25,1.66ZM106.46,62.21c-.07-.77-.18-1.41-.3-1.87.09-.01.18-.03.27-.04.1.04.21.08.31.12-.11.42-.21,1.06-.28,1.79ZM105.27,62.84c-.06-.97-.18-1.78-.32-2.33.21-.03.41-.06.62-.09-.13.57-.24,1.44-.3,2.42ZM103.96,65.7c.02-.27.03-.53.04-.8,0,1.49.08,2.78.23,3.64-.11,0-.22,0-.33,0,0,.24,0,.48-.01.72,0,0,0,.01,0,.02,0,0,0,0-.01,0h-.13s-.25.02-.25.02c-.03,0-.07,0-.1,0,.21-.79.43-1.96.57-3.61ZM103.68,60.69c.06,0,.12-.02.18-.02.18-.03.34-.05.52-.07-.17.75-.31,1.99-.37,3.36,0,.08,0,.16,0,.24,0-1.48-.15-2.74-.33-3.5ZM105.24,65.46c.03,1,.12,1.87.23,2.5l-.27-.02-.03.62c-.15,0-.29,0-.43-.01.19-.7.37-1.73.49-3.09ZM106.29,68.01s-.12-.01-.21-.02h-.09c.16-.57.31-1.37.42-2.4.05.71.12,1.33.22,1.79,0,.03.02.06.03.09-.05,0-.1-.01-.16-.02-.03.18-.06.38-.09.6-.05-.02-.09-.03-.12-.05ZM107.47,65.88c0,.6,0,1.17.03,1.7-.03,0-.05,0-.08-.01-.1-.02-.21-.03-.33-.04.13-.4.27-.94.38-1.64ZM24.15,38.03c1.73.61,4,1.39,6.84,2.34,2.79.9,6.08,1.97,9.91,3.21-.01.63-.02,1.28-.04,1.95-.08.02-.6.18-.95.29-.61.19-1.23.38-1.86.58.02.59.04,1.19.06,1.79.14,3.47.27,6.83.4,10.02.08,1.59.15,3.15.23,4.65.04.75.08,1.48.12,2.21.02.36.04.72.06,1.07l.03.51v.1c-3.25.83-6.17,1.57-8.59,2.18-2.4.63-4.22,1.13-5.33,1.47v-.08c-.02-.68-.03-1.38-.05-2.1-.03-1.37-.06-2.79-.09-4.25-.16-5.88-.35-12.48-.54-19.33-.05-1.42-.1-2.82-.15-4.21l-.04-1.04-.02-.52v-.3c-.03-.17-.02-.35-.05-.5l-.04-.07s.06.02.1.04ZM22.61,51.05c.02.66.05,1.33.07,2.02.05,1.38.11,2.8.16,4.29.08,1.84.16,3.64.24,5.41-.71.06-1.4.12-2.09.18.17-1.09.31-2.78.34-5.13,0-3.16-.39-5.96-.71-7.18.64-.25,1.27-.49,1.95-.75v.19c0,.32.02.65.03.98ZM20.01,56.06c.06,2.79.27,5.21.52,6.68.02.08.03.16.05.23-.12.01-.25.02-.38.03.02.49.04.99.05,1.48v.21s0,0,0,0h0s0,.01,0,.01h0s0,0,0,0h-.09s-.72.05-.72.05c-.42.03-.83.06-1.25.08.17-1.14.3-2.95.31-5.48-.02-3.42-.46-6.42-.79-7.64.79-.31,1.62-.62,2.48-.95-.15,1-.23,3.04-.19,5.27ZM17.17,57.56c.08,2.94.31,5.48.57,7.03.02.1.04.2.06.3-.11,0-.23.02-.35.02.01.43.02.86.03,1.28,0,.12,0,.06,0,.11h-.06s-.63.06-.63.06c-.37.02-.72.05-1.09.07.17-1.11.31-2.89.31-5.39-.02-3.38-.47-6.34-.8-7.51.62-.51,1.26-1.03,1.94-1.58.05-.02.11-.04.15-.06-.16,1.01-.22,3.23-.17,5.66ZM14.69,59.25c.08,2.87.31,5.36.57,6.88.02.11.05.22.07.33-.1,0-.2.01-.29.02,0,.45,0,.9.01,1.34v.18s0,.03,0,.03v.07c-.61.04-1.21.08-1.8.13.17-.88.23-3.03.17-5.39-.09-2.74-.34-5.12-.6-6.57-.05-.25-.11-.48-.17-.64.69-.56,1.41-1.15,2.19-1.78-.14,1.04-.2,3.12-.15,5.4ZM12.89,68.26c-.37.03-.74.05-1.09.08-.27.02-.53.04-.79.06.16-.82.22-2.63.17-4.61-.08-2.39-.31-4.45-.57-5.72-.06-.27-.13-.51-.2-.64.56-.44,1.15-.91,1.79-1.42.06-.05.13-.11.2-.16-.17,1.05-.32,2.79-.32,5.3.03,3.17.48,5.96.82,7.12ZM10.59,68.42c-.18.01-.37.03-.54.04-.27.02-.54.04-.8.06.17-.81.31-2.12.29-4.02-.05-2.66-.61-4.98-.95-5.64h0c.5-.39,1.03-.82,1.61-1.27-.19.91-.35,2.45-.36,4.72.01,2.68.43,5.06.75,6.11ZM8.81,68.23c.03.11.07.22.1.32l-.15.02c-.03-.33-.06-.65-.09-.97.05.23.09.45.14.63ZM7.34,73.89c-.22-.02-.44-.03-.71-.06-.08-2.4-.17-5.31-.28-8.77-.14-3.44-.3-7.42-.49-11.97l.15-.05.48-.2c.32-.15.64-.31.95-.52.31-.19.63-.54.84-.78.23-.26.46-.53.69-.79.91-1.06,1.86-2.14,2.88-3.23,2.03-2.17,4.28-4.41,6.95-6.38.47-.35.95-.7,1.45-1,.48-.33.98-.62,1.5-.88.26-.13.5-.29.76-.39l.31-.14h0s0,0,0,0l.02.43c.09,2.34.18,4.64.26,6.9.03.81.06,1.6.09,2.39-2.3.97-4.48,1.89-6.49,2.74-2.3,2.07-4.32,3.88-6.04,5.42-2.05,1.89-3.8,3.57-2.32,2.46-.15.53-.22,1.83-.19,3.35-.11-1.06-.21-1.91-.3-2.54l-.03-.21c-.13-.58-.18.12-.15,1.78.02.87.05,1.93.08,3.18.05,1.31.12,2.8.19,4.42-.02,0-.05,0-.07,0,.02.6.05,1.19.07,1.77.02.38.04.76.06,1.13.04.71.08,1.38.12,2.03-.2-.02-.45-.05-.78-.08ZM9.02,72.67c0,.19-.01.38-.02.57,0,.09,0,.14-.01.19,0-.49.02-.98.03-1.5,0-.37,0-.75.01-1.14,0-.19,0-.38,0-.57l.02-.09h.06s.03.01.03.01h.03c-.03.46-.06.95-.09,1.48-.02.34-.03.69-.05,1.05ZM12.95,73.98c-1.19-.04-2.18-.08-2.98-.1h-.22c-.01-.24-.02-.47-.04-.7-.02-.21-.03-.42-.05-.62-.03-.39-.06-.77-.09-1.13-.05-.48-.1-.94-.15-1.29.23,0,.47,0,.71-.01.57-.01,1.16-.02,1.76-.04.73-.02,1.44-.05,2.14-.07.91-.04,1.81-.08,2.69-.12,0-.47,0-.93,0-1.39,0-.18,0-.12,0-.14v-.02s-.03,0,.06-.02l.65-.04c.61-.04,1.21-.08,1.81-.11,0-.45-.02-.89-.03-1.33v-.17s-.01-.04-.01-.04v-.09s.06-.02.06-.02h.04s.17-.03.17-.03c.25-.03.49-.06.73-.09.59-.07,1.17-.14,1.72-.2-.03-.4-.06-.78-.09-1.16-.03-.24-.04-.3-.07-.48.22-.06.86-.14,1.28-.22.3-.05.55-.1.77-.14.09,2.02.17,3.95.25,5.77v.21s.04.09,0,.1l-.35.2c-.36.2-.71.39-1.06.58-.69.38-1.37.75-2.02,1.11-1.27.7-2.45,1.36-3.55,1.97-1.56-.07-2.95-.13-4.15-.18ZM31.86,70.22c-.64.15-1.3.3-1.96.45-3.69.88-6.96,1.76-9.41,2.49.9-.46,1.83-.93,2.82-1.43.28-.14.56-.29.84-.43l.57-.29.19-.1c.07-.03.14-.06.12-.14v-.15c.56-.07,1.6-.24,3.04-.51,1.38-.27,3.07-.61,5-.99.74-.15,1.52-.32,2.32-.49-.15.06-.28.12-.43.19-.97.44-2.01.92-3.1,1.41ZM43.33,76.86c-.33.01-.76-.09-1.12-.14-.75-.13-1.47-.29-2.16-.47-1.33-.37-2.67-.82-3.38-1.65-.09-.15-.05-.41-.08-.65-.01-.23-.03-.46-.04-.69-.03-.45-.05-.87-.07-1.28-.05-.8-.09-1.53-.13-2.16l-.04-.55s0-.06-.01-.1c.76-.44,1.41-.83,1.93-1.16.61-.13,1.23-.26,1.87-.39-.12-3.56-.25-7.48-.38-11.52-.13-3.05-.25-6-.37-8.8.93-.3,1.83-.6,2.72-.89,0-.23,0-.44,0-.67.32-.11.76-.26,1.36-.47,0,0,0,0,.01,0,3.17.15,6.94.34,11.38.55,8.8-.81,20.13-1.85,34.18-3.15,3.54.17,7.27.36,11.21.55-.12,2.86-.25,5.83-.39,8.9-.28,7.08-.56,14.01-.83,20.68l-.41.1s-.08.02-.12.03l-.04-.49-.38.08c.1-.79.22-2.22.36-4.17.13-1.92.29-4.3.47-7.05.17-2.94.37-6.27.58-9.87-3.56-.21-7.39-.43-11.38-.66-1.92.23-3.88.46-5.87.69-4.9.6-9.62,1.18-14.09,1.73-4.63.59-8.99,1.15-13,1.66.04,3.38.07,6.52.11,9.39.05,2.7.09,5.14.13,7.29.05,1.98.11,3.82.18,4.81h-.27s0,.35,0,.35c-3.93.05-7.53.09-10.72.13-.41,0-.82.01-1.22.02ZM80.14,76.07c-9.02.11-17.27.2-24.44.29,0-.12.01-.24.02-.39.04-1.48.09-3.22.14-5.17.1.01.23.03.41.04,3.58.23,9.97.47,19.46.58.81,0,1.61,0,2.4.01,0-.61,0-1.22,0-1.83v-.52h0c1.65-.01,3.25-.02,4.79-.03,1.92-.03,3.75-.06,5.5-.09,0-.5-.02-1-.02-1.5v-.24c0-.09-.01-.06-.01-.09v-.12c2.12-.08,4.04-.16,5.66-.23,1.69-.08,2.99-.17,3.78-.24h.09c-.05,2.62-.08,4.67-.08,6.01l-.13.03c-6.11,1.21-12,2.38-17.58,3.48ZM104.58,73.04c-1.52.14-2.93.26-4.22.38,0-.02,0-.03,0-.05.12-.88.25-2.02.39-3.42.35.1.77.21,1.33.3.33.06.69.11,1.09.15.21.02.42.04.63.07.44.02.87.04,1.31.07v-.07c.02-.22.03-.41.04-.61h0c.2,0,.4-.01.61-.01h.68s-.04-.62-.04-.62c0-.04,0-.08,0-.12.31-.03.62-.05.95-.08-.03-.26-.07-.52-.1-.79.06-.04.17-.08.27-.12.05.79.12,1.48.2,2.01,0,.04.01.07.02.1-.45.4-.91.8-1.34,1.19-.63.56-1.23,1.11-1.82,1.63Z"/>
</svg>